<svg><defs><font id="Caroni-Regular" horiz-adv-x="0"><font-face font-family="Caroni" font-weight="400" panose-1="0 0 5 0 0 0 0 0 0 0" ascent="800" descent="-200" x-height="399" cap-height="720" bbox="-366 -238.364 641.261 897.261" underline-thickness="50" underline-position="-50" unicode-range="U+0020-U+2265"/><glyph glyph-name="f_f.liga" unicode="ff" horiz-adv-x="549" d="M141-231q-13 12-15.5 54.5T123 85v223H75q-21-1-41.5 3.5T9 322q-2 4 2.5 13.5T21 347q9 3 28 4t29 3l45 3q1 74 3 110 3 69 8 92 13 56 37.5 86.5T226 676h2q17 0 37-11 62-36 62-136 0-19-4.5-23.5T304 503q-13 2-17.5 10.5T282 545q0 46-25 75-14 17-26 17-31 0-48-83-13-67-13-133v-64q7 0 29 1t35 0q6 0 20 1l34.5 2.5L321 364q4 0 44 5l5 90q5 69 11 93 14 57 40 88t58 29q17-2 36-13 26-18 40.5-50t13.5-56q0-21-16-28-20-8-27 25l-2 10q0 1-1 7t-1.5 8.5-2 9-3 11-4 10-5.5 9.5-7 8-9 6-11 3q-31 3-51-84-13-90-16-172l70 6q34 3 41-19 7-18-16-27-8-3-20-3-56-4-77-7l-3-80-5-284q-2-70-2.5-104t-2.5-52-2.5-20-3.5-8q-5-11-14-13t-17 7q-11 10-12 26-3 27 5 274 4 149 9 251-6-1-16-1-31-2-61-2-109-9-116-10l1-50q3-71 5-278 1-135 .5-164t-5.5-38q-4-12-13-14t-17 6z"/><glyph glyph-name="t_t.liga" unicode="tt" horiz-adv-x="503" d="M138 40q-11 9-15.5 52.5T117 261l-2 129-8-2q-19-5-44.5-5.5T27 387q-31 12-23 25 6 11 16 15.5t36 6.5q55 3 57 5 3 1 3 45 0 52 3.5 118.5T126 679q5 11 12 11 6 0 13-9 14-17 19-150l4-83h10q9 0 28 1l37 2 48 2.5 47 2.5v39q2 92 6 149 0 3 .5 9.5t1 10 1 9.5 1 9 1.5 8 2.5 7.5l3 5 4 4 5.5 1.5q24 0 26-48 0-13 .5-45.5T398 542q1-34 1-83h56q26-2 35.5-7t13.5-18q3-10-4-16-7-7-39-7l-62-2q0-18-1-60t-1-74q-1-17 .5-72t1.5-70q0-19 4-53 1-31-5-38-5-6-16.5-6.5T363 40q-11 10-14.5 55T344 267q-1 83-1 138l-166-12q-7-6-9-111t5-152q4-40 5-51 1-30-5-37-5-6-16.5-6.5T138 40z"/><glyph glyph-name="colon_parenright.liga" unicode=":)" horiz-adv-x="506" d="M179 416q-19 50-6 93 8 18 27 18h13q17-7 21-39 0-26-17-66-5-11-12-16.5t-14-3-12 13.5zm140-24q-13 13-22 62-4 21 .5 41t15.5 22q3 1 7 1 27 0 39-39 4-19-12-73-11-22-28-14zm-85-272q-83 6-124 52-32 38-43 85-13 55 4 71 14 12 29-18 6-13 11-31 14-59 62-88 37-24 85-16 51 7 94.5 43t55.5 85q8 32 30 32 4 0 5-1 34-5 14-66-22-69-85-107-75-45-138-41z"/><glyph glyph-name=".notdef" horiz-adv-x="600"/><glyph glyph-name=".null"/><glyph glyph-name="nonmarkingreturn" horiz-adv-x="333"/><glyph glyph-name="space" horiz-adv-x="300"/><glyph glyph-name="exclam" unicode="!" horiz-adv-x="233" d="M130 203q-11 2-16 20-3 12-5 73-4 192-1 335 5 65 9 87 0 6 5 10.5t12 4.5h2q13-1 22-10t7-19q1-32-3-91.5t-4-80.5q-1-31-2.5-141T151 232q0-20-17-28h-2q-1-1-2-1zm17-145q-31-2-40 9-14 23 5 50 7 8 17 8 13 0 22-11 17-21 17-36-6-19-21-20z"/><glyph glyph-name="quotedbl" unicode="&quot;" horiz-adv-x="235" d="M94 791q9 0 14-4 4-2 6-5.5t2-8-.5-7.5-2-8-1.5-7q-8-20-17.5-59L83 645q-1-10-11-16t-20-2q-9 1-14.5 8T33 651q6 48 33 117 9 24 26 23h2zm90-31q6 0 12-5t6-11q-1-16-12.5-42.5T176 666q-2-4-5.5-22.5T159 618q-13-9-28 1.5T117 645q0 9 2.5 20t6 18l9.5 19 9 18q1 2 5 9.5t6.5 11 7 8.5 9 7.5T182 759q1 0 2 1z"/><glyph glyph-name="numbersign" unicode="#" horiz-adv-x="573" d="M221 151q-15-1-19 8-5 8-5 47t-5 39q-6 0-33-20-29-22-35-23-9-3-15 3.5t-6 19.5q0 26 58 58 26 14 31 23.5t5 43.5v30l-17-9q-10-5-44-27-43-29-51-7-2 4-2.5 10t.5 8q3 9 99 70l24 14v58q0 41 3 54.5t12 13.5q13 0 19-62 2-31 6-37t53 16q47 19 50 22 1 0 5 54 4 41 9.5 55.5T382 628q9 0 13-11t6-43q4-39 5-40 4-2 41 17 38 20 49 14 11-5 12-13t-8.5-17.5T473 517q-21-8-47-25-18-12-24.5-26.5T395 421q0-20 5-21.5t39 11.5q23 8 33 6 7-1 10.5-11t.5-21q-5-17-62-36-20-7-24-18t-3-58-3-63-18-18-18.5 10.5T350 254q-2 52-4 58-2 8-7.5 6.5T302 302q-41-20-48-31-7-8-7-53-1-38-6-52t-20-15zm23 187q2-8 9.5-6.5T293 348q37 17 47 30t10 43q0 31-3 33-5 3-46.5-18.5T254 406q-6-8-10-34t0-34z"/><glyph glyph-name="dollar" unicode="$" horiz-adv-x="503" d="M254 0q-10 0-13 12-7 19-10 56-61 3-104 33-58 40-64 112v1q-2 22 1 26 2 3 7 5 2 2 9 2 18-2 27-26v-1q9-36 36-61.5t63-37.5q14-4 21-5-3 58 0 139l3 102q-52 26-109 77-23 21-38 59-13 33-2 74 14 50 69 82 30 18 75 26l15 3q0 12 1 18v14l2 10q2 6 13 15 11 3 17 3 10-2 14-9 1-1 1-3v-1q0-3 1-4v-15q0-4 .5-13.5t.5-14.5q46-4 89-34 53-36 59-112 2-20-2-26-2-4-6-6-2-1-7-1-16 0-26 26v1q-15 72-89 98l-18 6q-2-78-2-136 0-17-1-52.5t-1-53.5q1 0 2.5-1l3-2 2.5-1q79-36 120-73 30-27 41-59 13-31 2-73-13-48-77-82-42-23-97-28V50q-3-32-10-39-10-11-19-11zm-21 418l6 214q-38-5-65-24-39-28-45-54-6-27 12-56 28-43 92-80zm51-304q39 5 70 23 41 25 51 56 5 28-14 54-30 41-106 83 0-42-.5-105.5T284 147v-33z"/><glyph glyph-name="percent" unicode="%" horiz-adv-x="545" d="M88 24q-13 26 6 56 68 109 148 283l58.5 121L355 597q9 23 8 26-9 2-24.5-2.5T319 616q-11-2-34.5-5t-34.5-6q-2-8-3-29.5t-5-31.5q-11-36-45-57t-72-16q-41 6-68.5 40.5T33 586q4 31 31 63 33 40 97 31 16-1 44.5-11.5T244 656q8-2 17.5-2h16l17.5 3.5 15.5 4.5 16.5 6.5 15 7 16.5 8L373 691q5 2 18.5 11t22.5 10h1q12 0 19-7 13-17 1-62-9-28-23.5-56.5l-34-64.5-28.5-54-74-150-93-184q-6-11-15.5-35t-19-41.5T123 28q-8-8-17.5-10T88 24zm79 490q19 4 28.5 22.5T205 576q3 25-26 35-6 2-17.5 12T142 633h-3q-29 0-48-26t-7-52q12-21 35.5-33t47.5-8zM407 75q-36-6-68.5 16T293 149q-15 40 22 104 26 44 77 44 53 0 94-38 28-24 26-86-6-37-36-64t-69-34zm-26 53q33-19 68 14 22 18 17 51-7 23-28.5 37.5T392 245q-11 0-16-3-32-14-28-55-5-37 33-59z"/><glyph glyph-name="ampersand" unicode="&amp;" horiz-adv-x="541" d="M477 25q-21 6-46 24-23 16-41 35-10 11-18 21l-3-5q-5-5-19-17-26-22-47-33-71-35-139.5-5.5T73 151q-12 37-11 77 5 99 88 167l6 7-24 45q-27 51-35 99-10 51 18 102 32 58 96 71h11q34 0 63-27 30-30 39-81 18-118-92-239l119-169 5-5q0 1 1.5 4t3 7.5 2.5 8.5q8 28 10 39 5 17 9 38 2 10 2 14v6q-3 27 9 42 5 8 15 10t19-6q15-12 15-35 1-19-10-55-21-69-26-88-5-15-5-22l-1-7q40-52 82-71 16-5 31-15 10-8 11-16 3-12-6-21h-1q-15-15-40-6zM200 425q28 17 51 58t28 82q6 44-11 69-16 23-50 23-5-1-15-1-47-15-58-63-10-50 24-114 24-44 28-49 1-3 3-5zm80-329q31 13 47 39 5 7 5 10-1 3-6 10L196 332q-3 5-7 9h-1q-56-41-66-98-12-72 26-119 43-52 132-28z"/><glyph glyph-name="quotesingle" unicode="'" horiz-adv-x="172" d="M60 475q-8-6-9 9-1 12 15 126 8 58 8 90 0 13 13 17t22-3q25-27 7-120T60 475z"/><glyph glyph-name="parenleft" unicode="(" horiz-adv-x="306" d="M233-11q-8-4-22 3-25 11-43 33Q62 158 62 376q1 92 16 155.5T125 662q16 35 50 78 9 13 27 31 4 5 10 9 4 3 8 4h1q8 0 12-8 3-7 1-19-6-28-24-49-29-33-55-99t-33-125q-16-146 5-252t93-197l12-11q8-6 9-15 0-10-1-13-4-6-7-7z"/><glyph glyph-name="parenright" unicode=")" horiz-adv-x="301" d="M102-12q-9 0-12 8-3 7-1 19 5 26 24 48 29 33 55 99.5T201 288q16 144-5.5 250.5T102 736q-4 6-12 12-8 8-8 14-1 6 1 14 2 5 7 7l2 1h5q3 0 15-4 25-11 43-33 108-137 105-351-1-93-15.5-156T198 110q-15-33-50-79-20-24-27-30L111-9q-5-3-8-3h-1z"/><glyph glyph-name="asterisk" unicode="*" horiz-adv-x="273" d="M123 440q-6 1-10 7-6 9-8 31-1 9 5 54-8-9-29-27-12-10-26-12-13 0-19 10-5 11 1 22 5 9 22 16 11 3 28 16l12 11-9 7q-14 8-34 23-11 6-18 15-5 5-5 15 0 8 4 14 5 5 12 5 14 0 37-17 10-8 17-11 1-1 5.5-4t5.5-4q3 0 3.5 15.5t-.5 32 2 28.5q3 17 12 20h4q4 0 14-2 4-1 7-4 2-2 4-8 1-5-1-46-2-24 0-38 3 1 5 3 1 1 15 13t18 15q9 7 17 9 8 1 12 0 7-4 11-19 0-8-5-14-6-7-19-16-18-12-31-26l-5-5-1-1q0-1 1-2l6-5q5-4 21-14 16-11 26-23 7-7 9-16 3-8-4-17-10-6-19-3-5 1-32 20-11 9-19 13-3 2-17 15 0-6-1-7 4-20 0-39-5-37-13-45-5-5-11-5z"/><glyph glyph-name="plus" unicode="+" horiz-adv-x="434" d="M222 121q-7 0-16.5 6.5T193 145q-1 6-5 140-114-2-130 1-23 3-25 19 0 7 6.5 16.5T57 334q6 1 129 5l-3 71q-4 79 9 79 40-2 44-51 2-27 4-97l82 3q79 4 79-9-1-17-9.5-26.5t-17-12T350 291q-6-1-108-5 2-124-1-140-3-23-19-25z"/><glyph glyph-name="comma" unicode="," horiz-adv-x="138" d="M43-32q-10-7-10 9 0 5 15 96 9 51 9 84 0 13 13 17t22-3q24-27 7-101.5T43-32z"/><glyph glyph-name="hyphen" unicode="-" horiz-adv-x="332" d="M58 274q-23 3-25 19 0 7 6.5 16.5T57 322q12 3 163 10 79 4 79-9-1-17-9-26.5T273 284t-25-5q-25-3-98-5.5t-92 .5z"/><glyph glyph-name="period" unicode="." horiz-adv-x="132" d="M54 58q-17 2-21 20 0 15 17 36 7 9 18.5 10.5T88 117q20-26 6-50-9-11-40-9z"/><glyph glyph-name="slash" unicode="/" horiz-adv-x="449" d="M5-106q-5 5-3.5 20T9-64q9 9 22 37l131.5 295.5L332 636q38 71 56 109 15 31 22.5 40.5T429 795q13 0 18-6 11-16-62-160Q260 384 108 11q-5-11-18-34T72-58L61.5-81 54-97q-5-8-24.5-11.5T5-106z"/><glyph glyph-name="zero" unicode="0" horiz-adv-x="428" d="M186 59q-22 7-49.5 34.5T95 151q-20 42-26.5 81.5T62 356q0 85 9 126 21 99 65.5 165t89.5 66q40 0 77.5-53T366 513q48-181-13-342-21-55-49-82-54-50-118-30zm25 57q22-8 41 0 36 16 57 82 28 83 29 175 0 54-12 102-26 101-60.5 146.5T197 645q-38-26-60-101.5T114 362q0-72 10-115 28-109 87-131z"/><glyph glyph-name="one" unicode="1" horiz-adv-x="215" d="M129 57q-24-12-33 4-15 29-14 330 0 260 12 291 5 16 19 11 16-4 20-30t4-119q0-148 11-387 3-57-.5-75.5T129 57z"/><glyph glyph-name="two" unicode="2" horiz-adv-x="412" d="M66 50q-13 13 40 94 78 120 141 246 42 82 52.5 122.5T301 597q-8 32-33 47.5t-54 5.5q-12-5-17.5-10.5T184 621q-11-24-10-56 0-33 2-43 1-9-11-15-14-7-23 0t-13 27.5-2 52.5q6 111 100 120 19 2 29 .5t29-11.5q55-27 66-69 6-22 6-69 0-35-2.5-48T340 468q-16-40-67-140t-73-135q-51-78-51-81 11 0 35 4 33 4 81.5 1.5T333 108q47-17 36-38-5-10-22.5-12T282 60q-100 9-161-8-13-4-32.5-5T66 50z"/><glyph glyph-name="three" unicode="3" horiz-adv-x="474" d="M198 38q-34 8-71 38.5T73 140q-10 21-11 45t9 31q9 7 15 7 20 0 37-50 16-52 61-75 24-11 50-9 52 5 99 53 27 29 35.5 51.5T377 259q0 78-31 109-25 25-97 29-47 2-55 6-11 6-5.5 21.5T221 475l57 78q28 42 37 54 28 40 4 46-13 2-56-3-87-9-116 4-19 9-19 20 0 14 15.5 19.5T211 702q130 9 149-2 18-10 23.5-40t-5.5-57q-8-19-53-77-44-59-44-61 0-4 23-9 70-16 101-67.5T433 244q-1-38-4-50t-17-40q-32-65-92-97.5T198 38z"/><glyph glyph-name="four" unicode="4" horiz-adv-x="422" d="M242 37q-8 5-9.5 30.5T233 176q3 103 1 142l-3 31-55-1q-39 0-78-3-22-4-30 0-14 8 6 66 30 80 35 232 4 73 7 80 10 18 33-3 12-9 15-37 2-40-6-128.5T140 433q-6-22 1-26.5t47-3.5l42 2-2 27q-2 37 6 52.5t25 10.5 22-57q4-36 7-39 7-4 54-2 52 0 59-8 8-9 1-19-12-19-21.5-22.5T335 344h-44v-62q0-79-3.5-155.5T280 45q-4-6-18-9t-20 1z"/><glyph glyph-name="five" unicode="5" horiz-adv-x="439" d="M196 34q-33 0-45 4-46 14-74 62.5T71 176q16 20 35-22 21-46 60-60t88 7q50 22 74.5 86t12 129-58.5 89q-22 11-59 12.5t-72-8.5q-14-3-19.5 7t-4.5 40q6 206 17 224 7 10 29 13t106 5q71 2 86.5 1t23.5-7q11-8 8-21-4-15-22-19.5t-88-6.5q-87-3-92-8-4-4-6.5-55.5t.5-77.5l3-25h27q92 0 137.5-57.5T397 255q-2-48-11-78-21-66-73-105T196 34z"/><glyph glyph-name="six" unicode="6" horiz-adv-x="418" d="M171 37q-38 14-61 42-48 59-48 149 0 71 24.5 143.5T169 541q76 128 125 153 21 11 29-4 5-10-.5-21.5T290 624q-42-52-81-118t-55-111l-6-18 19 4q26 6 60 5t51-9q53-24 79.5-79.5t17-118T322 73q-28-28-71-38.5T171 37zm77 55q15 5 35.5 22.5T311 148q23 48 6.5 103.5T258 329q-17 9-45 7.5T163 324q-27-13-33-23-9-11-14.5-42t-2.5-56q7-64 44.5-94.5T248 92z"/><glyph glyph-name="seven" unicode="7" horiz-adv-x="413" d="M74 43q-10 5-7 22t23 64l61 161q68 187 115 270 38 68 38 84 0 6-102 6-84-1-111 3t-29 18q-2 13 12 16 19 5 139 7 108 2 133.5-.5T372 677q0-16-70-162-86-178-147-362-33-96-42-103-25-16-39-7z"/><glyph glyph-name="eight" unicode="8" horiz-adv-x="426" d="M172 47q-20 5-46 20.5T89 95q-22 27-26 96-6 100 61 172l27 29-13 13q-32 31-44 89t4 107q19 64 74.5 93t108.5 3q64-33 85-129 19-94-42-154l-19-19 31-32q30-31 40.5-59t7.5-68q-4-58-34-110.5T280 56q-16-7-52.5-10.5T172 47zm68 384q27 1 45 15 27 22 37 57.5t-1 69.5q-7 20-28.5 45.5T253 652q-41 20-73.5-7.5T144 562q-3-36 1.5-55.5T164 468q18-23 34-31t42-6zm19-330q30 15 49.5 51t20.5 77q1 61-32 97-18 21-31.5 28.5T230 364q-15 2-21.5.5T189 354q-39-30-61-76-10-21-10-58 0-65 33-101 44-50 108-18z"/><glyph glyph-name="nine" unicode="9" horiz-adv-x="409" d="M279 47q-8 6-10 20.5t-4 81.5q-3 156-3 164v70l-23-11q-21-10-52.5-13t-54.5 3q-21 6-39.5 24.5T68 427q-7 23-6 66.5t8 70.5q24 90 89 129t129-7q10-9 22-4 11 4 23-2 8-4 10-10t1-31q0-35-11-88-7-37-9-78t-3-194q-1-219-8-231-13-19-34-1zm-74 360q36 10 57.5 55.5T284 575q0 39-9 57-15 29-49 35t-57-17q-26-26-44.5-79.5T110 477q11-93 95-70z"/><glyph glyph-name="colon" unicode=":" horiz-adv-x="132" d="M54 297q-17 2-21 20 0 15 17 36 7 9 18.5 10.5T88 356q20-26 6-50-9-11-40-9zm0-239q-17 2-21 20 0 15 17 36 7 9 18.5 10.5T88 117q20-26 6-50-9-11-40-9z"/><glyph glyph-name="semicolon" unicode=";" horiz-adv-x="140" d="M62 297q-17 2-21 20 0 15 17 36 7 9 18.5 10.5T96 356q20-26 6-50-9-11-40-9zM43-32q-9-6-9 10-1 11 15 120 8 58 8 90 0 13 13 17t22-3q25-27 7-117.5T43-32z"/><glyph glyph-name="less" unicode="&lt;" horiz-adv-x="357" d="M272 143q-14 2-46 30-61 53-125 125-30 37-37 62-6 11 7 26 57 72 105 112l49 43q8 8 23 10 17-4 21-11 13-14 0-27-8-10-25.5-24.5T219 467q-57-56-91-103-7-10-3-14 4-8 10.5-16.5t15.5-18 13-14.5q12-13 111-109 18-20 17-31-5-21-20-18z"/><glyph glyph-name="equal" unicode="=" horiz-adv-x="434" d="M58 346q-23 3-25 19 0 7 6.5 16.5T57 394q5 1 41.5 2.5T202 400t120 4q79 4 79-9-1-17-9-26.5T375 356t-25-5q-24-3-149-5.5T58 346zm0-124q-23 3-25 19 0 7 6.5 16.5T57 270q5 1 41.5 2.5T202 276t120 4q79 4 79-9-1-17-9-26.5T375 232t-25-5q-24-3-149-5.5T58 222z"/><glyph glyph-name="greater" unicode="&gt;" horiz-adv-x="353" d="M102 143q-15-3-20 18-1 12 18 31 86 84 110 109 3 4 10 11.5l11.5 12L241 336l8 14q3 3-2 14-29 41-91 103-7 8-25 22t-26 24q-5 5-5 13.5t5 13.5q4 6 21 11 16-2 23-10l50-43q44-39 105-112 12-14 7-26-8-26-38-62-64-72-125-125-30-27-46-30z"/><glyph glyph-name="question" unicode="?" horiz-adv-x="360" d="M45 663q30 41 78 59 27 10 47 10 26 0 59-13t57.5-37.5T320 631q6-18 7-56.5t-4-56.5q-19-72-96-103l-18-7-12.5-8.5L189 384q-7-137-16-147-5-6-15-8.5t-15 1.5q-16 12-11 154 2 50 61 66 77 21 83 128 2 22-9 44-21 41-48 54-15 6-41 6t-40.5-6-30.5-25q-24-34-53-43-22-7-21 17 1 14 12 38zm77-569q10 28 44 30h2q12 1 19.5-8.5T193 95q-4-28-16-38-18-8-32 1l-6 6-7 7-5.5 6.5L122 86v8z"/><glyph glyph-name="at" unicode="@" horiz-adv-x="613" d="M331 592q58 2 102-19 74-34 115-102 31-48 23-106-3-41-28-76.5T481 234q-54-26-82-16-7 2-22 9.5t-27 11-24 1.5q-37-11-61-9-26 1-47.5 15.5T191 285q-7 36 6.5 72.5T239 417q1 1 8.5 7.5t10 8.5 9.5 6.5 11 6.5 10 4 12 2q38 3 76-37 24-31 27-37 5-18-4-63-5-32 2-40 18-13 41.5-10t39.5 19q36 36 34 102 3 46-32 88-40 51-114 68-40 7-74-2-67-19-118-75-48-56-54.5-134T153 190q21-47 87-77 61-25 99-26 61-4 124 35 6 3 23.5 17.5T516 157q8 2 15-2t6-13q-1-15-11.5-29T500 94q-52-34-91-46-37-14-108-12-50 9-117 41-82 41-112 143-12 34-10 82-3 51 18 104 23 64 84 114 86 73 167 72zm-16-188q-5 0-13-2-46-16-59-74-6-13 0-26.5t19-19.5q14-9 33-7.5t29 14.5q21 36 21 75 2 14-7 26.5T315 404z"/><glyph glyph-name="A" unicode="A" horiz-adv-x="469" d="M408 45q-13 9-33 83-50 187-53 190-2 2-62 9-48 6-68 10-11 2-17-7t-18-43q-25-68-42-109-9-21-21.5-54.5T78 84Q51 28 38 44l-2 2q-5 5-4 32 0 28 9 58.5T80 238q22 52 55 146l53 152 39 117q11 37 13 41 4 9 19 9 1 0 3-.5t3-.5q14-6 19-43t25-99q22-71 33-113 15-60 30-68 14-10 10-31-5-24 23-122 40-142 30-164-5-11-13-17-6-5-14 0zM275 381q34 1 34 4-5 13-26.5 90T261 555q0 4-4 10-1 2-3 2t-14-26q-12-27-27.5-76.5T197 404q0-13 16-18t62-5z"/><glyph glyph-name="B" unicode="B" horiz-adv-x="438" d="M158 61q-39 8-56 27-14 15-18 29.5t0 43.5q4 34 4 286 0 255 3 263 4 10 14.5 13t43.5 3q107 0 149-35 49-38 39-121-3-25-10-51-11-40-40-67l-9-8 16-12q76-57 99-146 5-21 4-55-3-80-52-122-33-29-82-41-24-6-57-8t-48 1zm33 401q67 19 86 67 7 17 7 44 0 68-40 91-14 8-53 9-7 1-18 1-20 0-25-5-4-2-5-16t-1-85q0-95 6-106t33-3q1 0 10 3zm14-355q18 0 36 3 56 14 86 61 21 34 16 84-4 31-13.5 50T296 349q-28 29-44 40.5T217 403q-6 1-20 1-45 0-51-8-4-5-5-117-1-148 6-158 3-5 22-9.5t36-4.5z"/><glyph glyph-name="C" unicode="C" horiz-adv-x="466" d="M212 55q-28 7-63 49-34 41-48.5 92T82 337q-3 77 17 161 15 65 38.5 106t64.5 75q42 34 75 41 13 3 25 3 66 0 95-65 24-57-8-57-9 0-36 31-29 33-45 38.5t-44-9.5q-77-43-104-142-12-45-18.5-112T139 302q7-71 26-115 13-29 40-51.5t53-26.5q23-6 66 14 9 3 51 29 36 22 43 20 8-4 7.5-13.5t-11-24.5-27.5-30q-39-34-74-44-16-4-52-6t-49 1z"/><glyph glyph-name="D" unicode="D" horiz-adv-x="467" d="M182 48q-46-1-62 3-21 6-28 16t-8 37q-1 42-2 307t0 273q6 16 25 18h1q15-2 26-8 24-13 89.5-79T321 507q41-54 70-122.5T425 268q7-67-41-126T255 58q-29-9-73-10zm-30 42q43 9 51 10 91 15 133 66 29 35 31 84 3 24-1 44-10 50-51 115-40 63-93 128.5T141 619l-9 5V520q0-10 4-186 3-132 3-159 0-80 3-82 2-5 10-3z"/><glyph glyph-name="E" unicode="E" horiz-adv-x="402" d="M101 48q-1 0-2 1-3 0-4 1-16 7-12 49 3 27 1 269-1 129-1 267 0 36 5.5 48t24.5 16q51 11 167 11 70 0 78-12 4-6 2.5-14.5T352 671q-7-1-83-5-107-4-132-13-8-2-7-15 4-173 5-189l2-30 86-1q84-2 91-6 11-6 6-23-5-12-18.5-14.5T223 371l-81-1-1-20q-10-207-4-240l3-9h96q76 0 95.5-2.5T353 86q2-19-14-28-11-5-105-6-105-2-115-3-6-1-18-1z"/><glyph glyph-name="F" unicode="F" horiz-adv-x="393" d="M90 51q-5 5-7 24-3 18-1 197t6 238q3 35 6 121 0 40 3.5 51t18.5 20q18 9 38.5 11.5T243 716h48q105 0 108-12 4-12-8-24-10-10-119-16-122-7-123-8-1-2-3-26-7-102-7-198v-21l102 1q98 2 109-1 16-4 1-24-8-10-20-16-9-4-94-8-86-4-93-8-6-3-7.5-31t-.5-121q2-99 0-117.5T120 54q-6-9-14.5-10T91 51h-1z"/><glyph glyph-name="G" unicode="G" horiz-adv-x="470" d="M235 53q-70 13-110 60-48 57-59 132-6 39-3.5 137.5T75 529q2 10 23 62 16 38 38 63 35 40 79.5 62.5T303 739q7 0 11-1 44-3 80-39 26-26 21-41-13-34-60 9-21 19-30 22-26 9-71.5-12.5T179 619q-30-37-44-81.5T117 414q-5-86 8.5-159.5T165 154q30-32 75.5-45t74.5 2q20 11 29.5 31t20.5 67q8 36 8 82 0 53-3 63l-2 15-58 2q-113 4-121 23-6 16 4 26 4 4 14.5 5t55.5-1q67-2 87 1 32 4 49-7.5t25-42.5q9-35-2-122-11-85-25-118-12-27-33-49t-42-29q-40-13-87-4z"/><glyph glyph-name="H" unicode="H" horiz-adv-x="499" d="M402 56q-12-2-19 4-10 7-13 37.5T367 242q0 154-4 156-2 2-109 2.5T144 399q-2-1 4-252 2-66 0-72-6-11-16-14-1-1-2-1-17-5-27 4-6 9-12 200-1 32-4 100.5T84 453q-6 228 9 261 8 17 27 10 16-6 18-81 2-66 2-108 0-45 2-69l1-19h76q71 0 107 2l33 2-1 128q-1 110 .5 125.5T373 726l8 2q13 0 19-22 2-7 11-193l3-60 8-7q11-10 11.5-22T423 406l-9-5 1-62q1-19 4-66.5t4-57.5q7-121-1-142-6-13-19-16 0-1-1-1z"/><glyph glyph-name="I" unicode="I" horiz-adv-x="245" d="M132 720q8 2 11-5 5-6 7-40.5t6-181.5q2-52 2-155.5t1-127.5q2-67-1-119-1-29-9-37-14-16-26-5-10 10-19 79-5 43-1 524v28.5l1 13 3.5 13 6.5 7.5q11 6 18 6z"/><glyph glyph-name="J" unicode="J" horiz-adv-x="397" d="M126-64q-27 7-50 24.5T45.5-5 49 23Q63 34 95 7q9-9 30-18 23-7 58 1.5T238 16q25 22 33.5 62t8.5 140q0 178-19 318l-11 80-5 46-67 1q-68 2-75 8-14 11-14 24t14 19q12 7 100 5 63 0 68-4 12-6 17.5-28T303 585l16-117q11-95 12-203 3-120-8.5-178.5T278-12q-28-35-69-49t-83-3z"/><glyph glyph-name="K" unicode="K" horiz-adv-x="464" d="M98 53q-11 5-14 21.5T82 141q4 503 9 537 5 40 24 41 21 3 27-17 5-10 0-33-4-26-4-59 0-128 6-137 5-4 49 48t96 123q36 49 51 66t25 16q4 0 10-3 11-7 11-21 0-8-11-26t-21-28q-6-6-41-52l-72-89q-71-88-71-92t65-86q50-66 88-110 68-79 89-114 10-17 10.5-24.5T416 62q-5-7-16-7t-19 6q-11 8-34 35.5T311 145q-20 28-71.5 93.5T173 320q-18 17-23 19-9 3-11-10-3-17-2-116 1-89-1-118.5T126 57q-4-4-13.5-5.5T98 53z"/><glyph glyph-name="L" unicode="L" horiz-adv-x="369" d="M117 60q-2 1-5.5 2t-5.5 2h-1q-5 6-10 325-3 282-12 315-4 25 16 35 2 1 9 5 2 0 8-2 14-9 20-79.5T146 352q4-186 5-192l2-40 78-1q81-1 92-7 14-8 14.5-22.5T324 67q-12-5-99.5-8T117 60z"/><glyph glyph-name="M" unicode="M" horiz-adv-x="514" d="M88 55q-5 4-6 39t0 207q5 398 18 421 6 14 22 14 10 0 17-6 8-11 28-54 90-194 98-194 9 0 97 191 25 52 30 57 10 10 24.5 4t18.5-22q5-29 9-157 3-84 4.5-286T448 65q-4-11-14-12t-17 10q-11 13-13 47.5T401 301q-3 282-8 306-2 7-6 1-2-3-8-15-9-17-25-51-16-36-40.5-82T282 406q-8-10-19-10-8 0-17 10-22 30-69 136l-13 26.5-12 24.5q-10 19-12 19-1 0-2-5-5-26-8-305-2-163-4-195t-12-44q-14-16-26-8z"/><glyph glyph-name="N" unicode="N" horiz-adv-x="514" d="M107 54q-10 11-14 54.5T86 278q-8 346-1 399 7 43 23 49 0 1 4 1 14 0 44-66 32-61 50-102 15-25 75-150 69-144 106-209l12-19v67q0 78-5 190-4 134-4 198t2.5 76.5T409 725q20 0 24-17 3-10 7-116 1-27 2.5-98.5T445 396q10-307 0-328-5-16-17-19t-22 8q-24 29-120 226-43 90-64 127l-54 106q-9 18-14 27l-8.5 15.5-5 8-2.5-.5q-2-3-1-155t5-231q5-114-9-126-15-13-26 0z"/><glyph glyph-name="O" unicode="O" horiz-adv-x="436" d="M276 46q-10-3-36-2.5T201 47q-34 8-67 38.5T89 152q-27 78-27 215 0 178 57 286 10 18 35 45.5t36 32.5q13 5 33 5 31 0 51-9 85-32 109-159 11-56 12.5-177T387 224q-14-71-44-119t-67-59zm-12 63q43 17 61 83 16 57 18.5 176.5T332 560q-7 38-26.5 71.5T263 676q-10 5-23 5-46 0-78-72-22-46-31-95t-12-138q-3-137 20-202 4-15 19.5-35.5T185 112q31-19 79-3z"/><glyph glyph-name="P" unicode="P" horiz-adv-x="379" d="M87 62q-4 2-5 7t0 30q5 101 0 417 0 124 5 149 8 52 27 61 13 6 52 4 46 0 67-5 64-13 104.5-61T378 554q0-65-45-114-48-54-129-55-36 0-46 3l-16 3-2-19q-1-11-1-111 2-106-1-147t-16-48q-17-9-35-4zm110 367q9 0 29 4 29 7 53.5 26.5T317 504q6 18 6 47 0 32-9 51-17 37-54 58-41 21-94 23h-12q-15 0-17-7-4-9-3-117V450l8-6q5-5 24-10t31-5z"/><glyph glyph-name="Q" unicode="Q" horiz-adv-x="488" d="M246 47q-35 0-44 3-25 5-52.5 26T105 123q-23 37-34.5 121T64 417q10 202 95 290 19 19 30 25t31 7q1 0 4.5.5t5.5.5q38-1 73.5-24t54.5-60q22-45 31-113 4-25 6-142 2-85-.5-123T383 203l-6-21 41-37q42-37 55.5-52.5T487 67t-5.5-16-14.5-3q-18 4-64 45l-32 25-15 12-7-12q-21-41-52-59-12-8-19.5-9.5T246 47zm19 65q28 11 43 37l7 14q0 2-25 20-58 44-71 68-18 27 3 38 12 6 21.5 1.5T287 258q43-35 44-34 7 5 13 118 3 59-1 132.5T330 580q-11 44-37 74.5T241 685q-37 0-68.5-52.5T129 501q-12-89-9-181.5T140 178q4-14 20-35.5t26-27.5q31-19 79-3z"/><glyph glyph-name="R" unicode="R" horiz-adv-x="456" d="M118 57q-13 0-16 7-9 17-14 233-1 21-3 113-4 185-2 234t16 57q4 4 55.5 15t61.5 11q23 0 63.5-16t62.5-34q47-34 53-90 6-54-68-134-23-26-26.5-32t-3.5-18q0-20 28-86t67-137q28-53 33-68 11-23 11-33.5T425 59q-14-13-32 6-25 28-66.5 110.5T256 337q-14 42-20 49l-5 7-44-10-45-9 1-16q3-17 2-143t-3-137q-4-21-24-21zm24 381q11-6 50 2 66 15 105 52.5t43 89.5q1 24-6 37-13 24-45.5 40T219 676q-3 0-8.5-.5t-7.5-.5q-15-1-42-7.5t-30-8.5v-5q0-5-.5-14t-.5-20.5V563q0-76 2-98t10-27z"/><glyph glyph-name="S" unicode="S" horiz-adv-x="462" d="M198 57q-64 16-100 61T62 228q0 28 5.5 41T83 280q16-5 20-45 10-54 40-86 34-37 81-46t91 15q75 39 42 116-24 57-122 141-73 63-95.5 105T123 588q4 53 38 91 29 32 67 39 7 1 19 1 58 0 101-39 22-22 27-53.5T362 592q-7-1-14.5 6.5T338 617q-2 10-15.5 23.5T293 661q-32 19-63 3-13-5-26.5-21T183 610q-21-51 1.5-97T283 404q40-32 73-68.5t45-59.5q28-58 16-107-21-84-114-110-54-15-105-2z"/><glyph glyph-name="T" unicode="T" horiz-adv-x="445" d="M224 62q-7 4-7 9v124q0 112-2 178-4 73-6 175l-3 115-72 3q-58 2-76 7.5T42 695q1 16 46 20t204 4h62q80 0 87-7 3-3 3-18 0-19-16-23.5t-84-7.5q-81-2-83-4-4 0-1-168 2-92 2-293 0-126-5-133-11-13-33-3z"/><glyph glyph-name="U" unicode="U" horiz-adv-x="468" d="M208 62q-62 15-92 56-16 21-22.5 64T83 323q-1 67-1 222t1 172q1 6 1.5 8t1.5 4 3 2.5 6 .5q22 2 26-18 1-8 3-110 7-359 26-426 15-40 45-55 14-5 49-5t49 7q32 19 42 59 8 33 16.5 176t8.5 260q0 97 11 106 5 6 16 6 11 2 13-5t3-115.5-1-200.5q-3-161-11-219t-30-85q-28-29-63-41-41-12-90-4z"/><glyph glyph-name="V" unicode="V" horiz-adv-x="386" d="M190 36q-9 12-27 73T91 383L36 599q-12 42-14 67-1 21 7 30 13 13 24 5.5T70 668l45-187q17-72 34-126 1-4 32-113 20-73 20-75l1 3q2 3 4.5 10t5 16l6 21 6.5 24q29 102 33 113 31 105 66 263 11 44 13 54 7 31 25 33 8 0 17-9 7-12 7-20 0-23-26-120-6-20-44-170-56-220-73-276.5T211 37q-12-11-21-1z"/><glyph glyph-name="W" unicode="W" horiz-adv-x="536" d="M163 57q-9 0-13 4-4 5-20 148-9 80-40 288-23 153-26.5 191t3.5 42q4 4 12 4t13-3q7-5 14.5-43.5T134 511q3-16 6-37t5.5-35 3.5-19q0-4 3-21.5t7-44.5 7-51q15-99 16-100 1-2 7 6 2 3 3 6 9 17 29.5 63.5T250 349q16 46 26.5 45.5T305 345q41-101 58-131 8-13 10-13l1 3q6 28 16 111 4 23 8 50.5l6 40.5 2 13q0 1 3 11 41 281 47 290 10 15 21 15 5 0 9-3 9-9 9-24 0-20-31-211-37-260-42-311-10-97-14-113-2-10-5-13t-11-3q-11 0-22 18.5T334 157q-53 127-56 127-6 0-60-136-25-58-34.5-74.5T163 57z"/><glyph glyph-name="X" unicode="X" horiz-adv-x="441" d="M93 68q-12-12-26 0-9 11 1 39.5T143 284q56 123 56 127 0 7-84 180-52 108-52 126 0 9 5.5 16t12.5 7q12 0 45.5-55.5T203 539l27-61 13 30q25 58 63 127.5t57 91.5 33 2q6-10-5.5-38T302 499l-42-88 47-105q91-204 92-219 2-7-6-17-16-19-33 12-25 38-97 195v1l-1 1v1l-1 1-1 1-31 62-37-79Q107 84 93 68z"/><glyph glyph-name="Y" unicode="Y" horiz-adv-x="490" d="M233 62q-9 10-9 194 0 118-2 142-4 22-16 44-19 40-60 104t-70 99q-27 34-32.5 49.5T50 722q10 7 13 7 7-2 16-7 7-4 26.5-27.5T140 649q89-136 92-142l15-21q7-5 13 1 11 13 87 128 53 78 80 103 21 18 34 4 11-14 5.5-30T433 642q-31-38-73-102t-61-102q-11-21-14-59.5T281 219q-2-121-5-137-5-13-21.5-21T233 62z"/><glyph glyph-name="Z" unicode="Z" horiz-adv-x="472" d="M115 61q-39-2-45 1-13 12-4.5 45.5T112 222q71 152 147 280 88 147 86 162-3 15-101 17-72 2-85 5-12 5-8 23 2 12 20 15.5t96 5.5q72 2 78 2 43 0 55-13 5-8 4-23-6-64-131-276-58-104-125-236l-34-70 32-1q52 0 145 3 114 4 125-1 21-12 12-33-6-13-16-15-12-4-134-4-27 0-65.5-.5t-63.5-1-34-.5z"/><glyph glyph-name="bracketleft" unicode="[" horiz-adv-x="340" d="M97-23q-6 3-9 6-5 5-5 10-2 7 5 43 8 48 7 223-2 200-2 350 0 6-1.5 43t-.5 59q0 27 5 49 1 9 6 17 4 5 11 7 31 3 60.5 5t53.5 4h4q27 0 41-18 3-5 3-9 2-5-3-8-7-9-27-10h-1q-44 1-96-1v-53q0-40 1-68 0-127 1-202 0-305-2-350-1-31 0-38l2-3h6q7 1 68 3 9 0 36-3 6-1 10-4 1-1 3-7 0-7-2-11-4-8-7-11-6-6-21-9-21-4-50-5l-46-3-16-3-9-2q-14-6-25-1z"/><glyph glyph-name="backslash" unicode="\" horiz-adv-x="449" d="M444-106q-5-6-24.5-2.5T395-97q-1 2-7.5 16L377-58q-5 12-18 35t-18 34Q189 384 64 629-9 773 2 789q5 6 18 6 11 0 18.5-9.5T61 745q18-38 56-109 69-139 169.5-367.5L418-27q13-28 22-37 6-7 7.5-22t-3.5-20z"/><glyph glyph-name="bracketright" unicode="]" horiz-adv-x="332" d="M130-18q-28-2-44 20-4 4-4 8t3 9q5 6 28 8 51-1 97-1l1 19q0 14-1 31v68q0 25-.5 94t-.5 108q0 328 1 350 1 32 0 38 0 3-2 3-2 1-6 0-3 0-10.5 1t-21 2-26.5 1q-31 0-47 2-7 2-9 4-2 3-4 7 0 3 2 11 3 6 8 11 7 7 21 8 6 1 50 3h71q2 0 5 1 4 0 5 1h1q10-3 14-13t3-37q-2-153-1-230 0-49 .5-176t1.5-174q0-6 1.5-43t.5-59q-2-35-5-49-4-12-7-16-4-6-11-7-33-2-63-2t-51-1z"/><glyph glyph-name="asciicircum" unicode="^" horiz-adv-x="333" d="M52 498q-4-2-12 1-7 7-7 11 1 4 9 15 12 16 61 65 44 44 56 55l9 7 6 5q9 11 17-1l5-5 9.5-12 7.5-9q15-21 52-62 23-25 24-27 6-8 7-10t3-4q0-1 1-3 0-8-10-16-10-7-21-7-6 0-14 5-3 2-8.5 7t-8.5 8q-23 23-50 58l-18 23-23-25q-42-45-71-66-15-10-24-13z"/><glyph glyph-name="underscore" unicode="_" horiz-adv-x="434" d="M58 56q-23 3-25 19 0 7 6.5 16.5T57 104q5 1 41.5 2.5T202 110t120 4q79 4 79-9-1-17-9-26.5T375 66t-25-5q-24-3-149-5.5T58 56z"/><glyph glyph-name="a" unicode="a" horiz-adv-x="340" d="M148 61q-30-2-47 2-45 8-62 44-13 27 8 52 12 13 51.5 42t74.5 50q33 19 37 26t-8 32q-9 22-22 33-10 8-14 9.5t-17 .5q-18-1-44-17-38-24-50-16-5 3-9 16t-2 19q2 7 33.5 23.5T130 400q20 6 35 6 35 0 57-25 17-19 34.5-68t24.5-96q24-159-16-153-9 1-20 11l-13 12-27-13q-26-12-57-13zm-30 51q24-11 68 1 33 9 43 28 6 12 5 44 0 32-4 36-2 2-4 2-9 0-61-33-50-32-55-36-22-14-20-22.5t28-19.5z"/><glyph glyph-name="b" unicode="b" horiz-adv-x="347" d="M196 73q-22-13-63-12.5T64 75l-9 6-2 59q-2 94-3 310.5T51 677q4 9 18 11 4 1 10 1 7 0 9-3 4-6 7-128 4-156 14-160 5-2 21 10 64 46 144-28 35-34 38-64 7-50-8-107-11-36-21.5-54T245 112q-35-31-49-39zm-56 24q23 3 38 13 38 25 62 69.5t24 88.5q-1 37-36 72t-74 20q-26-9-35-19.5T107 309t-3-80q0-106 11-124 3-7 6.5-8t18.5 0z"/><glyph glyph-name="c" unicode="c" horiz-adv-x="339" d="M118 64Q51 84 35 170q-4 22-2 57t8 51q26 75 96 115 26 16 56 16 10 0 24-4 23-7 45.5-30t22.5-39q0-10-10-20-8-9-13-8.5T249 319q-25 30-61 33-24 1-38-6-12-7-28-27t-25-39q-8-21-8-55 0-54 19-85 18-28 61-28 45 0 84 32 40 32 51 13 2-4 2-10 0-13-31.5-42.5T220 68q-15-5-51-6.5T118 64z"/><glyph glyph-name="d" unicode="d" horiz-adv-x="372" d="M131 54q-19 8-43 35t-37 53q-18 41-18 80 0 43 20 87 8 18 28 40.5t37 32.5q19 12 52.5 13t58.5-9q14-7 25-7 8 0 10 2t6 15q5 18 8 75 0 15 2 59t3 62q4 63 6 70 5 9 16 9 7 0 11-4 5-7 6-300 0-297-2-301-2-7-16-7-13 0-19 5.5T275 85l-4 14-23-17q-28-22-61-30t-56 2zm108 66l33 17-2 33q-6 113-10 123-13 26-39 46-18 14-31 14-42 0-80-62-8-24-13-44-16-73 26-114 31-30 52.5-32.5T239 120z"/><glyph glyph-name="e" unicode="e" horiz-adv-x="369" d="M150 59q-47 15-70.5 44T51 182q-6 68 20.5 127t76.5 88q55 31 101 8 23-12 36-33.5t9-39.5q-6-29-45-64t-93-60q-32-15-41-23t-7-19q4-20 16.5-37.5T150 107q28-10 74.5 2t72.5 35q10 10 22 9 17-3 17-14 0-6-19.5-24.5T279 86q-72-44-129-27zm-26 177q20 8 52 30.5t50 42.5q14 15 14 30 0 14-7 19-5 4-15 4-22 0-41-12-27-15-51.5-54.5T107 237q2-6 6-5 1 0 11 4z"/><glyph glyph-name="f" unicode="f" horiz-adv-x="308" d="M117-207q-13 11-15 52.5T100 100v253H73q-22 0-41.5 4.5T9 367q-2 4 2 13t9 11q27 7 56 13l24 3q1 29 3 64 3 67 8 89 12 55 36.5 85t54.5 29q16 0 36-11 60-34 60-132 0-18-4-22.5t-18-2.5q-13 2-17.5 10t-4.5 31q0 45-24 73-14 16-25 16-31 0-47-81-12-60-12-129v-19q9 0 27 1t29 1 28.5-3 34.5-9q9-4 8.5-15.5T262 365q-19-8-60.5-9.5T146 352l1-85q2-113 4-270 2-184-4-197-4-11-13-13t-17 6z"/><glyph glyph-name="g" unicode="g" horiz-adv-x="330" d="M156-206q-32 0-51 6-67 18-103 62-14 17-20 37.5T-21-66t15 14q18 0 40-45 13-26 41.5-42.5T138-157q36 0 57 21 38 39 28 133-2 19-5 52-1 13-2.5 16.5t-5.5 3-14-5.5q-52-26-100 0-33 19-51.5 71.5T34 242q13 104 96 154 21 13 46 14h11q14 0 34-11 20-12 38-33 26-32 19-65-12-65-6-196 8-153 2-185-16-84-72-114-17-11-46-12zm20 309q13 5 29 19l15 13-1 93q1 75-2 92.5T198 348q-10 7-18 7-5 0-8-1-14-2-27-9-11-6-30-29.5T89 277q-15-35-9-83.5t29-74.5q29-33 67-16z"/><glyph glyph-name="h" unicode="h" horiz-adv-x="359" d="M67 53q-11 0-13 4-7 9-1 318 4 274 12 293 7 15 17 13h2q6-3 9-13 5-9 6-156l1-146h8q8 0 23 11 10 8 33 21 18 10 43 10 26 0 42-9 18-11 34.5-29.5T307 333q12-29 15-51.5t4-80.5q3-120-18-139-17-17-27 5-5 10-7 97-2 88-5 104-4 19-14 43t-17 32q-8 8-31 8-21 0-31.5-5T151 324q-37-41-50-165-7-73-17-92-8-14-17-14z"/><glyph glyph-name="i" unicode="i" horiz-adv-x="176" d="M89 579q-10-1-13.5 1T63 593q-13 14-13 27 0 9 2 12t14 10q18 9 30 9 23 0 20-35-2-19-8-27.5T89 579zm14-520q-13 1-20.5 9.5t-9.5 17-5 24.5q-3 25-5.5 140.5T63 385q3 23 19 25 14 0 20-24 5-19 10-248 4-79-9-79z"/><glyph glyph-name="j" unicode="j" horiz-adv-x="205" d="M121 579q-13 0-24 12-21 23-8 41 16 19 38 19 4 0 10-2 18-11 11-40-4-18-9.5-24t-17.5-6zM30-192q-28 9-47.5 26.5T-37-131q0 31 64 7 65-27 84 9 6 12 6 82 0 101-9 331-3 88 2 100t14 12q14 0 19-9.5t8-43.5 7-124q1-33 9-182 12-161-1-193-12-26-46-44-16-8-44-10t-46 4z"/><glyph glyph-name="k" unicode="k" horiz-adv-x="308" d="M62 65q-8 9-11 18-2 9 0 86 3 108 4 244 3 217 11 251 4 15 8 15h4q17-2 22.5-39.5T109 462q4-135 5-149l1-22 12 2q11 2 36 21.5t50 31.5 43 1q17-11-1-32-16-16-44.5-36.5T164 241q-4-3 3-10 13-12 23-23t31-36.5 50-56.5q23-26 9-46-12-18-33-4-5 3-10 9-95 110-123 118-5 1-5-2 0-46-9-100-4-25-15.5-32T62 65z"/><glyph glyph-name="l" unicode="l" horiz-adv-x="161" d="M64 60q-6 12-12 123-4 79-1 268 2 180 4 202 5 40 20 40 9 0 16-15 4-7 5.5-34.5T100 475q4-217 6-244 6-111 5-136T97 60q-8-7-18.5-7T64 60z"/><glyph glyph-name="m" unicode="m" horiz-adv-x="590" d="M283 56q-5 0-7.5 5t-4 19.5-.5 38 3 64.5q6 94-7 133-17 47-59 46-92-3-106-182-5-69-10-90T74 60q-14-11-21-3-3 5-3 124 0 174 12 206 5 13 15 13 21 0 25-26 4-15 6-15l16 14q40 39 84.5 39t84.5-43l15-17 18 17q52 45 108 40 40-2 68.5-33.5T538 295q4-20 1-114-3-106-12-116-6-5-21 3-10 5-12 10-2 6-2 96 0 85-5 118.5T468 345q-14 18-42 18-43 0-89-59l-10-14-2-52q-6-140-14-159-3-8-12-15.5T283 56z"/><glyph glyph-name="n" unicode="n" horiz-adv-x="366" d="M292 53q-8-4-11-2t-8 13q-5 10-7 108-3 100-7 117-10 35-27 47-17 13-46 2t-54-40q-20-23-25-44.5t-7-91.5q-1-59-4-77T85 57q-6-8-10-7T61 61q-7 13-9 35t-1.5 66.5.5 56.5q-1 138 7 159 8 14 13 18 6 5 15-5 8-12 10-24 2-14 4-14 6 5 13 12 23 22 56 30 22 5 35 5 12 0 34-5 36-8 52-35 27-50 26-180 0-69-5-94.5T292 53z"/><glyph glyph-name="o" unicode="o" horiz-adv-x="343" d="M137 61q-35 10-60.5 36T40 161q-7 21-7 69 0 70 21 105 9 16 29.5 35t40.5 29q45 22 97-3 31-15 53-41t29-54q6-19 7-61.5t-3-61.5q-11-46-38.5-76.5T200 61q-34-9-63 0zm63 46q27 7 45.5 46.5T264 244q0 28-9 47-18 44-44 59-10 6-36 6-24 0-37-6.5T110 323q-40-53-28-117 10-50 29-76 16-21 36.5-26t52.5 3z"/><glyph glyph-name="p" unicode="p" horiz-adv-x="312" d="M54-187q-4 5-4 27T51-1q3 238 0 319-2 61 .5 74.5T71 416q15 9 38 9 31 0 62-13.5t51-34.5q35-39 49-86 9-32 8-75.5T267 149q-14-32-47.5-58T151 56q-19-4-34-9l-15-5-1-105q-1-90-6-105-6-16-19.5-22.5T54-187zm46 273q15 5 33 10 29 9 42 16.5t25 21.5q15 17 20 36t5 56-5 51.5-25 38.5q-39 44-75 49-3 1-7 1-10-1-12-24.5T99 215q0-129 1-129z"/><glyph glyph-name="q" unicode="q" horiz-adv-x="342" d="M248-196q-5 0-8 6-2 2-3 4.5t-2 5.5-1.5 8.5-.5 12v45l-.5 36L231-32q-2 84-8 91-4 5-25 0-26-7-56-.5T91 82q-58 46-58 137 0 75 46 141 30 44 51 56.5t62 12.5q56-1 77-26 20-23 22.5-52T285 227l-8-78 5-176q1-42 1.5-71.5t0-44.5-2-23.5-2-9.5-2.5-2-3-2q-14-16-26-16zm-52 308q13 6 20 22t15 57q14 70 14 136 1 29-11.5 40T189 378q-23 0-37-9-32-24-52.5-80T89 185q7-39 36-60.5t71-12.5z"/><glyph glyph-name="r" unicode="r" horiz-adv-x="252" d="M51 61q-1 2-1 166 2 164 7 178 4 8 18 8 16 0 21.5-8t5.5-30 3-22q4 0 12 8 3 2 28 22 25 18 36 22 19 9 34 8 24 0 24-17 0-8-8-16t-19-12q-30-10-72-59-26-30-28-42-10-37-10-110 0-80-19-94-7-6-19-6.5T51 61z"/><glyph glyph-name="s" unicode="s" horiz-adv-x="322" d="M149 49q-48 7-85 30-32 19-31 41 1 8 2.5 10t9.5 3q10 1 40-12 46-22 88-21 24 1 30.5 7.5T212 135q2 18-9 35-20 31-67 75-38 36-48 65-23 71 22 99 9 6 24 6 29 0 64.5-18t48.5-41q7-14 2-22-10-19-51 13-6 4-14 8.5t-18.5 8-18.5 0-9-16.5q-1-23 11-41t49-48q43-35 62.5-82.5T266 94q-12-26-44-38t-73-7z"/><glyph glyph-name="t" unicode="t" horiz-adv-x="242" d="M114 51q-11 9-15 51.5T94 266l-2 125-8-2q-37-9-57-1-30 12-23 25 6 10 16 14.5t35 6.5q32 2 35 5 3 1 3 44 0 50 3.5 115t6.5 74q5 11 11 11t13-9q8-9 11.5-37t6.5-109l4-80q2-3 31-5 25-1 34.5-6t13.5-18q3-10-4-16t-38-6q-32-2-34-3-7-5-8.5-107.5T148 139q3-37 5-50 1-29-5-36-5-6-16-6.5T114 51z"/><glyph glyph-name="u" unicode="u" horiz-adv-x="360" d="M145 59q-63 17-78 68-11 41-16 147-5 108 7 128 6 8 19 7 16-1 20-13.5t7-76.5q4-123 12-158.5t33-49.5q17-9 42-9 44 1 54 23 9 17 11 44.5t3 117.5v29l.5 36 2.5 30 6 23q8 6 18 6t16-7q6-6 8-71 2-100-10-172t-34-87q-20-15-55-19t-66 4z"/><glyph glyph-name="v" unicode="v" horiz-adv-x="347" d="M148 49q-15 18-54 151T51 379q-2 15-1 18.5t7 5.5q19 8 33-16 9-22 21-64 41-141 54-165 5-7 7-7 1 0 2 1.5t6 12 14.5 32.5l28.5 65q45 100 55 118 15 28 27 33 7 3 13 3 5 0 8-1 12-6 5-29.5T292 294l-64-141Q182 49 168 41q-9-5-20 8z"/><glyph glyph-name="w" unicode="w" horiz-adv-x="467" d="M134 53q-12 0-21 11-7 9-14 43-7 37-28 125T42 341q-18 49-5 65 9 10 24-8 13-15 32.5-67T124 228q9-40 14-40 2 0 18.5 39t24.5 64q21 65 33 65 6 0 16-10 15-14 38-86 26-77 43-102l8-11 3 7q10 25 21.5 78.5T362 312l9 32.5 9.5 30L385 388q6 24 21 24 10 0 20-9 9-7 8-19-2-14-20-68-32-93-55-245-3-18-30-18-17 0-26.5 17T256 177q-18 46-23.5 56T222 243t-8.5-5.5T201 209q-12-29-27-75.5T159 80q0-5-6-17-7-10-19-10z"/><glyph glyph-name="x" unicode="x" horiz-adv-x="379" d="M56 61q-8-2-17 9-7 11-6 21 3 22 84 119 37 44 37 52 0 10-64 77-23 24-29 33.5T54 393q0 21 20 26 18 3 37-25 8-14 45-52l36-36 28 29q28 30 42 51 25 35 36 34 8 0 14-12 11-19 8.5-27T296 352q-45-40-65-76l-8-15 14-24q14-23 62-80 39-46 44.5-58.5T337 75q-16-16-31-10-9 4-31 35-79 110-91 115-10 5-23.5-12.5T102 110Q75 65 56 61z"/><glyph glyph-name="y" unicode="y" horiz-adv-x="325" d="M58-229Q45-210 94-58l42 134q4 13-5 36-6 19-39 93-30 64-39 90-2 8-18 47-12 29-12 50t6 23q5 3 10-4 25-35 55-107 24-52 45-91t26-39q7 0 54 123 26 67 41.5 93.5T289 417q4 0 8-2 8-5 2.5-26T266 292q-21-55-51-148L175 22q-11-28-40-123-37-117-49-127-6-5-15.5-5.5T58-229z"/><glyph glyph-name="z" unicode="z" horiz-adv-x="358" d="M72 50q-20 9-20 25 0 13 49 77 63 86 102 154l27 45-72 2q-60 2-78 6t-26 15q-11 18 13 34 7 5 38 5 29 0 52-1 67-1 87-4.5t30-17.5q8-12 8-29 0-31-19-67.5T199 199q-39-47-53-70l-13-21 39-1q46 0 76 3 74 6 84-4 8-5 8-14 0-6-5.5-13.5T322 68q-4-1-77-7-84-6-94-8-63-11-79-3z"/><glyph glyph-name="braceleft" unicode="{" horiz-adv-x="402" d="M214-4q-21 4-39 19t-26 36q-4 12-5.5 25.5t-2 23.5 1 27.5 2 24 3.5 27 4 24.5q15 104 4 148-4 12-12 18t-24.5 10.5T99 385q-10 2-15 11.5t1 18.5q10 16 42.5 31t41.5 34q19 26 10 56-20 77-18 128-3 36 18 60 43 55 104 52 24 2 30-16 1-14-10-21t-25-8q-51-4-67-47-7-12-5-32.5t5-32 9.5-31.5 8.5-31q9-30-2-61t-34-52q-1-3-8.5-10t-9.5-10 4-10q32-29 32-87 3-37-9.5-105.5T188 138q-5-28 7-54t34-41q35-17 65 4 31 20 40 1 12-24-26-42-43-28-94-10z"/><glyph glyph-name="bar" unicode="|" horiz-adv-x="245" d="M133 835q8 2 11-5 5-6 7-40.5t6-181.5q2-53 1.5-323T159-6q2-67-1-119-1-29-9-37-14-16-26-5-10 10-19 79-7 58 0 855v28.5l1 13 3.5 13 6.5 7.5q11 6 18 6z"/><glyph glyph-name="braceright" unicode="}" horiz-adv-x="398" d="M166-11q-68-2-82 42-5 24 2 32 9-1 26-11.5T137 39q15-3 30.5-1.5t28.5 11T215 74q8 14 3 77.5t-4 79.5q-2 113 41 161-47 51-51 90-3 32 2 93.5t3 91.5q-1 25-19.5 40T146 727q-2 1-13 3.5t-16.5 6.5-5.5 13q-2 14 8 18.5t25 5.5q32 1 60-21.5t42-55.5q5-15 6.5-33.5T254 633t-2-35.5-2-32.5q-13-58 24-106 8-12 28-25.5t27-20.5q3-3 4-7t-1-8-3.5-6-6.5-7l-4-5q-2-2-22-19t-24-31q-6-14-4.5-93t1.5-93q0-68-30-123-24-30-73-32z"/><glyph glyph-name="asciitilde" unicode="~" horiz-adv-x="338" d="M223 288q-31 4-41 9-24 14-44 34-24 24-39 28-6 1-9 0-2-1-7-9-6-12-6-30 0-21-10-25-6-3-12-3-6 1-10 7-14 13-12 43 2 28 17 45 17 18 42 22.5t49-8.5q23-12 45-33 19-20 46-26 22 0 23 22 2 2 2.5 11.5T259 388q3 10 11 17 27 9 32-5 4-11 2-37-3-38-24-55-22-20-57-20z"/><glyph glyph-name="exclamdown" unicode="¡" horiz-adv-x="233" d="M123 738q31 2 40-9 14-23-5-50-7-8-17-8-13 0-22 11-17 21-17 36 6 19 21 20zm17-145q11-2 16-20 3-12 5-73 4-192 1-335-4-65-9-87 0-6-5-10.5T136 63h-2q-13 1-22 10t-7 19q-1 32 3 91.5t4 80.5q1 31 2.5 141t4.5 159q0 20 17 28h2q1 1 2 1z"/><glyph glyph-name="sterling" unicode="£" horiz-adv-x="462" d="M103 37q-6-1-13 2-6 4-7 8-3 9 5 19h-1q34 43 47 86v1q36 102 44 309 2 19 2.5 54.5T185 577t15 55q21 53 65 70 31 12 43 12h6q26-2 49-23 6-6 22-18.5t27.5-24T430 624q1-1 1-3-1-7-8-15-6-8-17-8-2 0-4 2-59 59-88 66-21 4-36-8-18-14-33-55-6-33-7-62.5t.5-68.5 1.5-64q16 0 45 1t53 1.5 45 .5q16 1 27-9 6-6 6-13t-7-14q-11-9-34-9-26 0-30-1-8-1-46.5-2t-56.5-7q-5-8-7-22-2-22-5-28-20-123-59-215 6 1 38.5 7t51.5 7q100 2 155-17 1-1 4-2.5t4-2.5q4-4 4-8 0-6-7-13-3-3-11-9l-6-6q-1-4-8-4-45 10-54 11v1q-47 9-137-4T103 37z"/><glyph glyph-name="yen" unicode="¥" horiz-adv-x="490" d="M50 722q10 7 13 7 7-2 16-7 7-4 26.5-27.5T140 649q89-136 92-142l15-21q7-5 13 1 11 13 87 128 53 78 80 103 21 18 34 4 11-14 5.5-30T433 642q-31-38-73-102t-61-102q-9-17-13-46l61 3q79 4 79-9-1-17-9-26.5T400 347t-25-5q-28-3-92-4l-1-58 70 3q79 4 79-9-1-17-9-26.5T405 235t-25-5q-31-3-99-4v-7q-2-121-5-137-5-13-21.5-21T233 62q-7 9-9 162-120-2-136 1-23 3-25 19 0 7 6.5 16.5T87 273q6 1 137 5v58q-125-2-141 1-23 3-25 19 0 7 6.5 16.5T82 385q6 1 140 5v8q-4 22-16 44-19 40-60 104t-70 99q-27 34-32.5 49.5T50 722z"/><glyph glyph-name="section" unicode="§" horiz-adv-x="473" d="M250-94q-44 2-94 33.5T94 9q-18 48-6 70 19 15 27 2 31-65 50.5-85T210-31q73-28 133 32 24 19 17 50-5 26-21 48t-28 30q-21 16-71 44.5T167 222q-57 48-76 104.5T80 428q12 64 67 90-53 64-37 134 10 38 33 61 51 49 106 49 45-2 93.5-29.5T405 669q18-48 6-70-6-6-14-8t-13 5q-13 27-18 36.5T348.5 662 322 692.5 289 709q-48 15-78.5-2t-39-48.5T170 594q3-14 8-23.5t19-20.5 23-17.5 38.5-24.5l47.5-29 12-6q37-21 49-40 33-38 43-94t-4-79q-13-31-66-77 24-25 37-42 24-27 31-53.5T406 25q-10-40-33-61-63-62-123-58zm105 358q21 31 3 82-13 39-27.5 54.5T282 437q-46 26-74.5 33t-37.5 2.5-20-17.5q-23-27-19.5-62t21.5-66 44-54q38-28 62.5-39t49.5-5.5 47 35.5z"/><glyph glyph-name="copyright" unicode="©" horiz-adv-x="683" d="M304 69q-68-1-126 40T93 213Q53 314 66 377q16 76 58.5 140T231 616q45 20 96.5 29.5t118-2T561 592q59-53 76-163 14-59-18-157-32-105-157-174-22-14-52.5-21T359 69t-55 0zm90 54q78 13 145 98 57 76 43 203-14 68-40 111-38 45-111.5 59T301 588q-80-25-141-101-23-31-35-102-14-76 23-160 44-68 115-98 48-12 131-4zm-37 126q-38-5-73 17-45 28-54.5 85t20.5 99q14 20 45 43 33 23 75 26t71-29q15-19 10-37-1-7-4.5-10.5t-4.5-4l-7-3.5q-11-6-15 4-6 25-32 32-21 7-51-8-52-29-58-76-3-27 10.5-53.5T330 296q42-16 108 13 1 0 10.5 4.5T464 318q13-3 13-11 1-11-11-21-9-8-16-11-32-22-93-26z"/><glyph glyph-name="guillemotleft" unicode="«" horiz-adv-x="408" d="M239 555q16-5 20-10 11-13 0-26-8-9-24.5-23T211 475q-54-52-87-98-5-10-2-13 5-10 37-47l58-58 47-46q18-18 17-29-4-20-19-17-14 2-44 28-59 50-119 119-28 33-36 59-5 11 7 25 57 70 100 107 2 2 20 17.5l27 23.5q7 7 22 9zm104-59q-4-10-28-36l-84-90-4-5q-4-5-4-9 3-5 17-22 9-10 30-30.5t31-32.5q9-13 7-21-3-14-11-14-9-1-31 10-21 15-49 45-45 49-56 68-7 11-2 19 8 9 23 24.5l19 19.5 29 28.5 34.5 33.5 29.5 28q8 8 22 13 11 5 20.5-7.5T343 496z"/><glyph glyph-name="registered" unicode="®" horiz-adv-x="491" d="M211 443q-50-1-93 27t-63 73v1q-30 67-19 114 12 52 42.5 95.5T155 821l1 1q56 23 113 23h4q77 0 125-40 42-35 56-113 10-38-13-109-23-74-114-119-9-5-19.5-9t-17.5-6-21.5-3.5T250 444t-21-.5-18-.5zm63 47q56 8 101 64 39 48 30 133-11 45-28 73-37 41-115 41h-8q-21 0-44-7-56-18-98-67v1l-1-1q-17-22-24-66-9-52 17-105 30-44 79-64 32-8 91-2zm18 39q-17 17-51 83-1 2-3.5 9t-6 10.5-8.5.5q-3-14-3-42t-2-43q0-15-17-19.5T180 538q-5 25-6.5 74.5T172 668q0 8-.5 26.5t.5 32 5 25.5q4 4 8.5 7t12 5 10 2.5T220 768l11 1q23-1 44.5-12.5T306 726q13-30-32-75 7-19 25-51t23-43q8-13-4.5-24.5T292 529zm-77 148q16 0 30.5 8t18.5 22q2 11-9 15.5t-23 3.5h-16q-5-37-1-49z"/><glyph glyph-name="degree" unicode="°" horiz-adv-x="262" d="M58 583q-19 41 7 92 11 16 36 30 15 4 33 4 52 0 70-48 21-56-11-103-31-39-70-34.5T58 583zm34 44q0-23 12-35 25-36 56-3 16 22 10 42t-21 27q-21 8-39-.5T92 627z"/><glyph glyph-name="plusminus" unicode="±" horiz-adv-x="434" d="M222 265q-7 0-16.5 6.5T193 289q-2 7-5 113-114-2-130 1-23 3-25 19 0 7 6.5 16.5T57 451q6 1 129 5l-3 59q-4 79 9 79 17-1 26.5-10t11.5-16 6-25q2-11 4-85l82 3q79 4 79-9-1-17-9.5-26.5t-17-12T350 408q-6-1-108-5 2-98-1-113-3-23-19-25zM58 171q-23 3-25 19 0 7 6.5 16.5T57 219q5 1 41.5 2.5T202 225t120 4q79 4 79-9-1-17-9-26.5T375 181t-25-5q-24-3-149-5.5T58 171z"/><glyph glyph-name="periodcentered" unicode="·" horiz-adv-x="213" d="M103 303q-17 2-21 20 0 25 9 36 7 9 22.5 10.5T137 362q20-26 6-50-9-11-40-9z"/><glyph glyph-name="guillemotright" unicode="»" horiz-adv-x="404" d="M186 555q15-2 22-9l14.5-13 17-15 15.5-13q43-37 100-107 12-14 7-25-8-26-36-59-60-69-119-119-30-26-44-28-15-3-19 17-1 11 17 29l47 46 58 58q32 37 37 47 3 3-2 13-33 46-87 98-7 7-23.5 21T166 519q-11 13 0 26 4 5 20 10zM82 496q-3 9 6.5 21.5T109 525q14-5 22-13l29.5-28 34.5-33.5 29-28.5 19-19.5 23-24.5q5-8-2-19-11-19-56-68-28-30-49-45-22-11-31-10-8 0-11 14-2 8 7 21 10 12 31 32.5t30 30.5q14 17 17 22 0 2-1 4t-2 3.5-2.5 3.5-2.5 3l-84 90q-24 26-28 36z"/><glyph glyph-name="questiondown" unicode="¿" horiz-adv-x="360" d="M238 694q-10-28-44-30h-2q-12-1-19.5 8.5T167 693q4 28 16 38 18 8 32-1l6-6 7-7 5.5-6.5 4.5-8.5v-8zm77-569q-30-41-78-59-27-10-47-10-26 0-59 13t-57.5 37.5T40 157q-6 18-7 56.5t4 56.5q19 72 96 103l18 7 12.5 8.5L171 404q7 137 16 147 5 6 15 8.5t15-1.5q16-12 11-154-2-50-61-66-77-21-83-128-2-22 9-44 21-41 48-54 15-6 41-6t40.5 6 30.5 25q24 34 53 43 22 7 21-17-1-14-12-38z"/><glyph glyph-name="Agrave" unicode="À" horiz-adv-x="469" d="M328 731h-14q-14 2-20 6-9 5-23 19l-20 17.5-19 17-15.5 14.5-13.5 15-8.5 14-5.5 16q0 9 2 13 1 1 3 6t4 6q1 1 3 1h2q9-2 18-8 20-15 29-24 44-40 57-50 25-20 26-21 5-5 7-15 5-20-7-26zm80-686q-13 9-33 83-50 187-53 190-2 2-62 9-48 6-68 10-11 2-17-7t-18-43q-25-68-42-109-9-21-21.5-54.5T78 84Q51 28 38 44l-2 2q-5 5-4 32 0 28 9 58.5T80 238q22 52 55 146l53 152 39 117q11 37 13 41 4 9 19 9 1 0 3-.5t3-.5q14-6 19-43t25-99q22-71 33-113 15-60 30-68 14-10 10-31-5-24 23-122 40-142 30-164-5-11-13-17-6-5-14 0zM275 381q34 1 34 4-5 13-26.5 90T261 555q0 4-4 10-1 2-3 2t-14-26q-12-27-27.5-76.5T197 404q0-13 16-18t62-5z"/><glyph glyph-name="Aacute" unicode="Á" horiz-adv-x="469" d="M189 731l-5 1q-12 6-7 26 2 10 7 15 1 1 26 21 13 10 57 50 9 9 29 24 9 6 18 8h2q2 0 3-1 2-1 4-6t3-6q2-4 2-13-2-10-6-18t-14-19-15.5-16l-23-20.5L246 756q-14-14-23-19-6-4-20-6h-14zM408 45q-13 9-33 83-50 187-53 190-2 2-62 9-48 6-68 10-11 2-17-7t-18-43q-25-68-42-109-9-21-21.5-54.5T78 84Q51 28 38 44l-2 2q-5 5-4 32 0 28 9 58.5T80 238q22 52 55 146l53 152 39 117q11 37 13 41 4 9 19 9 1 0 3-.5t3-.5q14-6 19-43t25-99q22-71 33-113 15-60 30-68 14-10 10-31-5-24 23-122 40-142 30-164-5-11-13-17-6-5-14 0zM275 381q34 1 34 4-5 13-26.5 90T261 555q0 4-4 10-1 2-3 2t-14-26q-12-27-27.5-76.5T197 404q0-13 16-18t62-5z"/><glyph glyph-name="Acircumflex" unicode="Â" horiz-adv-x="469" d="M148 712q-4-2-12 1-7 7-7 11 1 4 9 15 12 16 61 65 44 44 56 55l9 7 6 5q9 11 17-1l5-5 9.5-12 7.5-9q15-22 52-62 23-25 24-27 6-8 7-10t3-4q0-1 1-3 0-8-10-16-10-7-21-7-6 0-14 5-3 2-8.5 7t-8.5 8q-23 23-50 58l-18 23-23-25q-42-45-71-66-15-10-24-13zM408 45q-13 9-33 83-50 187-53 190-2 2-62 9-48 6-68 10-11 2-17-7t-18-43q-25-68-42-109-9-21-21.5-54.5T78 84Q51 28 38 44l-2 2q-5 5-4 32 0 28 9 58.5T80 238q22 52 55 146l53 152 39 117q11 37 13 41 4 9 19 9 1 0 3-.5t3-.5q14-6 19-43t25-99q22-71 33-113 15-60 30-68 14-10 10-31-5-24 23-122 40-142 30-164-5-11-13-17-6-5-14 0zM275 381q34 1 34 4-5 13-26.5 90T261 555q0 4-4 10-1 2-3 2t-14-26q-12-27-27.5-76.5T197 404q0-13 16-18t62-5z"/><glyph glyph-name="Atilde" unicode="Ã" horiz-adv-x="469" d="M310 741q-25 2-35 7-14 8-38 30-22 21-34 24-5 2-8 0-1-1-6-8-5-12-5-26 0-15-9-21-4-3-10-3-5 2-9 6-12 12-10 37 2 24 15 39 32 35 78 12 18-9 39-28 15-17 40-23 19 0 20 19 1 2 1.5 10t1.5 11q3 9 10 15 22 7 27-5 4-9 2-32-2-32-21-47-19-17-49-17zm98-696q-13 9-33 83-50 187-53 190-2 2-62 9-48 6-68 10-11 2-17-7t-18-43q-25-68-42-109-9-21-21.5-54.5T78 84Q51 28 38 44l-2 2q-5 5-4 32 0 28 9 58.5T80 238q22 52 55 146l53 152 39 117q11 37 13 41 4 9 19 9 1 0 3-.5t3-.5q14-6 19-43t25-99q22-71 33-113 15-60 30-68 14-10 10-31-5-24 23-122 40-142 30-164-5-11-13-17-6-5-14 0zM275 381q34 1 34 4-5 13-26.5 90T261 555q0 4-4 10-1 2-3 2t-14-26q-12-27-27.5-76.5T197 404q0-13 16-18t62-5z"/><glyph glyph-name="Adieresis" unicode="Ä" horiz-adv-x="469" d="M286 807q0 37 20 43 18 4 26-18 7-16 4-57-1-7-8-12-5-4-15-8-24-4-26 25-1 8-1 27zm-92 0q0 25 1 31 2 6 4 7 29 11 41-17 7-15 4-53-1-7-8-12-5-4-15-8-21-4-24 9l-2 16q-1 8-1 27zM408 45q-13 9-33 83-50 187-53 190-2 2-62 9-48 6-68 10-11 2-17-7t-18-43q-25-68-42-109-9-21-21.5-54.5T78 84Q51 28 38 44l-2 2q-5 5-4 32 0 28 9 58.5T80 238q22 52 55 146l53 152 39 117q11 37 13 41 4 9 19 9 1 0 3-.5t3-.5q14-6 19-43t25-99q22-71 33-113 15-60 30-68 14-10 10-31-5-24 23-122 40-142 30-164-5-11-13-17-6-5-14 0zM275 381q34 1 34 4-5 13-26.5 90T261 555q0 4-4 10-1 2-3 2t-14-26q-12-27-27.5-76.5T197 404q0-13 16-18t62-5z"/><glyph glyph-name="Aring" unicode="Å" horiz-adv-x="469" d="M204 775q-16 36 6 79 9 13 31 26 13 4 29 4 44 0 60-42 18-49-9-89-27-34-61-29.5T204 775zm30 38q0-20 10-30 8-12 18-14.5t17 1.5 13 10q14 18 9 36t-18 24q-19 6-34-1t-15-26zM408 45q-13 9-33 83-50 187-53 190-2 2-62 9-48 6-68 10-11 2-17-7t-18-43q-25-68-42-109-9-21-21.5-54.5T78 84Q51 28 38 44l-2 2q-5 5-4 32 0 28 9 58.5T80 238q22 52 55 146l53 152 39 117q11 37 13 41 4 9 19 9 1 0 3-.5t3-.5q14-6 19-43t25-99q22-71 33-113 15-60 30-68 14-10 10-31-5-24 23-122 40-142 30-164-5-11-13-17-6-5-14 0zM275 381q34 1 34 4-5 13-26.5 90T261 555q0 4-4 10-1 2-3 2t-14-26q-12-27-27.5-76.5T197 404q0-13 16-18t62-5z"/><glyph glyph-name="AE" unicode="Æ" horiz-adv-x="567" d="M336 653q-8-2-7-15 2-97-2-189l-1-45 59-1q84-2 91-6 11-6 6-23-5-12-19-15t-78-3h-58l-1-20q-2-49-2.5-130t1.5-95l3-9 73-1q78-1 96.5-3T518 86q2-19-14-28-11-5-105-6-72-1-88-3h-13.5L287 50.5l-8 1.5-5 3.5-3 4-1.5 6.5-.5 8v24q2 34 5 256l-80 3Q81 112 69 78q-5-15-24.5-27T17 46Q7 60 17 89l155 342 113 258q5 7 20 10 51 11 140 11 70 0 78-12 4-6 2.5-14.5T517 671q-7-1-83-5-68-3-98-13zm-61-205l4 96q-7-9-18.5-34.5l-24.5-56-19-41.5q16-3 56-3 1 11 1.5 23t.5 16z"/><glyph glyph-name="Ccedilla" unicode="Ç" horiz-adv-x="466" d="M82 337q-3 77 17 161 15 65 38.5 106t64.5 75q42 34 75 41 13 3 25 3 66 0 95-65 24-57-8-57-9 0-36 31-29 33-45 38.5t-44-9.5q-77-43-104-142-12-45-18.5-112T139 302q7-71 26-115 13-29 40-51.5t53-26.5q23-6 66 14 9 3 51 29 36 22 43 20 8-4 7.5-13.5t-11-24.5-27.5-30q-39-34-74-44-15-4-53-6-1-12-4-23-3-8 10-11 47-10 59-54 6-29-12.5-58.5T266-127q-50-9-92 23-27 21-7 33 18 12 38 1l4-2q23-15 38.5-13.5T270-71q6 20-3.5 35T238-19q-18 3-26 11t-6 18q1 6 15 44l-9 1q-28 7-63 49-34 41-48.5 92T82 337z"/><glyph glyph-name="Egrave" unicode="È" horiz-adv-x="402" d="M268 731h-14q-14 2-20 6-9 5-23 19l-20 17.5-19 17-15.5 14.5-13.5 15-8.5 14-5.5 16q0 9 2 13 1 1 3 6t4 6q1 1 3 1h2q9-2 18-8 20-15 29-24 44-40 57-50 25-20 26-21 5-5 7-15 5-20-7-26zM101 48q-1 0-2 1-3 0-4 1-16 7-12 49 3 27 1 269-1 129-1 267 0 36 5.5 48t24.5 16q51 11 167 11 70 0 78-12 4-6 2.5-14.5T352 671q-7-1-83-5-107-4-132-13-8-2-7-15 4-173 5-189l2-30 86-1q84-2 91-6 11-6 6-23-5-12-18.5-14.5T223 371l-81-1-1-20q-10-207-4-240l3-9h96q76 0 95.5-2.5T353 86q2-19-14-28-11-5-105-6-105-2-115-3-6-1-18-1z"/><glyph glyph-name="Eacute" unicode="É" horiz-adv-x="402" d="M165 731l-5 1q-12 6-7 26 2 10 7 15 1 1 26 21 13 10 57 50 9 9 29 24 9 6 18 8h2q2 0 3-1 2-1 4-6t3-6q2-4 2-13-2-10-6-18t-14-19-15.5-16l-23-20.5L222 756q-14-14-23-19-6-4-20-6h-14zM101 48q-1 0-2 1-3 0-4 1-16 7-12 49 3 27 1 269-1 129-1 267 0 36 5.5 48t24.5 16q51 11 167 11 70 0 78-12 4-6 2.5-14.5T352 671q-7-1-83-5-107-4-132-13-8-2-7-15 4-173 5-189l2-30 86-1q84-2 91-6 11-6 6-23-5-12-18.5-14.5T223 371l-81-1-1-20q-10-207-4-240l3-9h96q76 0 95.5-2.5T353 86q2-19-14-28-11-5-105-6-105-2-115-3-6-1-18-1z"/><glyph glyph-name="Ecircumflex" unicode="Ê" horiz-adv-x="402" d="M104 731q-4-2-12 1-3 0-4 1v2h-1v1q-2 4-2 7 1 4 9 15 12 16 61 65 44 44 56 55l9 7 6 5q8 6 17-1 2-3 8-9 21-29 66-79 23-25 24-27 6-8 7-10t3-4l1-1v-2q0-8-10-16-10-7-21-7-6 0-14 5-3 2-8.5 7t-8.5 8q-23 23-50 58l-18 23-23-25q-42-45-71-66-15-10-24-13zm-3-683q-1 0-2 1-3 0-4 1-16 7-12 49 3 27 1 269-1 129-1 267 0 36 5.5 48t24.5 16q51 11 167 11 70 0 78-12 4-6 2.5-14.5T352 671q-7-1-83-5-107-4-132-13-8-2-7-15 4-173 5-189l2-30 86-1q84-2 91-6 11-6 6-23-5-12-18.5-14.5T223 371l-81-1-1-20q-10-207-4-240l3-9h96q76 0 95.5-2.5T353 86q2-19-14-28-11-5-105-6-105-2-115-3-6-1-18-1z"/><glyph glyph-name="Edieresis" unicode="Ë" horiz-adv-x="402" d="M251 807q0 37 20 43 16 4 26-18 7-16 4-57-1-7-8-12-5-4-15-8-24-4-26 25-1 8-1 27zm-92 0q0 25 1 31 2 6 4 7 29 11 41-17 7-15 4-53-1-7-8-12-5-4-15-8-21-4-24 9l-2 16q-1 8-1 27zM101 48q-1 0-2 1-3 0-4 1-16 7-12 49 3 27 1 269-1 129-1 267 0 36 5.5 48t24.5 16q51 11 167 11 70 0 78-12 4-6 2.5-14.5T352 671q-7-1-83-5-107-4-132-13-8-2-7-15 4-173 5-189l2-30 86-1q84-2 91-6 11-6 6-23-5-12-18.5-14.5T223 371l-81-1-1-20q-10-207-4-240l3-9h96q76 0 95.5-2.5T353 86q2-19-14-28-11-5-105-6-105-2-115-3-6-1-18-1z"/><glyph glyph-name="Igrave" unicode="Ì" horiz-adv-x="317" d="M219 731h-14q-14 2-20 6-9 5-23 19l-20 17.5-19 17-15.5 14.5L94 820l-8.5 14-5.5 16q0 9 2 13 1 1 3 6t4 6q1 1 3 1h2q9-2 18-8 20-15 29-24 44-40 57-50 25-20 26-21 5-5 7-15 5-20-7-26zm-25-95q0-500-1-508-9-69-19-79-12-11-26 5-8 8-9 37-3 52-1 119 1 24 1 127.5t2 155.5q4 135 6 167.5t7 38.5q7 11 29-1 4-3 6.5-7.5t3.5-13 1-13V636z"/><glyph glyph-name="Iacute" unicode="Í" horiz-adv-x="304" d="M105 731l-5 1q-12 6-7 26 2 10 7 15 1 1 26 21 13 10 57 50 9 9 29 24 9 6 18 8h2q2 0 3-1 2-1 4-6t3-6q2-4 2-13-2-10-6-18t-14-19-15.5-16l-23-20.5L162 756q-14-14-23-19-6-4-20-6h-14zm16-95v28.5l1 13 3.5 13 6.5 7.5q22 12 29 1 5-6 7-38.5t6-167.5q2-52 2-155.5t1-127.5q2-67-1-119-1-29-9-37-14-16-26-5-10 10-19 79-1 8-1 508z"/><glyph glyph-name="Icircumflex" unicode="Î" horiz-adv-x="284" d="M31 733q-4-2-12 1-7 7-7 11 1 4 9 15 12 16 61 65 44 44 56 55l9 7 6 5q9 11 17-1l4-5q5-5 10.5-12t7.5-9q15-22 52-62 23-25 24-27 6-8 7-10t3-4v-1q1-1 1-2 0-8-10-16-10-7-21-7-6 0-14 5-3 2-8.5 7t-8.5 8q-23 23-50 58l-18 23-23-25q-42-45-71-66-15-10-24-13zM139 49q-10 10-19 79-5 43-1 524v28.5l1 13 3.5 13 6.5 7.5q10 6 18 6 8 2 11-5 5-6 7-40.5t6-181.5q2-52 2-155.5t1-127.5q2-67-1-119-1-29-9-37-14-16-26-5z"/><glyph glyph-name="Idieresis" unicode="Ï" horiz-adv-x="250" d="M154 807q0 37 20 43 18 4 26-18 7-16 4-57-1-7-8-12-5-4-15-8-24-4-26 25-1 8-1 27zm-92 0q0 25 1 31 2 6 4 7 29 11 41-17 7-15 4-53-1-7-8-12-5-4-15-8-21-4-24 9l-2 16q-1 8-1 27zm71-87q8 2 11-5 5-6 7-40.5t6-181.5q2-52 2-155.5t1-127.5q2-67-1-119-1-29-9-37-14-16-26-5-10 10-19 79-5 43-1 524v28.5l1 13 3.5 13 6.5 7.5q11 6 18 6z"/><glyph glyph-name="Eth" unicode="Ð" horiz-adv-x="470" d="M17 330q-3 32 24 32 7 1 19 1h25v321q6 16 25 18h1q15-2 26-8 24-13 89.5-79T324 507q41-54 70-122.5T428 268q7-67-41-126T258 58q-29-9-73-10-46-1-62 3-21 6-28 16t-8 37l-1 212q-22 0-31 1-34 0-38 13zm118 190q0-19 3-157 103 0 104-20 0-7-1.5-11.5t-6.5-7-8-3.5-10-2.5-8-1.5q-17-3-52-3h-17q3-66 3-139 0-80 3-82 2-5 10-3 43 9 51 10 91 15 133 66 29 35 31 84 3 24-1 44-10 50-51 115-40 63-93 128.5T144 619l-9 5V520z"/><glyph glyph-name="Ntilde" unicode="Ñ" horiz-adv-x="514" d="M311 741q-25 2-35 7-14 8-38 30-22 21-34 24-5 2-8 0-1-1-6-8-5-12-5-26 0-15-9-21-5-3-10-3-4 2-9 6-12 12-10 37 2 24 15 39 32 35 78 12 18-9 39-28 15-17 40-23 19 0 20 19 1 2 1.5 10t1.5 11q3 9 10 15 22 7 27-5 4-9 2-32-2-32-21-47-19-17-49-17zM107 54q-10 11-14 54.5T86 278q-8 346-1 399 7 43 23 49 0 1 4 1 14 0 44-66 32-61 50-102 15-25 75-150 69-144 106-209l12-19v67q0 78-5 190-4 134-4 198t2.5 76.5T409 725q20 0 24-17 3-10 7-116 1-27 2.5-98.5T445 396q10-307 0-328-5-16-17-19t-22 8q-24 29-120 226-43 90-64 127l-54 106q-9 18-14 27l-8.5 15.5-5 8-2.5-.5q-2-3-1-155t5-231q5-114-9-126-15-13-26 0z"/><glyph glyph-name="Ograve" unicode="Ò" horiz-adv-x="436" d="M312 751h-14q-14 2-20 6-9 5-23 19l-20 17.5-19 17-15.5 14.5-13.5 15-8.5 14-5.5 16q0 9 2 13 1 1 3 6t4 6q1 1 3 1h2q9-2 18-8 20-15 29-24 44-40 57-50 25-20 26-21 5-5 7-15 5-20-7-26zM276 46q-10-3-36-2.5T201 47q-34 8-67 38.5T89 152q-27 78-27 215 0 178 57 286 12 23 44 51.5t60 31.5q31 0 51-9 85-32 109-159 11-56 12.5-177T387 224q-14-71-44-119t-67-59zm-12 63q43 17 61 83 16 57 18.5 176.5T332 560q-7 38-26.5 71.5T263 676q-10 5-23 5-46 0-78-72-22-46-31-95t-12-138q-3-137 20-202 4-15 19.5-35.5T185 112q31-19 79-3z"/><glyph glyph-name="Oacute" unicode="Ó" horiz-adv-x="436" d="M161 752l-5 1q-12 6-7 26 2 10 7 15 1 1 26 21 13 10 57 50 9 9 29 24 9 6 18 8h2q2 0 3-1 2-1 4-6t3-6q2-4 2-13-2-10-6-18t-14-19-15.5-16l-23-20.5L218 777q-14-14-23-19-6-4-20-6h-14zM276 46q-10-3-36-2.5T201 47q-34 8-67 38.5T89 152q-27 78-27 215 0 178 57 286 12 23 44 51.5t60 31.5q31 0 51-9 85-32 109-159 11-56 12.5-177T387 224q-14-71-44-119t-67-59zm-12 63q43 17 61 83 16 57 18.5 176.5T332 560q-7 38-26.5 71.5T263 676q-10 5-23 5-46 0-78-72-22-46-31-95t-12-138q-3-137 20-202 4-15 19.5-35.5T185 112q31-19 79-3z"/><glyph glyph-name="Ocircumflex" unicode="Ô" horiz-adv-x="436" d="M119 733q-4-2-12 1-7 7-7 11 1 4 9 15 12 16 61 65 44 44 56 55l9 7 6 5q9 11 17-1l4-5q5-5 10.5-12t7.5-9q15-22 52-62 22-25 24-27 6-8 7-10t3-4v-1q1-1 1-2 0-8-10-16-11-7-21-7-6 0-14 5-3 2-8.5 7t-8.5 8q-23 23-50 58l-18 23-23-25q-42-45-71-66-15-10-24-13zM276 46q-10-3-36-2.5T201 47q-34 8-67 38.5T89 152q-27 78-27 215 0 178 57 286 10 18 35 45.5t36 32.5q13 5 33 5 31 0 51-9 85-32 109-159 11-56 12.5-177T387 224q-14-71-44-119t-67-59zm-12 63q43 17 61 83 16 57 18.5 176.5T332 560q-7 38-26.5 71.5T263 676q-10 5-23 5-46 0-78-72-22-46-31-95t-12-138q-3-137 20-202 4-15 19.5-35.5T185 112q31-19 79-3z"/><glyph glyph-name="Otilde" unicode="Õ" horiz-adv-x="436" d="M299 771q-24 2-35 7-14 8-38 30-22 21-34 24-5 2-8 0-1-1-6-8-5-12-5-26 0-15-9-21-5-3-10-3-4 2-9 6-12 12-10 37 2 24 15 39 32 35 78 12 18-9 39-28 15-17 40-23 19 0 20 19 1 2 1.5 10t1.5 11q3 9 10 15 22 7 27-5 4-9 2-32-2-32-21-47-19-17-49-17zM276 46q-10-3-36-2.5T201 47q-34 8-67 38.5T89 152q-27 78-27 215 0 178 57 286 10 18 35 45.5t36 32.5q13 5 33 5 31 0 51-9 85-32 109-159 11-56 12.5-177T387 224q-14-71-44-119t-67-59zm-12 63q43 17 61 83 16 57 18.5 176.5T332 560q-7 38-26.5 71.5T263 676q-10 5-23 5-46 0-78-72-22-46-31-95t-12-138q-3-137 20-202 4-15 19.5-35.5T185 112q31-19 79-3z"/><glyph glyph-name="Odieresis" unicode="Ö" horiz-adv-x="436" d="M259 817q0 37 20 43 16 4 26-18 7-16 4-57-1-7-8-12-5-4-15-8-24-4-26 25-1 8-1 27zm-92 0q0 25 1 31 2 6 4 7 29 11 41-17 7-15 4-53-1-7-8-12-5-4-15-8-21-4-24 9l-2 16q-1 8-1 27zM276 46q-10-3-36-2.5T201 47q-34 8-67 38.5T89 152q-27 78-27 215 0 178 57 286 10 18 35 45.5t36 32.5q13 5 33 5 31 0 51-9 85-32 109-159 11-56 12.5-177T387 224q-14-71-44-119t-67-59zm-12 63q43 17 61 83 16 57 18.5 176.5T332 560q-7 38-26.5 71.5T263 676q-10 5-23 5-46 0-78-72-22-46-31-95t-12-138q-3-137 20-202 4-15 19.5-35.5T185 112q31-19 79-3z"/><glyph glyph-name="Oslash" unicode="Ø" horiz-adv-x="468" d="M62 367q0 178 57 286 44 83 104 83 31 0 51-9 46-18 74-61l1 2q14 30 31 48.5t28 18.5q14 0 18-6 3-4-3.5-21t-20-43-17.5-36l-10-25q6-21 8-36 11-56 12.5-177T387 224q-14-71-44-119t-67-59q-10-3-36-2.5T201 47q-35 8-68 39l-16-36q-5-8-24.5-11.5T68 41q-5 5-3.5 20T72 83q9 9 22 37l5 10q-7 13-10 22-27 78-27 215zm57 9q-3-109 12-175l52.5 118.5 63 140L318 607q-23 53-55 69-10 5-23 5-46 0-78-72-22-46-31-95t-12-138zm41-239q14-19 25-25 31-19 79-3 43 17 61 83 14 49 17.5 150T338 519q-10-22-65.5-135.5T171 158q-3-7-11-21z"/><glyph glyph-name="Ugrave" unicode="Ù" horiz-adv-x="468" d="M301 731h-14q-14 2-20 6-9 5-23 19l-20 17.5-19 17-15.5 14.5-13.5 15-8.5 14-5.5 16q0 9 2 13 1 1 3 6t4 6q1 1 3 1h2q9-2 18-8 20-15 29-24 44-40 57-50 25-20 26-21 5-5 7-15 5-20-7-26zM208 62q-62 15-92 56-16 21-22.5 64T83 323q-1 67-1 222t1 172q1 6 1.5 8t1.5 4 3 2.5 6 .5q22 2 26-18 1-8 3-110 7-359 26-426 15-40 45-55 14-5 49-5t49 7q32 19 42 59 8 33 16.5 176t8.5 260q0 97 11 106 5 6 16 6 11 2 13-5t3-115.5-1-200.5q-3-161-11-219t-30-85q-28-29-63-41-41-12-90-4z"/><glyph glyph-name="Uacute" unicode="Ú" horiz-adv-x="468" d="M197 731l-5 1q-12 6-7 26 2 10 7 15 1 1 26 21 13 10 57 50 9 9 29 24 9 6 18 8h2q2 0 3-1 2-1 4-6t3-6q2-4 2-13-2-10-6-18t-14-19-15.5-16l-23-20.5L254 756q-14-14-23-19-6-4-20-6h-14zm11-669q-62 15-92 56-16 21-22.5 64T83 323q-1 67-1 222t1 172q1 6 1.5 8t1.5 4 3 2.5 6 .5q22 2 26-18 1-8 3-110 7-359 26-426 15-40 45-55 14-5 49-5t49 7q32 19 42 59 8 33 16.5 176t8.5 260q0 97 11 106 5 6 16 6 11 2 13-5t3-115.5-1-200.5q-3-161-11-219t-30-85q-28-29-63-41-41-12-90-4z"/><glyph glyph-name="Ucircumflex" unicode="Û" horiz-adv-x="468" d="M153 751q-4-2-12 1-7 7-7 11 1 4 9 15 12 16 43 47 44 44 56 55l9 7 6 5q9 11 17-1l4-5q5-5 10.5-12t7.5-9q21-29 37-47 23-25 24-27 6-8 7-10t3-4q0-1 1-3 0-8-10-16-10-7-21-7-6 0-14 5-3 2-8.5 7t-8.5 8q-8 8-35 43l-18 23-23-25q-28-30-53-48-15-10-24-13zm55-689q-62 15-92 56-16 21-22.5 64T83 323q-1 67-1 222t1 172q1 6 1.5 8t1.5 4 3 2.5 6 .5q22 2 26-18 1-8 3-110 7-359 26-426 15-40 45-55 14-5 49-5t49 7q32 19 42 59 8 33 16.5 176t8.5 260q0 97 11 106 5 6 16 6 11 2 13-5t3-115.5-1-200.5q-3-161-11-219t-30-85q-28-29-63-41-41-12-90-4z"/><glyph glyph-name="Udieresis" unicode="Ü" horiz-adv-x="468" d="M266 807q0 37 20 43 16 4 26-18 7-16 4-57-1-7-8-12-5-4-15-8-24-4-26 25-1 8-1 27zm-92 0q0 25 1 31 2 6 4 7 29 11 41-17 7-15 4-53-1-7-8-12-5-4-15-8-21-4-24 9l-2 16q-1 8-1 27zm34-745q-62 15-92 56-16 21-22.5 64T83 323q-1 67-1 222t1 172q1 6 1.5 8t1.5 4 3 2.5 6 .5q22 2 26-18 1-8 3-110 7-359 26-426 15-40 45-55 14-5 49-5t49 7q32 19 42 59 8 33 16.5 176t8.5 260q0 97 11 106 5 6 16 6 11 2 13-5t3-115.5-1-200.5q-3-161-11-219t-30-85q-28-29-63-41-41-12-90-4z"/><glyph glyph-name="Yacute" unicode="Ý" horiz-adv-x="490" d="M212 731l-5 1q-12 6-7 26 2 10 7 15 1 1 26 21 13 10 57 50 9 9 29 24 9 6 18 8h2q2 0 3-1 2-1 4-6t3-6q2-4 2-13-2-10-6-18t-14-19-15.5-16l-23-20.5L269 756q-14-14-23-19-6-4-20-6h-14zm21-669q-9 10-9 194 0 118-2 142-4 22-16 44-19 40-60 104t-70 99q-27 34-32.5 49.5T50 722q10 7 13 7 7-2 16-7 7-4 26.5-27.5T140 649q89-136 92-142l15-21q7-5 13 1 11 13 87 128 53 78 80 103 21 18 34 4 11-14 5.5-30T433 642q-31-38-73-102t-61-102q-11-21-14-59.5T281 219q-2-121-5-137-5-13-21.5-21T233 62z"/><glyph glyph-name="Thorn" unicode="Þ" horiz-adv-x="419" d="M87 41q-4 2-5 7t0 30q6 106 0 438 0 124 5 149 8 52 27 61 13-4 16-13 4-14 4-100 0-41 2.5-45t29.5-4q46 0 67-5 64-13 104.5-61T378 388q0-65-45-114-48-54-129-55-10 0-49 11l-16 3-2-19q-2-17 2-102 3-55-17-67-17-9-35-4zm110 222q9 0 29 4 29 7 53.5 26.5T317 338q6 18 6 47 0 32-9 51-17 37-54 58-41 21-94 23h-12q-15 0-17-7-2-5-1-121V280l8-6q13-11 53-11z"/><glyph glyph-name="germandbls" unicode="ß" horiz-adv-x="383" d="M76-172q-20 23-15 71 3 48 3 504 0 18-2 56-4 44-1 85t11.5 72 36 45 73.5 5q52-12 75.5-45.5t20-70.5-12.5-65-17-36l-8-8 15-11q72-51 91-141 5-17 3-53-3-77-47-118-33-30-77-41-53-13-65 6-9 14 21 28 10 5 24 8 54 14 80 59 19 33 14 81-5 49-38 91.5T184 402q-10 4-13.5 9.5t0 15T177 442t12 19.5 12 17.5q38 77 6 122-22 31-54 19-11-4-20-13-13-13-19-87 0-188-1-279-1-50-.5-193.5T114-113q0-60-1-66-6-25-37 7z"/><glyph glyph-name="agrave" unicode="à" horiz-adv-x="340" d="M180 452q-14 2-20 6-9 5-23 19l-20 17.5-19 17L82.5 526 69 541l-8.5 14-5.5 16q0 9 2 13 1 1 3 6t4 6q1 1 3 1h2q9-2 18-8 20-15 29-24 44-40 57-50 25-20 26-21 5-5 7-15 5-20-7-26l-5-1h-14zM148 61q-30-2-47 2-45 8-62 44-13 27 8 52 12 13 51.5 42t74.5 50q33 19 37 26t-8 32q-9 22-22 33-10 8-14 9.5t-17 .5q-18-1-44-17-38-24-50-16-5 3-9 16t-2 19q2 7 33.5 23.5T130 400q20 6 35 6 35 0 57-25 17-19 34.5-68t24.5-96q24-159-16-153-9 1-20 11l-13 12-27-13q-26-12-57-13zm-30 51q24-11 68 1 33 9 43 28 6 12 5 44 0 32-4 36-2 2-4 2-9 0-61-33-50-32-55-36-22-14-20-22.5t28-19.5z"/><glyph glyph-name="aacute" unicode="á" horiz-adv-x="340" d="M101 452l-5 1q-12 6-7 26 2 10 7 15 1 1 26 21 13 10 57 50 9 9 29 24 9 6 18 8h2q2 0 3-1 2-1 4-6t3-6q2-4 2-13-2-10-6-18t-14-19-15.5-16l-23-20.5L158 477q-14-14-23-19-6-4-20-6h-14zm47-391q-30-2-47 2-45 8-62 44-13 27 8 52 12 13 51.5 42t74.5 50q33 19 37 26t-8 32q-9 22-22 33-10 8-14 9.5t-17 .5q-18-1-44-17-38-24-50-16-5 3-9 16t-2 19q2 7 33.5 23.5T130 400q20 6 35 6 35 0 57-25 17-19 34.5-68t24.5-96q24-159-16-153-9 1-20 11l-13 12-27-13q-26-12-57-13zm-30 51q24-11 68 1 33 9 43 28 6 12 5 44 0 32-4 36-2 2-4 2-9 0-61-33-50-32-55-36-22-14-20-22.5t28-19.5z"/><glyph glyph-name="acircumflex" unicode="â" horiz-adv-x="353" d="M52 447q-4-2-12 1-7 7-7 11 1 4 9 15 12 16 61 65 44 44 56 55l9 7 6 5q9 11 17-1l5-5 9.5-12 7.5-9q15-21 52-62 23-25 24-27 6-8 7-10t3-4l1-1v-2q0-8-10-16-10-7-21-7-6 0-14 5-3 2-8.5 7t-8.5 8q-23 23-50 58l-18 23-23-25q-42-45-71-66-15-10-24-13zM161 61q-30-2-47 2-45 8-62 44-13 27 8 52 12 13 51.5 42t74.5 50q33 19 37 26t-8 32q-9 22-22 33-10 8-14 9.5t-17 .5q-18-1-44-17-38-24-50-16-5 3-9 16t-2 19q2 7 33.5 23.5T143 400q19 6 35 6 35 0 57-25 17-19 34.5-68t24.5-96q24-159-16-153-9 1-20 11l-13 12-27-13q-26-12-57-13zm-30 51q24-11 68 1 33 9 43 28 6 12 5 44 0 32-4 36-2 2-4 2-9 0-61-33-50-32-55-36-22-14-20-22.5t28-19.5z"/><glyph glyph-name="atilde" unicode="ã" horiz-adv-x="341" d="M197 474q-25 2-35 7-14 8-38 30-22 21-34 24-5 2-8 0-1-1-6-8-5-12-5-26 0-15-9-21-4-3-10-3-4 1-9 6-12 12-10 37 2 24 15 39 32 35 78 12 18-9 39-28 15-17 40-23 19 0 20 19 1 2 1.5 10t1.5 11q3 9 10 15 22 7 27-5 4-9 2-32-2-32-21-47-19-17-49-17zM149 61q-30-2-47 2-45 8-62 44-13 27 8 52 12 13 51.5 42t74.5 50q33 19 37 26t-8 32q-9 22-22 33-10 8-14 9.5t-17 .5q-18-1-44-17-38-24-50-16-5 3-9 16t-2 19q2 7 33.5 23.5T131 400q19 6 35 6 35 0 57-25 17-19 34.5-68t24.5-96q24-159-16-153-9 1-20 11l-13 12-27-13q-26-12-57-13zm-30 51q24-11 68 1 33 9 43 28 6 12 5 44 0 32-4 36-2 2-4 2-9 0-61-33-50-32-55-36-22-14-20-22.5t28-19.5z"/><glyph glyph-name="adieresis" unicode="ä" horiz-adv-x="340" d="M208 519q-24-4-26 25-1 8-1 27 0 37 20 43 16 4 26-18 7-16 4-57-1-7-8-12-5-4-15-8zm-92 0q-21-4-24 9l-2 16q-1 8-1 27 0 25 1 31 2 6 4 7 29 11 41-17 7-15 4-53-1-7-8-12-5-4-15-8zm32-458q-30-2-47 2-45 8-62 44-13 27 8 52 12 13 51.5 42t74.5 50q33 19 37 26t-8 32q-9 22-22 33-10 8-14 9.5t-17 .5q-18-1-44-17-38-24-50-16-5 3-9 16t-2 19q2 7 33.5 23.5T130 400q20 6 35 6 35 0 57-25 17-19 34.5-68t24.5-96q24-159-16-153-9 1-20 11l-13 12-27-13q-26-12-57-13zm-30 51q24-11 68 1 33 9 43 28 6 12 5 44 0 32-4 36-2 2-4 2-9 0-61-33-50-32-55-36-22-14-20-22.5t28-19.5z"/><glyph glyph-name="aring" unicode="å" horiz-adv-x="340" d="M84 522q-16 36 6 79 9 13 31 26 13 4 29 4 44 0 60-42 18-49-9-89-27-34-61-29.5T84 522zm30 38q0-20 10-30 8-12 18-14.5t17 1.5 13 10q14 18 9 36t-18 24q-19 6-34-1t-15-26zm34-499q-30-2-47 2-45 8-62 44-13 27 8 52 12 13 51.5 42t74.5 50q33 19 37 26t-8 32q-9 22-22 33-10 8-14 9.5t-17 .5q-18-1-44-17-38-24-50-16-5 3-9 16t-2 19q2 7 33.5 23.5T130 400q20 6 35 6 35 0 57-25 17-19 34.5-68t24.5-96q24-159-16-153-9 1-20 11l-13 12-27-13q-26-12-57-13zm-30 51q24-11 68 1 33 9 43 28 6 12 5 44 0 32-4 36-2 2-4 2-9 0-61-33-50-32-55-36-22-14-20-22.5t28-19.5z"/><glyph glyph-name="ae" unicode="æ" horiz-adv-x="553" d="M148 61q-30-2-47 2-45 8-62 44-13 27 8 52 9 10 57 30t69 33q10 6 22 11.5t15.5 8 8 4.5 2.5 8-2.5 10-6.5 18.5-10 26.5q-9 22-22 33-10 8-14 9.5t-17 .5q-18-1-44-17-38-24-50-16-5 3-9 16t-2 19q2 7 33.5 23.5T130 400q20 6 35 6 35 0 57-25 18-21 35-68 28 63 75 91 55 31 101 8 23-12 36-33.5t9-39.5q-5-24-33-42t-87-45q-12-5-18-8-43-15-52-25t0-31q28-74 83-81.5T481 151q10 10 22 9 17-3 17-14 0-6-19.5-24.5T463 93q-72-44-129-27-47 15-70 44-14-14-32-23l-27-13q-26-12-57-13zm160 211q6 2 31 9t42.5 15 28.5 20q14 15 14 30 0 14-7 19-5 4-15 4-22 0-41-12-31-17-53.5-41.5T291 273q2-6 6-5 1 0 11 4zM118 112q24-11 68 1 33 9 43 28 6 12 5 44 0 7-4 11-2 2-4 2-110-40-116-44-22-14-20-22.5t28-19.5z"/><glyph glyph-name="ccedilla" unicode="ç" horiz-adv-x="339" d="M35 170q-4 22-2 57t8 51q26 75 96 115 26 16 56 16 10 0 24-4 23-7 45.5-30t22.5-39q0-10-10-20-8-9-13-8.5T249 319q-25 30-61 33-24 1-38-6-12-7-28-27t-25-39q-8-21-8-55 0-54 19-85 18-28 61-28 45 0 84 32 40 32 51 13 2-4 2-10 0-13-31.5-42.5T220 68q-16-5-47-7l-2-10q-1-7 9-9 42-10 54-50 5-26-12-53t-42-31q-45-8-83 20-28 21-7 32 21 9 39-2 20-13 34.5-12T184-41q5 17-3.5 31T155 5q-16 3-23.5 10.5T126 32l10 29q-12 1-18 3-67 20-83 106z"/><glyph glyph-name="egrave" unicode="è" horiz-adv-x="369" d="M233 452q-14 2-20 6-9 5-23 19l-20 17.5-19 17-15.5 14.5-13.5 15-8.5 14-5.5 16q0 9 2 13 1 1 3 6t4 6q1 1 3 1h2q9-2 18-8 20-15 29-24 44-40 57-50 25-20 26-21 5-5 7-15 5-20-7-26l-5-1h-14zM150 59q-47 15-70.5 44T51 182q-6 68 20.5 127t76.5 88q55 31 101 8 23-12 36-33.5t9-39.5q-6-29-45-64t-93-60q-32-15-41-23t-7-19q4-20 16.5-37.5T150 107q28-10 74.5 2t72.5 35q10 10 22 9 17-3 17-14 0-6-19.5-24.5T279 86q-72-44-129-27zm-26 177q20 8 52 30.5t50 42.5q14 15 14 30 0 14-7 19-5 4-15 4-22 0-41-12-27-15-51.5-54.5T107 237q2-6 6-5 1 0 11 4z"/><glyph glyph-name="eacute" unicode="é" horiz-adv-x="369" d="M134 452l-5 1q-12 6-7 26 2 10 7 15 1 1 26 21 13 10 57 50 9 9 29 24 9 6 18 8h2q2 0 3-1 2-1 4-6t3-6q2-4 2-13-2-10-6-18t-14-19-15.5-16l-23-20.5L191 477q-14-14-23-19-6-4-20-6h-14zm16-393q-47 15-70.5 44T51 182q-6 68 20.5 127t76.5 88q55 31 101 8 23-12 36-33.5t9-39.5q-6-29-45-64t-93-60q-32-15-41-23t-7-19q4-20 16.5-37.5T150 107q28-10 74.5 2t72.5 35q10 10 22 9 17-3 17-14 0-6-19.5-24.5T279 86q-72-44-129-27zm-26 177q20 8 52 30.5t50 42.5q14 15 14 30 0 14-7 19-5 4-15 4-22 0-41-12-27-15-51.5-54.5T107 237q2-6 6-5 1 0 11 4z"/><glyph glyph-name="ecircumflex" unicode="ê" horiz-adv-x="369" d="M85 447q-4-2-12 1-7 7-7 11 1 4 9 15 12 16 61 65 44 44 56 55l9 7 6 5q9 11 17-1l4-5q5-5 10.5-12t7.5-9q15-21 52-62 23-25 24-27 6-8 7-10t3-4v-1q1-1 1-2 0-8-10-16-11-7-21-7-6 0-14 5-3 2-8.5 7t-8.5 8q-23 23-50 58l-18 23-23-25q-42-45-71-66-15-10-24-13zm65-388q-47 15-70.5 44T51 182q-6 68 20.5 127t76.5 88q55 31 101 8 23-12 36-33.5t9-39.5q-6-29-45-64t-93-60q-32-15-41-23t-7-19q4-20 16.5-37.5T150 107q28-10 74.5 2t72.5 35q10 10 22 9 17-3 17-14 0-6-19.5-24.5T279 86q-72-44-129-27zm-26 177q20 8 52 30.5t50 42.5q14 15 14 30 0 14-7 19-5 4-15 4-22 0-41-12-27-15-51.5-54.5T107 237q2-6 6-5 1 0 11 4z"/><glyph glyph-name="edieresis" unicode="ë" horiz-adv-x="369" d="M235 519q-24-4-26 25-1 8-1 27 0 37 20 43 16 4 26-18 7-16 4-57-1-7-8-12-5-4-15-8zm-92 0q-21-4-24 9l-2 16q-1 8-1 27 0 25 1 31 2 6 4 7 29 11 41-17 7-15 4-53-1-7-8-12-5-4-15-8zm7-460q-47 15-70.5 44T51 182q-6 68 20.5 127t76.5 88q55 31 101 8 23-12 36-33.5t9-39.5q-6-29-45-64t-93-60q-32-15-41-23t-7-19q4-20 16.5-37.5T150 107q28-10 74.5 2t72.5 35q10 10 22 9 17-3 17-14 0-6-19.5-24.5T279 86q-72-44-129-27zm-26 177q20 8 52 30.5t50 42.5q14 15 14 30 0 14-7 19-5 4-15 4-22 0-41-12-27-15-51.5-54.5T107 237q2-6 6-5 1 0 11 4z"/><glyph glyph-name="igrave" unicode="ì" horiz-adv-x="222" d="M149 452l-14 1q-4 0-25 14-9 5-23 19l-28 24-25 21.5-14.5 17L10 571q0 9 2 13 1 1 3 6t4 6q1 1 3 1h2q9-2 18-8 20-15 29-24 5-4 43-36.5t40-34.5q5-5 7-15 5-20-7-26zM109 59q-13 1-20.5 9.5t-9.5 17-5 24.5q-3 25-5.5 140.5T69 385q3 23 19 25 14 0 20-24 5-19 10-248 4-79-9-79z"/><glyph glyph-name="iacute" unicode="í" horiz-adv-x="212" d="M63 452l-5 1q-12 6-7 26 2 10 7 15 2 2 40 34.5t43 36.5q9 9 29 24 9 6 18 8h2q2 0 3-1 2-1 4-6t3-6q2-4 2-13-2-12-9.5-22.5t-14.5-17-25-21.5l-28-24q-14-14-23-19-21-14-25-14zm66-393q-13 1-20.5 9.5t-9.5 17-5 24.5q-3 25-5.5 140.5T89 385q3 23 19 25 14 0 20-24 5-19 10-248 4-79-9-79z"/><glyph glyph-name="icircumflex" unicode="î" horiz-adv-x="377" d="M69 447q-4-2-12 1-7 7-7 11 1 4 9 15 12 16 61 65 44 44 56 55l9 7 6 5q9 11 17-1l4-5q5-5 10.5-12t7.5-9q15-21 52-62 22-25 24-27 6-8 7-10t3-4v-1q1-1 1-2 0-8-10-16-11-7-21-7-6 0-14 5-3 2-8.5 7t-8.5 8q-23 23-50 58l-18 23-23-25q-42-45-71-66-15-10-24-13zM199 59q-13 1-20.5 9.5t-9.5 17-5 24.5q-3 24-5.5 140.5T159 385q3 23 19 25 14 0 20-24 5-19 10-248 4-79-9-79z"/><glyph glyph-name="idieresis" unicode="ï" horiz-adv-x="253" d="M169 519q-24-4-26 25-1 8-1 27 0 37 20 43 16 4 26-18 7-16 4-57-1-7-8-12-5-4-15-8zm-92 0q-21-4-24 9l-2 16q-1 8-1 27 0 25 1 31 2 6 4 7 29 11 41-17 7-15 4-53-1-7-8-12-5-4-15-8zm57-460q-13 1-20.5 9.5t-9.5 17-5 24.5q-3 25-5.5 140.5T94 385q3 23 19 25 14 0 20-24 5-19 10-248 4-79-9-79z"/><glyph glyph-name="eth" unicode="ð" horiz-adv-x="383" d="M33 222q0 43 20 87 8 18 28 40.5t37 32.5q19 12 52.5 13t58.5-9q14-7 25-7 1 0-1.5 15.5t-10.5 42-18 49.5l-6-5q-14-14-23-19-6-4-20-6h-14l-5 1q-12 6-7 26 2 10 7 15 1 1 26 21l17 14q-10 16-24 33-40 56-41 58-2 11 7 18 4 4 11 4 44-4 85-79l2 2q9 9 29 24 9 6 18 8h2q2 0 3-1 2-1 4-6t3-6q2-4 2-13-5-27-40-57 24-56 49-145 30-94 23-163T268 82q-34-26-74.5-30t-80 18.5T51 142q-18 41-18 80zm55 29q-8-35 2.5-71t32.5-57q12-11 37-16.5t53.5 1.5 42.5 29q15 22 20.5 59t-5 76-38.5 57q-17 14-31 14-27 0-57-12.5T101 295q-8-24-13-44z"/><glyph glyph-name="ntilde" unicode="ñ" horiz-adv-x="366" d="M221 474q-24 2-35 7-14 8-38 30-22 21-34 24-5 2-8 0-1-1-6-8-5-12-5-26 0-15-9-21-4-3-10-3-4 1-9 6-12 12-10 37 2 24 15 39 32 35 78 12 18-9 39-28 15-17 40-23 19 0 20 19 1 2 1.5 10t1.5 11q3 9 10 15 22 7 27-5 4-9 2-32-2-32-21-47-19-17-49-17zm71-421q-8-4-11-2t-8 13q-5 10-7 108-3 100-7 117-10 35-27 47-17 13-46 2t-54-40q-20-23-25-44.5t-7-91.5q-1-59-4-77T85 57q-6-8-10-7T61 61q-7 13-9 35t-1.5 66.5.5 56.5q-1 138 7 159 8 14 13 18 6 5 15-5 8-12 10-24 2-14 4-14 6 5 13 12 23 22 56 30 22 5 35 5 12 0 34-5 36-8 52-35 27-50 26-180 0-69-5-94.5T292 53z"/><glyph glyph-name="ograve" unicode="ò" horiz-adv-x="343" d="M229 452l-14 1q-4 0-25 14-9 5-23 19l-28 24-25 21.5-14.5 17L90 571q0 9 2 13 1 1 3 6t4 6q1 1 3 1h2q9-2 18-8 20-15 29-24 5-4 43-36.5t40-34.5q5-5 7-15 5-20-7-26zM137 61q-35 10-60.5 36T40 161q-7 21-7 69 0 70 21 105 9 16 29.5 35t40.5 29q45 22 97-3 31-15 53-41t29-54q6-19 7-61.5t-3-61.5q-11-46-38.5-76.5T200 61q-34-9-63 0zm63 46q27 7 45.5 46.5T264 244q0 28-9 47-18 44-44 59-10 6-36 6-24 0-37-6.5T110 323q-40-53-28-117 10-50 29-76 16-21 36.5-26t52.5 3z"/><glyph glyph-name="oacute" unicode="ó" horiz-adv-x="343" d="M110 452l-5 1q-12 6-7 26 2 10 7 15 1 1 26 21 13 10 57 50 9 9 29 24 9 6 18 8h2q2 0 3-1 2-1 4-6t3-6q2-4 2-13-2-10-6-18t-14-19-15.5-16l-23-20.5L167 477q-14-14-23-19-6-4-20-6h-14zm27-391q-35 10-60.5 36T40 161q-7 21-7 69 0 70 21 105 9 16 29.5 35t40.5 29q45 22 97-3 31-15 53-41t29-54q6-19 7-61.5t-3-61.5q-11-46-38.5-76.5T200 61q-34-9-63 0zm63 46q27 7 45.5 46.5T264 244q0 28-9 47-18 44-44 59-10 6-36 6-24 0-37-6.5T110 323q-40-53-28-117 10-50 29-76 16-21 36.5-26t52.5 3z"/><glyph glyph-name="ocircumflex" unicode="ô" horiz-adv-x="343" d="M52 447q-4-2-12 1-7 7-7 11 1 4 9 15 12 16 61 65 44 44 56 55l9 7 6 5q9 11 17-1l5-5 9.5-12 7.5-9q15-21 52-62 23-25 24-27 6-8 7-10t3-4l1-1v-2q0-8-10-16-10-7-21-7-6 0-14 5-3 2-8.5 7t-8.5 8q-23 23-50 58l-18 23-23-25q-42-45-71-66-15-10-24-13zm85-386q-35 10-60.5 36T40 161q-7 21-7 69 0 70 21 105 9 16 29.5 35t40.5 29q45 22 97-3 31-15 53-41t29-54q6-19 7-61.5t-3-61.5q-11-46-38.5-76.5T200 61q-34-9-63 0zm63 46q27 7 45.5 46.5T264 244q0 28-9 47-18 44-44 59-10 6-36 6-24 0-37-6.5T110 323q-40-53-28-117 10-50 29-76 16-21 36.5-26t52.5 3z"/><glyph glyph-name="otilde" unicode="õ" horiz-adv-x="343" d="M219 474q-24 2-35 7-14 8-38 30-22 21-34 24-5 2-8 0-1-1-6-8-5-12-5-26 0-15-9-21-4-3-10-3-4 1-9 6-12 12-10 37 2 24 15 39 32 35 78 12 18-9 39-28 15-17 40-23 19 0 20 19 1 2 1.5 10t1.5 11q3 9 10 15 22 7 27-5 4-9 2-32-2-32-21-47-19-17-49-17zM137 61q-35 10-60.5 36T40 161q-7 21-7 69 0 70 21 105 9 16 29.5 35t40.5 29q45 22 97-3 31-15 53-41t29-54q6-19 7-61.5t-3-61.5q-11-46-38.5-76.5T200 61q-34-9-63 0zm63 46q27 7 45.5 46.5T264 244q0 28-9 47-18 44-44 59-10 6-36 6-24 0-37-6.5T110 323q-40-53-28-117 10-50 29-76 16-21 36.5-26t52.5 3z"/><glyph glyph-name="odieresis" unicode="ö" horiz-adv-x="343" d="M208 519q-24-4-26 25-1 8-1 27 0 37 20 43 16 4 26-18 7-16 4-57-1-7-8-12-5-4-15-8zm-92 0q-21-4-24 9l-2 16q-1 8-1 27 0 25 1 31 2 6 4 7 29 11 41-17 7-15 4-53-1-7-8-12-5-4-15-8zm21-458q-35 10-60.5 36T40 161q-7 21-7 69 0 70 21 105 9 16 29.5 35t40.5 29q45 22 97-3 31-15 53-41t29-54q6-19 7-61.5t-3-61.5q-11-46-38.5-76.5T200 61q-34-9-63 0zm63 46q27 7 45.5 46.5T264 244q0 28-9 47-18 44-44 59-10 6-36 6-24 0-37-6.5T110 323q-40-53-28-117 10-50 29-76 16-21 36.5-26t52.5 3z"/><glyph glyph-name="oslash" unicode="ø" horiz-adv-x="343" d="M33 230q0 70 21 105 9 16 29.5 35t40.5 29q45 22 97-3l5-3q13 22 27 22 13 0 18-6t-8-42q31-31 40-66 6-19 7-61.5t-3-61.5q-11-46-38.5-76.5T200 61q-34-9-63 0-5 1-15 5l-4-8q-5-8-24.5-11.5T69 49q-5 5-3.5 20T73 91l4 5q-25 25-37 65-7 21-7 69zm49-24q6-35 20-62l54 112 50 97q-10 3-31 3-24 0-37-6.5T110 323q-40-53-28-117zm58-100q22-8 60 1 27 7 45.5 46.5T264 244q0 28-9 47-8 18-13 26-15-34-33-68-12-24-21.5-48T172 166q-1-3-13.5-25T140 106z"/><glyph glyph-name="ugrave" unicode="ù" horiz-adv-x="360" d="M234 452l-14 1q-4 0-25 14-9 5-23 19l-28 24-25 21.5-14.5 17L95 571q0 9 2 13 1 1 3 6t4 6q1 1 3 1h2q9-2 18-8 20-15 29-24 5-4 43-36.5t40-34.5q5-5 7-15 5-20-7-26zM145 59q-63 17-78 68-11 41-16 147-5 108 7 128 6 8 19 7 16-1 20-13.5t7-76.5q4-123 12-158.5t33-49.5q17-9 42-9 44 1 54 23 9 17 11 44.5t3 117.5v29l.5 36 2.5 30 6 23q8 6 18 6t16-7q6-6 8-71 2-100-10-172t-34-87q-20-15-55-19t-66 4z"/><glyph glyph-name="uacute" unicode="ú" horiz-adv-x="360" d="M120 452l-5 1q-12 6-7 26 2 10 7 15 1 1 26 21 13 10 57 50 9 9 29 24 9 6 18 8h2q2 0 3-1 2-1 4-6t3-6q2-4 2-13-2-10-6-18t-14-19-15.5-16l-23-20.5L177 477q-14-14-23-19-6-4-20-6h-14zm25-393q-63 17-78 68-11 41-16 147-5 108 7 128 6 8 19 7 16-1 20-13.5t7-76.5q4-123 12-158.5t33-49.5q17-9 42-9 44 1 54 23 9 17 11 44.5t3 117.5v29l.5 36 2.5 30 6 23q8 6 18 6t16-7q6-6 8-71 2-100-10-172t-34-87q-20-15-55-19t-66 4z"/><glyph glyph-name="ucircumflex" unicode="û" horiz-adv-x="360" d="M64 447q-4-2-12 1-7 7-7 11 1 4 9 15 12 16 61 65 44 44 56 55l9 7 6 5q9 11 17-1l5-5 9.5-12 7.5-9q15-21 52-62 22-25 24-27 6-8 7-10t3-4l1-1v-2q0-8-10-16-10-7-21-7-6 0-14 5-3 2-8.5 7t-8.5 8q-23 23-50 58l-18 23-23-25q-42-45-71-66-15-10-24-13zm81-388q-63 17-78 68-11 41-16 147-5 108 7 128 6 8 19 7 16-1 20-13.5t7-76.5q4-123 12-158.5t33-49.5q17-9 42-9 44 1 54 23 9 17 11 44.5t3 117.5v29l.5 36 2.5 30 6 23q8 6 18 6t16-7q6-6 8-71 2-100-10-172t-34-87q-20-15-55-19t-66 4z"/><glyph glyph-name="udieresis" unicode="ü" horiz-adv-x="360" d="M224 519q-24-4-26 25-1 8-1 27 0 37 20 43 16 4 26-18 7-16 4-57-1-7-8-12-5-4-15-8zm-92 0q-21-4-24 9l-2 16q-1 8-1 27 0 25 1 31 2 6 4 7 29 11 41-17 7-15 4-53-1-7-8-12-5-4-15-8zm13-460q-63 17-78 68-11 41-16 147-5 108 7 128 6 8 19 7 16-1 20-13.5t7-76.5q4-123 12-158.5t33-49.5q17-9 42-9 44 1 54 23 9 17 11 44.5t3 117.5v29l.5 36 2.5 30 6 23q8 6 18 6t16-7q6-6 8-71 2-100-10-172t-34-87q-20-15-55-19t-66 4z"/><glyph glyph-name="yacute" unicode="ý" horiz-adv-x="325" d="M110 452l-5 1q-12 6-7 26 2 10 7 15 1 1 26 21 13 10 57 50 9 9 29 24 9 6 18 8h2q2 0 3-1 2-1 4-6t3-6q2-4 2-13-2-10-6-18t-14-19-15.5-16l-23-20.5L167 477q-14-14-23-19-6-4-20-6h-14zM58-229Q45-210 94-58l42 134q4 13-5 36-6 19-39 93-30 64-39 90-2 8-18 47-12 29-12 50t6 23q5 3 10-4 25-35 55-107 24-52 45-91t26-39q7 0 54 123 26 67 41.5 93.5T289 417q4 0 8-2 8-5 2.5-26T266 292q-21-55-51-148L175 22q-11-28-40-123-37-117-49-127-6-5-15.5-5.5T58-229z"/><glyph glyph-name="thorn" unicode="þ" horiz-adv-x="312" d="M54-187q-4 5-4 27T51-1q3 238 0 319-3 90 1 206.5T71 650q21 12 28-28 5-25 4-144-1-53 6-53 31 0 62-13.5t51-34.5q35-39 49-86 9-32 8-75.5T267 149q-14-32-47.5-58T151 56q-19-4-34-9l-15-5-1-105q-1-90-6-105-6-16-19.5-22.5T54-187zm46 273q15 5 33 10 29 9 42 16.5t25 21.5q15 17 20 36t5 56-5 51.5-25 38.5q-39 44-75 49-3 1-7 1-10-1-12-24.5T99 215q0-129 1-129z"/><glyph glyph-name="ydieresis" unicode="ÿ" horiz-adv-x="325" d="M208 519q-24-4-26 25-1 8-1 27 0 37 20 43 16 4 26-18 7-16 4-57-1-7-8-12-5-4-15-8zm-92 0q-21-4-24 9l-2 16q-1 8-1 27 0 25 1 31 2 6 4 7 29 11 41-17 7-15 4-53-1-7-8-12-5-4-15-8zM58-229Q45-210 94-58l42 134q4 13-5 36-6 19-39 93-30 64-39 90-2 8-18 47-12 29-12 50t6 23q5 3 10-4 25-35 55-107 24-52 45-91t26-39q7 0 54 123 26 67 41.5 93.5T289 417q4 0 8-2 8-5 2.5-26T266 292q-21-55-51-148L175 22q-11-28-40-123-37-117-49-127-6-5-15.5-5.5T58-229z"/><glyph glyph-name="Amacron" unicode="Ā" horiz-adv-x="469" d="M288 753q-36 0-53 1-8 0-24.5.5T187 756q-34 0-38 13-3 32 24 32 7 1 19 1h71q110 0 111-20 0-7-1.5-11.5t-6.5-7-8-3.5-10-2.5-8-1.5q-17-3-52-3zM408 45q-13 9-33 83-50 187-53 190-2 2-62 9-48 6-68 10-11 2-17-7t-18-43q-25-68-42-109-9-21-21.5-54.5T78 84Q51 28 38 44l-2 2q-5 5-4 32 0 28 9 58.5T80 238q22 52 55 146l53 152 39 117q11 37 13 41 4 9 19 9 1 0 3-.5t3-.5q14-6 19-43t25-99q22-71 33-113 15-60 30-68 14-10 10-31-5-24 23-122 40-142 30-164-5-11-13-17-6-5-14 0zM275 381q34 1 34 4-5 13-26.5 90T261 555q0 4-4 10-1 2-3 2t-14-26q-12-27-27.5-76.5T197 404q0-13 16-18t62-5z"/><glyph glyph-name="amacron" unicode="ā" horiz-adv-x="340" d="M175 471q-35 0-53 1-8 0-24.5.5T74 474q-34 0-38 13-3 32 24 32 7 1 19 1h71q110 0 111-20 0-7-1.5-11.5t-6.5-7-8-3.5-10-2.5-8-1.5q-17-3-52-3zM148 61q-30-2-47 2-45 8-62 44-13 27 8 52 12 13 51.5 42t74.5 50q33 19 37 26t-8 32q-9 22-22 33-10 8-14 9.5t-17 .5q-18-1-44-17-38-24-50-16-5 3-9 16t-2 19q2 7 33.5 23.5T130 400q20 6 35 6 35 0 57-25 17-19 34.5-68t24.5-96q24-159-16-153-9 1-20 11l-13 12-27-13q-26-12-57-13zm-30 51q24-11 68 1 33 9 43 28 6 12 5 44 0 32-4 36-2 2-4 2-9 0-61-33-50-32-55-36-22-14-20-22.5t28-19.5z"/><glyph glyph-name="Abreve" unicode="Ă" horiz-adv-x="469" d="M223 729q-30 7-57 41-15 20-17 34-5 25 7 35 6 4 8 4 4 1 9-2 7-4 18-23 29-47 65-47 39-2 62 55 3 9 12 16 6 5 16 5 1 1 2 1l1-1q7 0 9-1 8-6 6-10 3-45-41-82-45-38-100-25zM408 45q-13 9-33 83-50 187-53 190-2 2-62 9-48 6-68 10-11 2-17-7t-18-43q-25-68-42-109-9-21-21.5-54.5T78 84Q51 28 38 44l-2 2q-5 5-4 32 0 28 9 58.5T80 238q22 52 55 146l53 152 39 117q11 37 13 41 4 9 19 9 1 0 3-.5t3-.5q14-6 19-43t25-99q22-71 33-113 15-60 30-68 14-10 10-31-5-24 23-122 40-142 30-164-5-11-13-17-6-5-14 0zM275 381q34 1 34 4-5 13-26.5 90T261 555q0 4-4 10-1 2-3 2t-14-26q-12-27-27.5-76.5T197 404q0-13 16-18t62-5z"/><glyph glyph-name="abreve" unicode="ă" horiz-adv-x="340" d="M124 470q-29 8-54 39-13 16-16 32-4 24 6 34 1 0 3.5 1.5T68 578q3 1 9-2 7-3 17-21 27-45 62-45 38-2 59 52 3 10 11 15 6 5 15 5 1 1 2 1l1-1q6 0 9-1 2-1 4.5-4t1.5-5q2-44-39-78-45-38-96-24zm24-409q-30-2-47 2-45 8-62 44-13 27 8 52 12 13 51.5 42t74.5 50q33 19 37 26t-8 32q-9 22-22 33-10 8-14 9.5t-17 .5q-18-1-44-17-38-24-50-16-5 3-9 16t-2 19q2 7 33.5 23.5T130 400q20 6 35 6 35 0 57-25 17-19 34.5-68t24.5-96q24-159-16-153-9 1-20 11l-13 12-27-13q-26-12-57-13zm-30 51q24-11 68 1 33 9 43 28 6 12 5 44 0 32-4 36-2 2-4 2-9 0-61-33-50-32-55-36-22-14-20-22.5t28-19.5z"/><glyph glyph-name="Aogonek" unicode="Ą" horiz-adv-x="600" d="M32 78q0 28 9 58.5T80 238q22 52 55 146l53 152 39 117q11 37 13 41 4 9 19 9 1 0 3-.5t3-.5q14-6 19-43t25-99q22-71 33-113 15-60 30-68 14-10 10-31-5-24 23-122 40-142 30-164l-1-2q-4-11-19-30-27-32-13-57 22-34 48-6 14 15 34 11 21-4-3-30-11-12-19.5-19t-20-13.5T418-90t-24 10q-48 34-45 80 3 32 15 51 6 9 15 20 7 10 7 19l-11 38q-50 187-53 190-2 2-62 9-48 6-68 10-11 2-17-7t-18-43q-25-68-42-109-9-21-21.5-54.5T78 84Q51 28 38 44l-2 2q-5 5-4 32zm165 326q0-13 16-18t62-5q34 1 34 4-5 13-26.5 90T261 555q0 4-4 10-1 2-3 2t-14-26q-12-27-27.5-76.5T197 404z"/><glyph glyph-name="aogonek" unicode="ą" horiz-adv-x="342" d="M39 107q-13 27 8 52 12 13 51.5 42t74.5 50q33 19 37 26t-8 32q-9 22-22 33-10 8-14 9.5t-17 .5q-18-1-44-17-38-24-50-16-5 3-9 16t-2 19q2 7 33.5 23.5T130 400q20 6 35 6 35 0 57-25 17-19 34.5-68t24.5-96l8-46.5 7.5-42.5 2.5-29.5-5-22.5q-5-8-17.5-20.5l-20.5-21L242 11l4-28q22-34 48-6 14 15 34 11 21-4-3-30-11-12-19.5-19t-20-13.5T262-80t-24 10q-48 34-45 80 1 15 8.5 27.5T232 81q-52-18-84-20-30-2-47 2-45 8-62 44zm71 47q-22-14-20-22.5t28-19.5q24-11 68 1 33 9 43 28 6 12 5 44 0 32-4 36-2 2-4 2-9 0-61-33-50-32-55-36z"/><glyph glyph-name="Cacute" unicode="Ć" horiz-adv-x="466" d="M203 731l-5 1q-12 6-7 26 2 10 7 15 1 1 26 21 13 10 57 50 9 9 29 24 9 6 18 8h2q2 0 3-1 2-1 4-6t3-6q2-4 2-13-2-10-6-18t-14-19-15.5-16l-23-20.5L260 756q-14-14-23-19-6-4-20-6h-14zm9-676q-28 7-63 49-34 41-48.5 92T82 337q-3 77 17 161 15 65 38.5 106t64.5 75q42 34 75 41 13 3 25 3 66 0 95-65 24-57-8-57-9 0-36 31-29 33-45 38.5t-44-9.5q-77-43-104-142-12-45-18.5-112T139 302q7-71 26-115 13-29 40-51.5t53-26.5q23-6 66 14 9 3 51 29 36 22 43 20 8-4 7.5-13.5t-11-24.5-27.5-30q-39-34-74-44-16-4-52-6t-49 1z"/><glyph glyph-name="cacute" unicode="ć" horiz-adv-x="339" d="M110 452l-5 1q-12 6-7 26 2 10 7 15 1 1 26 21 13 10 57 50 9 9 29 24 9 6 18 8h2q2 0 3-1 2-1 4-6t3-6q2-4 2-13-2-10-6-18t-14-19-15.5-16l-23-20.5L167 477q-14-14-23-19-6-4-20-6h-14zm8-388Q51 84 35 170q-4 22-2 57t8 51q26 75 96 115 26 16 56 16 10 0 24-4 23-7 45.5-30t22.5-39q0-10-10-20-8-9-13-8.5T249 319q-25 30-61 33-24 1-38-6-12-7-28-27t-25-39q-8-21-8-55 0-54 19-85 18-28 61-28 45 0 84 32 40 32 51 13 2-4 2-10 0-13-31.5-42.5T220 68q-15-5-51-6.5T118 64z"/><glyph glyph-name="Cdotaccent" unicode="Ċ" horiz-adv-x="466" d="M257 818q0 37 20 43 16 4 26-18 7-16 4-57-1-7-8-12-5-4-15-8-24-4-26 25-1 8-1 27zM212 55q-28 7-63 49-34 41-48.5 92T82 337q-3 77 17 161 15 65 38.5 106t64.5 75q42 34 75 41 13 3 25 3 66 0 95-65 24-57-8-57-9 0-36 31-29 33-45 38.5t-44-9.5q-77-43-104-142-12-45-18.5-112T139 302q7-71 26-115 13-29 40-51.5t53-26.5q23-6 66 14 9 3 51 29 36 22 43 20 8-4 7.5-13.5t-11-24.5-27.5-30q-39-34-74-44-16-4-52-6t-49 1z"/><glyph glyph-name="cdotaccent" unicode="ċ" horiz-adv-x="339" d="M178 472q-24-4-26 25-1 8-1 27 0 37 20 43 16 4 26-18 7-16 4-57-1-7-8-12-5-4-15-8zM118 64Q51 84 35 170q-4 22-2 57t8 51q26 75 96 115 26 16 56 16 10 0 24-4 23-7 45.5-30t22.5-39q0-10-10-20-8-9-13-8.5T249 319q-25 30-61 33-24 1-38-6-12-7-28-27t-25-39q-8-21-8-55 0-54 19-85 18-28 61-28 45 0 84 32 40 32 51 13 2-4 2-10 0-13-31.5-42.5T220 68q-15-5-51-6.5T118 64z"/><glyph glyph-name="Ccaron" unicode="Č" horiz-adv-x="466" d="M406 889q4 2 12-1 7-7 7-11-1-4-9-15-12-16-47-51-44-44-56-55l-9-7-6-5q-9-11-17 1l-5 5-9.5 12-7.5 9q-16 22-42 51-22 25-24 27-6 8-7 10t-3 4q0 1-1 3 0 8 10 16 10 7 21 7 6 0 14-5 3-2 8.5-7t8.5-8q17-17 40-47l18-23 23 25q28 31 57 52 15 10 24 13zM212 55q-28 7-63 49-34 41-48.5 92T82 337q-3 77 17 161 15 65 38.5 106t64.5 75q42 34 75 41 13 3 25 3 66 0 95-65 24-57-8-57-9 0-36 31-29 33-45 38.5t-44-9.5q-77-43-104-142-12-45-18.5-112T139 302q7-71 26-115 13-29 40-51.5t53-26.5q23-6 66 14 9 3 51 29 36 22 43 20 8-4 7.5-13.5t-11-24.5-27.5-30q-39-34-74-44-16-4-52-6t-49 1z"/><glyph glyph-name="ccaron" unicode="č" horiz-adv-x="346" d="M186 444q-9-11-17 1l-5 5-9.5 12-7.5 9q-16 22-42 51-23 25-24 27-6 8-7 10t-3 4q0 1-1 3 0 8 10 16 10 7 21 7 6 0 14-5 3-2 8.5-7t8.5-8q17-17 40-47l18-23 23 25q28 31 57 52 15 10 24 13 4 2 12-1 7-7 7-11-1-4-9-15-12-16-47-51-44-44-56-55l-9-7-6-5zM118 64Q51 84 35 170q-4 22-2 57t8 51q26 75 96 115 26 16 56 16 10 0 24-4 23-7 45.5-30t22.5-39q0-10-10-20-8-9-13-8.5T249 319q-25 30-61 33-24 1-38-6-12-7-28-27t-25-39q-8-21-8-55 0-54 19-85 18-28 61-28 45 0 84 32 40 32 51 13 2-4 2-10 0-13-31.5-42.5T220 68q-15-5-51-6.5T118 64z"/><glyph glyph-name="Dcaron" unicode="Ď" horiz-adv-x="480" d="M306 889q4 2 12-1 7-7 7-11-1-4-9-15-12-16-47-51-44-44-56-55l-9-7-6-5q-9-11-17 1l-5 5-9.5 12-7.5 9q-16 22-42 51-22 25-24 27-6 8-7 10t-3 4q0 1-1 3 0 8 10 16 10 7 21 7 6 0 14-5 3-2 8.5-7t8.5-8q17-17 40-47l18-23 23 25q28 31 57 52 15 10 24 13zM195 48q-46-1-62 3-21 6-28 16t-8 37q-1 42-2 307t0 273q6 16 25 18h1q15-2 26-8 24-13 89.5-79T334 507q41-54 70-122.5T438 268q7-67-41-126T268 58q-29-9-73-10zm-30 42q43 9 51 10 91 15 133 66 29 35 31 84 3 24-1 44-10 50-51 115-40 63-93 128.5T154 619l-9 5V520q0-10 4-186 3-132 3-159 0-80 3-82 2-5 10-3z"/><glyph glyph-name="dcaron" unicode="ď" horiz-adv-x="444" d="M389 461l-4-1q-5-2-11.5 2.5T364 474q-5 9-4 15 4 23 6 31 12 39 21 97 1 11 6 35 2 10 8 17l2 1h1q1 1 2 1 1 1 3 0l5-2.5 4-1.5q4-2 10-8 5-10 5-28t-2.5-33-8-42.5T415 515q-2-20-5-28-1-4-10-17zM131 54q-19 8-43 35t-37 53q-18 41-18 80 0 43 20 87 8 18 28 40.5t37 32.5q19 12 52.5 13t58.5-9q14-7 25-7 8 0 10 2t6 15q5 18 8 75 0 15 2 59t3 62q4 63 6 70 5 9 16 9 7 0 11-4 5-7 6-300 0-297-2-301-2-7-16-7-13 0-19 5.5T275 85l-4 14-23-17q-28-22-61-30t-56 2zm108 66l33 17-2 33q-6 113-10 123-13 26-39 46-18 14-31 14-42 0-80-62-8-24-13-44-16-73 26-114 31-30 52.5-32.5T239 120z"/><glyph glyph-name="Dcroat" unicode="Đ" horiz-adv-x="470" d="M17 330q-3 32 24 32 7 1 19 1h25v321q6 16 25 18h1q15-2 26-8 24-13 89.5-79T324 507q41-54 70-122.5T428 268q7-67-41-126T258 58q-29-9-73-10-46-1-62 3-21 6-28 16t-8 37l-1 212q-22 0-31 1-34 0-38 13zm118 190q0-19 3-157 103 0 104-20 0-7-1.5-11.5t-6.5-7-8-3.5-10-2.5-8-1.5q-17-3-52-3h-17q3-66 3-139 0-80 3-82 2-5 10-3 43 9 51 10 91 15 133 66 29 35 31 84 3 24-1 44-10 50-51 115-40 63-93 128.5T144 619l-9 5V520z"/><glyph glyph-name="dcroat" unicode="đ" horiz-adv-x="409" d="M33 222q0 43 20 87 8 18 28 40.5t37 32.5q19 12 52.5 13t58.5-9q14-7 25-7 8 0 10 2t6 15q5 18 8 75v5q-17 0-38 1-8 0-24.5.5T192 479q-34 0-38 13-3 32 24 32 7 1 19 1h83l3 67q4 63 6 70 5 9 16 9 7 0 11-4 4-7 5-144 57-4 58-18 0-7-1.5-11.5t-6.5-7-8-3.5-10-2.5-8-1.5q-14-2-23-2V367q0-297-2-301-2-7-16-7-13 0-19 5.5T275 85l-4 14-23-17q-28-22-61-30t-56 2q-19 8-43 35t-37 53q-18 41-18 80zm64 25q-16-73 26-114 31-30 52.5-32.5T239 120l33 17-2 33q-6 113-10 123-13 26-39 46-18 14-31 14-42 0-80-62-8-24-13-44z"/><glyph glyph-name="Emacron" unicode="Ē" horiz-adv-x="402" d="M250 753q-36 0-53 1-8 0-24.5.5T149 756q-34 0-38 13-3 32 24 32 7 1 19 1h71q110 0 111-20 0-7-1.5-11.5t-6.5-7-8-3.5-10-2.5-8-1.5q-17-3-52-3zM101 48q-1 0-2 1-3 0-4 1-16 7-12 49 3 27 1 269-1 129-1 267 0 36 5.5 48t24.5 16q51 11 167 11 70 0 78-12 4-6 2.5-14.5T352 671q-7-1-83-5-107-4-132-13-8-2-7-15 4-173 5-189l2-30 86-1q84-2 91-6 11-6 6-23-5-12-18.5-14.5T223 371l-81-1-1-20q-10-207-4-240l3-9h96q76 0 95.5-2.5T353 86q2-19-14-28-11-5-105-6-105-2-115-3-6-1-18-1z"/><glyph glyph-name="emacron" unicode="ē" horiz-adv-x="369" d="M221 471q-35 0-53 1-8 0-24.5.5T120 474q-34 0-38 13-3 32 24 32 7 1 19 1h71q110 0 111-20 0-7-1.5-11.5t-6.5-7-8-3.5-10-2.5-8-1.5q-17-3-52-3zM150 59q-47 15-70.5 44T51 182q-6 68 20.5 127t76.5 88q55 31 101 8 23-12 36-33.5t9-39.5q-6-29-45-64t-93-60q-32-15-41-23t-7-19q4-20 16.5-37.5T150 107q28-10 74.5 2t72.5 35q10 10 22 9 17-3 17-14 0-6-19.5-24.5T279 86q-72-44-129-27zm-26 177q20 8 52 30.5t50 42.5q14 15 14 30 0 14-7 19-5 4-15 4-22 0-41-12-27-15-51.5-54.5T107 237q2-6 6-5 1 0 11 4z"/><glyph glyph-name="Edotaccent" unicode="Ė" horiz-adv-x="402" d="M192 807q0 37 20 43 16 4 26-18 7-16 4-57-1-7-8-12-5-4-15-8-24-4-26 25-1 8-1 27zM101 48q-1 0-2 1-3 0-4 1-16 7-12 49 3 27 1 269-1 129-1 267 0 36 5.5 48t24.5 16q51 11 167 11 70 0 78-12 4-6 2.5-14.5T352 671q-7-1-83-5-107-4-132-13-8-2-7-15 4-173 5-189l2-30 86-1q84-2 91-6 11-6 6-23-5-12-18.5-14.5T223 371l-81-1-1-20q-10-207-4-240l3-9h96q76 0 95.5-2.5T353 86q2-19-14-28-11-5-105-6-105-2-115-3-6-1-18-1z"/><glyph glyph-name="edotaccent" unicode="ė" horiz-adv-x="369" d="M190 472q-24-4-26 25-1 8-1 27 0 37 20 43 16 4 26-18 7-16 4-57-1-7-8-12-5-4-15-8zM150 59q-47 15-70.5 44T51 182q-6 68 20.5 127t76.5 88q55 31 101 8 23-12 36-33.5t9-39.5q-6-29-45-64t-93-60q-32-15-41-23t-7-19q4-20 16.5-37.5T150 107q28-10 74.5 2t72.5 35q10 10 22 9 17-3 17-14 0-6-19.5-24.5T279 86q-72-44-129-27zm-26 177q20 8 52 30.5t50 42.5q14 15 14 30 0 14-7 19-5 4-15 4-22 0-41-12-27-15-51.5-54.5T107 237q2-6 6-5 1 0 11 4z"/><glyph glyph-name="Eogonek" unicode="Ę" horiz-adv-x="411" d="M311-75q-48 34-45 80 4 31 14 48l-46-1q-105-2-115-3-6-1-18-1-1 0-2 1-3 0-4 1-16 7-12 49 3 27 1 269-1 129-1 267 0 36 5.5 48t24.5 16q51 11 167 11 70 0 78-12 4-6 2.5-14.5T352 671q-7-1-83-5-107-4-132-13-8-2-7-15 4-173 5-189l2-30 86-1q84-2 91-6 11-6 6-23-5-12-18.5-14.5T223 371l-81-1-1-20q-10-207-4-240l3-9h96q76 0 95.5-2.5T353 86v-4q5-18-21-47-27-32-13-57 22-34 48-6 14 15 34 11 21-4-3-30-11-12-19.5-19t-20-13.5T335-85t-24 10z"/><glyph glyph-name="eogonek" unicode="ę" horiz-adv-x="369" d="M182-59q-51 37-45 80 4 26 13 38-5 1-10 3t-8 4l-4 1Q60 98 51 182q-6 68 20.5 127t76.5 88q55 31 101 8 23-12 36-33.5t9-39.5q-6-29-45-64t-93-60q-32-15-41-23t-7-19q4-20 16.5-37.5T150 107q28-10 74.5 2t72.5 35q10 10 22 9 17-3 17-14 0-6-15.5-21.5T287 91q-20-13-54.5-24.5T194 51q-21-26-4-57 22-34 48-6 14 15 34 11 21-4-3-30-11-12-19.5-19t-20-13.5T206-69t-24 10zm-58 295q20 8 52 30.5t50 42.5q14 15 14 30 0 14-7 19-5 4-15 4-22 0-41-12-27-15-51.5-54.5T107 237q2-6 6-5 1 0 11 4z"/><glyph glyph-name="Ecaron" unicode="Ě" horiz-adv-x="402" d="M334 889q4 2 12-1 7-7 7-11-1-4-9-15-12-16-47-51-44-44-56-55l-9-7-6-5q-9-11-17 1l-5 5-9.5 12-7.5 9q-16 22-42 51-22 25-24 27-6 8-7 10t-3 4q0 1-1 3 0 8 10 16 10 7 21 7 6 0 14-5 3-2 8.5-7t8.5-8q17-17 40-47l18-23 23 25q28 31 57 52 15 10 24 13zM101 48q-1 0-2 1-3 0-4 1-16 7-12 49 3 27 1 269-1 129-1 267 0 36 5.5 48t24.5 16q51 11 167 11 70 0 78-12 4-6 2.5-14.5T352 671q-7-1-83-5-107-4-132-13-8-2-7-15 4-173 5-189l2-30 86-1q84-2 91-6 11-6 6-23-5-12-18.5-14.5T223 371l-81-1-1-20q-10-207-4-240l3-9h96q76 0 95.5-2.5T353 86q2-19-14-28-11-5-105-6-105-2-115-3-6-1-18-1z"/><glyph glyph-name="ecaron" unicode="ě" horiz-adv-x="369" d="M196 444q-9-11-17 1l-5 5-9.5 12-7.5 9q-16 22-42 51-22 25-24 27-6 8-7 10t-3 4q0 1-1 3 0 8 10 16 10 7 21 7 6 0 14-5 3-2 8.5-7t8.5-8q17-17 40-47l18-23 23 25q28 31 57 52 15 10 24 13 4 2 12-1 7-7 7-11-1-4-9-15-12-16-47-51-44-44-56-55l-9-7-6-5zM150 59q-47 15-70.5 44T51 182q-6 68 20.5 127t76.5 88q55 31 101 8 23-12 36-33.5t9-39.5q-6-29-45-64t-93-60q-32-15-41-23t-7-19q4-20 16.5-37.5T150 107q28-10 74.5 2t72.5 35q10 10 22 9 17-3 17-14 0-6-19.5-24.5T279 86q-72-44-129-27zm-26 177q20 8 52 30.5t50 42.5q14 15 14 30 0 14-7 19-5 4-15 4-22 0-41-12-27-15-51.5-54.5T107 237q2-6 6-5 1 0 11 4z"/><glyph glyph-name="Gbreve" unicode="Ğ" horiz-adv-x="470" d="M261 760q-30 7-57 41-15 20-17 34-5 25 7 35 6 4 8 4 4 1 9-2 7-4 18-23 29-47 65-47 39-2 62 55 3 9 12 16 6 5 16 5 1 1 2 1l1-1q7 0 9-1 8-5 6-10 3-45-41-82-45-38-100-25zM235 53q-70 13-110 60-48 57-59 132-6 39-3.5 137.5T75 529q2 10 23 62 16 38 38 63 35 40 79.5 62.5T303 739q7 0 11-1 44-3 80-39 26-26 21-41-13-34-60 9-21 19-30 22-26 9-71.5-12.5T179 619q-30-37-44-81.5T117 414q-5-86 8.5-159.5T165 154q30-32 75.5-45t74.5 2q20 11 29.5 31t20.5 67q8 36 8 82 0 53-3 63l-2 15-58 2q-113 4-121 23-6 16 4 26 4 4 14.5 5t55.5-1q67-2 87 1 32 4 49-7.5t25-42.5q9-35-2-122-11-85-25-118-12-27-33-49t-42-29q-40-13-87-4z"/><glyph glyph-name="gbreve" unicode="ğ" horiz-adv-x="330" d="M133 470q-29 8-54 39-13 16-16 32-4 24 6 34 1 0 3.5 1.5T77 578q3 1 9-2 7-3 17-21 27-45 62-45 38-2 59 52 3 10 11 15 6 5 15 5 1 1 2 1l1-1q6 0 9-1 2-1 4.5-4t1.5-5q2-44-39-78-45-38-96-24zm23-676q-32 0-51 6-67 18-103 62-14 17-20 37.5T-21-66t15 14q18 0 40-45 13-26 41.5-42.5T138-157q36 0 57 21 38 39 28 133-2 19-5 52-1 13-2.5 16.5t-5.5 3-14-5.5q-52-26-100 0-33 19-51.5 71.5T34 242q13 104 96 154 21 13 46 14h11q14 0 34-11 20-12 38-33 26-32 19-65-12-65-6-196 8-153 2-185-16-84-72-114-17-11-46-12zm20 309q13 5 29 19l15 13-1 93q1 75-2 92.5T198 348q-10 7-18 7-5 0-8-1-14-2-27-9-11-6-30-29.5T89 277q-15-35-9-83.5t29-74.5q29-33 67-16z"/><glyph glyph-name="Gdotaccent" unicode="Ġ" horiz-adv-x="470" d="M260 815q0 37 20 43 16 4 26-18 7-16 4-57-1-7-8-12-5-4-15-8-24-4-26 25-1 8-1 27zM235 53q-70 13-110 60-48 57-59 132-6 39-3.5 137.5T75 529q2 10 23 62 16 38 38 63 35 40 79.5 62.5T303 739q7 0 11-1 44-3 80-39 26-26 21-41-13-34-60 9-21 19-30 22-26 9-71.5-12.5T179 619q-30-37-44-81.5T117 414q-5-86 8.5-159.5T165 154q30-32 75.5-45t74.5 2q20 11 29.5 31t20.5 67q8 36 8 82 0 53-3 63l-2 15-58 2q-113 4-121 23-6 16 4 26 4 4 14.5 5t55.5-1q67-2 87 1 32 4 49-7.5t25-42.5q9-35-2-122-11-85-25-118-12-27-33-49t-42-29q-40-13-87-4z"/><glyph glyph-name="gdotaccent" unicode="ġ" horiz-adv-x="330" d="M175 472q-24-4-26 25-1 8-1 27 0 37 20 43 16 4 26-18 7-16 4-57-1-7-8-12-5-4-15-8zm-19-678q-32 0-51 6-67 18-103 62-14 17-20 37.5T-21-66t15 14q18 0 40-45 13-26 41.5-42.5T138-157q36 0 57 21 38 39 28 133-2 19-5 52-1 13-2.5 16.5t-5.5 3-14-5.5q-52-26-100 0-33 19-51.5 71.5T34 242q13 104 96 154 21 13 46 14h11q14 0 34-11 20-12 38-33 26-32 19-65-12-65-6-196 8-153 2-185-16-84-72-114-17-11-46-12zm20 309q13 5 29 19l15 13-1 93q1 75-2 92.5T198 348q-10 7-18 7-5 0-8-1-14-2-27-9-11-6-30-29.5T89 277q-15-35-9-83.5t29-74.5q29-33 67-16z"/><glyph glyph-name="uni0122" unicode="Ģ" horiz-adv-x="470" d="M235 53q-70 13-110 60-48 57-59 132-6 39-3.5 137.5T75 529q2 10 23 62 16 38 38 63 35 40 79.5 62.5T303 739q7 0 11-1 44-3 80-39 26-26 21-41-13-34-60 9-21 19-30 22-26 9-71.5-12.5T179 619q-30-37-44-81.5T117 414q-5-86 8.5-159.5T165 154q30-32 75.5-45t74.5 2q20 11 29.5 31t20.5 67q8 36 8 82 0 53-3 63l-2 15-58 2q-113 4-121 23-6 16 4 26 4 4 14.5 5t55.5-1q67-2 87 1 32 4 49-7.5t25-42.5q9-35-2-122-11-85-25-118-12-27-33-49t-42-29q-40-13-87-4zm-16-193q-10-7-10 2 0 5 7 28 17 66 17 110 0 13 13 17t22-3q23-28 7-77.5T219-140z"/><glyph glyph-name="uni0123" unicode="ģ" horiz-adv-x="330" d="M163 462q-10-7-10 2 0 5 7 28 17 66 17 110 0 13 13 17t22-3q23-28 7-77.5T163 462zm-7-668q-32 0-51 6-67 18-103 62-14 17-20 37.5T-21-66t15 14q18 0 40-45 13-26 41.5-42.5T138-157q36 0 57 21 38 39 28 133-2 19-5 52-1 13-2.5 16.5t-5.5 3-14-5.5q-52-26-100 0-33 19-51.5 71.5T34 242q13 104 96 154 21 13 46 14h11q14 0 34-11 20-12 38-33 26-32 19-65-12-65-6-196 8-153 2-185-16-84-72-114-17-11-46-12zm20 309q13 5 29 19l15 13-1 93q1 75-2 92.5T198 348q-10 7-18 7-5 0-8-1-14-2-27-9-11-6-30-29.5T89 277q-15-35-9-83.5t29-74.5q29-33 67-16z"/><glyph glyph-name="Hbar" unicode="Ħ" horiz-adv-x="504" d="M32 545q-3 32 24 32 7 1 19 1h10q2 115 11 136 8 17 27 10 16-6 18-81l2-65h3q164 0 215-1v2q-1 110 .5 125.5T376 726l8 2q13 0 19-22 2-9 8-130 77-3 78-15 0-7-1.5-11.5t-6.5-7-8-3.5-10-2.5-8-1.5q-20-3-42-3l1-19 3-60 8-7q11-10 11.5-22T426 406l-9-5 1-62q1-19 4-66.5t4-57.5q7-121-1-142-6-13-19-16 0-1-1-1-12-2-19 4-10 7-13 37.5T370 242q0 154-4 156-2 2-109 2.5T147 399q-2-1 4-252 2-66 0-72-5-11-16-14-1-1-2-1-17-5-27 4-6 9-12 200-1 32-3.5 100.5T87 453l-2 78q-3 0-8 .5t-7 .5q-34 0-38 13zm111-16q0-41 2-63l1-19h76q71 0 107 2l33 2-1 80q-30 0-111.5-1T143 529z"/><glyph glyph-name="hbar" unicode="ħ" horiz-adv-x="362" d="M3 487q-3 32 24 32 7 1 19 1h13q3 134 9 148 7 15 17 13h2q6-3 9-13 5-9 6-148h15q110 0 111-20 0-7-1.5-11.5t-6.5-7-8-3.5-10-2.5-8-1.5q-17-3-52-3h-40l1-105h8q8 0 23 11 10 8 33 21 18 10 43 10 26 0 42-9 18-11 34.5-29.5T310 333q12-29 15-51.5t4-80.5q3-120-18-139-17-17-27 5-5 10-7 97-2 88-5 104-4 19-14 43t-17 32q-8 8-31 8-21 0-31.5-5T154 324q-37-41-50-165-7-73-17-92-8-14-17-14-11 0-13 4-7 9-1 318l2 98q-3 0-9 .5t-8 .5q-34 0-38 13z"/><glyph glyph-name="Imacron" unicode="Ī" horiz-adv-x="252" d="M171 767q-35 0-53 1-8 0-24.5.5T70 770q-34 0-38 13-3 32 24 32 7 1 19 1h71q110 0 111-20 0-7-1.5-11.5t-6.5-7-8-3.5-10-2.5-8-1.5q-17-3-52-3zm-37-47q8 2 11-5 5-6 7-40.5t6-181.5q2-52 2-155.5t1-127.5q2-67-1-119-1-29-9-37-14-16-26-5-10 10-19 79-5 43-1 524v28.5l1 13 3.5 13 6.5 7.5q10 6 18 6z"/><glyph glyph-name="imacron" unicode="ī" horiz-adv-x="335" d="M189 471q-35 0-53 1-8 0-24.5.5T88 474q-34 0-38 13-3 32 24 32 7 1 19 1h71q110 0 111-20 0-7-1.5-11.5t-6.5-7-8-3.5-10-2.5-8-1.5q-17-3-52-3zM174 59q-13 1-20.5 9.5t-9.5 17-5 24.5q-3 24-5.5 140.5T134 385q3 23 19 25 14 0 20-24 5-19 10-248 4-79-9-79z"/><glyph glyph-name="Iogonek" unicode="Į" horiz-adv-x="331" d="M102 3q3 36 30 71 7 10 6 39l-2 15q-5 43-1 524v28.5l1 13 3.5 13 6.5 7.5q11 6 18 6 8 2 11-5 5-6 7-40.5t6-181.5q2-52 2-155.5t1-127.5q2-67-1-119l-1-13q4-19-21-45-27-32-13-57 22-34 48-6 14 15 34 11 21-4-3-30-11-12-19.5-19t-20-13.5T171-87t-24 10Q99-43 102 3z"/><glyph glyph-name="iogonek" unicode="į" horiz-adv-x="600" d="M50 620q0 9 2 12t14 10q18 9 30 9 23 0 20-35-2-19-8-27.5T89 579q-10-1-13.5 1T63 593q-13 14-13 27zM31 0q3 36 30 71 4 5 5.5 29.5T66 128l1-1q-3 50-5 144.5T63 385q3 23 19 25 14 0 20-24 5-20 10-225 4-29-1-70T90 34Q66 5 84-27q22-34 48-6 14 15 34 11 21-4-3-30-11-12-19.5-19t-20-13.5T100-90 76-80Q28-46 31 0z"/><glyph glyph-name="Idotaccent" unicode="İ" horiz-adv-x="245" d="M102 807q0 37 20 43 16 4 26-18 7-16 4-57-1-7-8-12-5-4-15-8-24-4-26 25-1 8-1 27zm30-87q8 2 11-5 5-6 7-40.5t6-181.5q2-52 2-155.5t1-127.5q2-67-1-119-1-29-9-37-14-16-26-5-10 10-19 79-5 43-1 524v28.5l1 13 3.5 13 6.5 7.5q11 6 18 6z"/><glyph glyph-name="dotlessi" unicode="ı" horiz-adv-x="176" d="M103 59q-13 1-20.5 9.5t-9.5 17-5 24.5q-3 25-5.5 140.5T63 385q3 23 19 25 14 0 20-24 5-19 10-248 4-79-9-79z"/><glyph glyph-name="uni0136" unicode="Ķ" horiz-adv-x="464" d="M98 53q-11 5-14 21.5T82 141q4 503 9 537 5 40 24 41 21 3 27-17 5-10 0-33-4-26-4-59 0-128 6-137 5-4 49 48t96 123q36 49 51 66t25 16q4 0 10-3 11-7 11-21 0-8-11-26t-21-28q-6-6-41-52l-72-89q-71-88-71-92t65-86q50-66 88-110 68-79 89-114 10-17 10.5-24.5T416 62q-5-7-16-7t-19 6q-11 8-34 35.5T311 145q-20 28-71.5 93.5T173 320q-18 17-23 19-9 3-11-10-3-17-2-116 1-89-1-118.5T126 57q-4-4-13.5-5.5T98 53zm109-193q-10-7-10 2 0 5 7 28 17 66 17 110 0 13 13 17t22-3q23-28 7-77.5T207-140z"/><glyph glyph-name="uni0137" unicode="ķ" horiz-adv-x="308" d="M62 65q-8 9-11 18-2 9 0 86 3 108 4 244 3 217 11 251 4 15 8 15h4q17-2 22.5-39.5T109 462q4-135 5-149l1-22 12 2q11 2 36 21.5t50 31.5 43 1q17-11-1-32-16-16-44.5-36.5T164 241q-4-3 3-10 13-12 23-23t31-36.5 50-56.5q23-26 9-46-12-18-33-4-5 3-10 9-95 110-123 118-5 1-5-2 0-46-9-100-4-25-15.5-32T62 65zm60-205q-10-7-10 2 0 5 6 28 18 66 18 110 0 13 13 17t22-3q23-28 7-77.5T122-140z"/><glyph glyph-name="Lacute" unicode="Ĺ" horiz-adv-x="374" d="M95 759l-5 1q-12 6-7 26 2 10 7 15 1 1 26 21 6 4 20.5 19l18.5 19q9 9 29 24 9 6 18 8h2q2 0 3-1 2-1 4-6t3-6q2-4 2-13-3-16-11.5-29t-16-20.5T152 784q-14-14-23-19-6-4-20-6H95zm27-699q-2 1-5.5 2t-4.5 2h-2q-5 6-10 325-3 260-12 294-4 25 16 35 2 2 9 5 2 0 8-2 14-9 20-76t10-293q4-186 5-192l2-40 78-1q81-1 92-7 14-8 14.5-22.5T329 67q-12-5-99.5-8T122 60z"/><glyph glyph-name="lacute" unicode="ĺ" horiz-adv-x="234" d="M63 759l-5 1q-12 6-7 26 2 10 7 15 1 1 26 21 6 4 20.5 19l18.5 19q9 9 29 24 9 6 18 8h2q2 0 3-1 2-1 4-6t3-6q2-4 2-13-3-16-11.5-29t-16-20.5T120 784q-14-14-23-19-6-4-20-6H63zM97 60q-6 12-12 123-4 79-1 268 2 180 4 202 5 40 20 40 8 0 16-15 4-7 5.5-34.5T133 475q4-217 6-244 6-111 5-136t-14-35q-8-7-18.5-7T97 60z"/><glyph glyph-name="uni013B" unicode="Ļ" horiz-adv-x="369" d="M117 60q-2 1-5.5 2t-5.5 2h-1q-5 6-10 325-3 282-12 315-4 25 16 35 2 1 9 5 2 0 8-2 14-9 20-79.5T146 352q4-186 5-192l2-40 78-1q81-1 92-7 14-8 14.5-22.5T324 67q-12-5-99.5-8T117 60zm66-200q-10-7-10 2 0 5 7 28 17 66 17 110 0 13 13 17t22-3q23-28 7-77.5T183-140z"/><glyph glyph-name="uni013C" unicode="ļ" horiz-adv-x="172" d="M71 60q-6 12-12 123-4 79-1 268 2 180 4 202 5 40 20 40 8 0 16-15 4-7 5.5-34.5T107 475q4-217 6-244 6-111 5-136t-14-35q-8-7-18.5-7T71 60zM60-140q-10-7-10 2 0 5 6 28Q74-44 74 0q0 13 13 17t22-3q23-28 7-77.5T60-140z"/><glyph glyph-name="Lcaron" unicode="Ľ" horiz-adv-x="369" d="M117 60q-2 1-5.5 2t-5.5 2h-1q-5 6-10 325-3 260-12 294-4 25 16 35 2 2 9 5 2 0 8-2 14-9 20-76t10-293q4-186 5-192l2-40 78-1q81-1 92-7 14-8 14.5-22.5T324 67q-12-5-99.5-8T117 60zm113 428l-5-2q-12-4-22 15-5 9-4 16 5 27 6 33 19 84 22 101 0 8 7 37 2 10 8 18l2 1q1 1 3 1 2 1 7-1.5t6-2.5q5-3 10-9 6-10 6-29t-3-35l-8.5-44.5L257 544q-2-21-5-29-1-3-11-18z"/><glyph glyph-name="lcaron" unicode="ľ" horiz-adv-x="209" d="M64 60q-6 12-12 123-4 79-1 268 2 180 4 202 5 40 20 40 9 0 16-15 4-7 5.5-34.5T100 475q4-217 6-244 6-111 5-136T97 60q-8-7-18.5-7T64 60zm100 401l-4-1q-5-2-11.5 2.5T139 474q-5 9-4 15 4 23 6 31 12 39 21 97 1 11 6 35 2 10 8 17l2 1h1q1 1 2 1 1 1 3 0l5-2.5 4-1.5q4-2 10-8 5-10 5-28t-2.5-33-8-42.5T190 515q-2-20-5-28-1-3-10-17z"/><glyph glyph-name="Lslash" unicode="Ł" horiz-adv-x="418" d="M91 356q4 6 14 14l39 32q-3 270-12 302-4 25 16 35 2 1 9 5 2 0 8-2 13-9 18.5-65t9.5-233l15 12q84 71 98 56 4-5 5.5-9.5t-.5-9.5-3.5-8-6-8.5-5.5-6.5q-2-2-38-35t-64-54l1-29q4-186 5-192l2-40 78-1q81-1 92-7 14-8 14.5-22.5T373 67q-12-5-99.5-8T166 60q-2 1-5.5 2t-4.5 2h-2q-4 5-9 278l-15-11q-26-22-37-15-23 23-2 40z"/><glyph glyph-name="lslash" unicode="ł" horiz-adv-x="252" d="M202 391q-2-12-10.5-24t-16-18.5L149 326q2-75 3-95 6-111 5-136t-14-35q-8-7-18.5-7T110 60q-6 12-12 123-2 62-2 99-14-9-19-9l-14-1-5 1q-12 6-7 26 2 10 7 15 10 10 38 32 0 64 1 105 2 180 4 202 5 40 20 40 9 0 16-15 4-7 5.5-34.5T146 475q0-14 .5-42t1.5-42q5 5 14 11l8 7q9 6 18 8h2q2 0 3-1 2-1 4-6t3-6q2-4 2-13z"/><glyph glyph-name="Nacute" unicode="Ń" horiz-adv-x="514" d="M203 731l-5 1q-12 6-7 26 2 10 7 15 1 1 26 21 13 10 57 50 9 9 29 24 9 6 18 8h2q2 0 3-1 2-1 4-6t3-6q2-4 2-13-2-10-6-18t-14-19-15.5-16l-23-20.5L260 756q-14-14-23-19-6-4-20-6h-14zM107 54q-10 11-14 54.5T86 278q-8 346-1 399 7 43 23 49 0 1 4 1 14 0 44-66 32-61 50-102 15-25 75-150 69-144 106-209l12-19v67q0 78-5 190-4 134-4 198t2.5 76.5T409 725q20 0 24-17 3-10 7-116 1-27 2.5-98.5T445 396q10-307 0-328-5-16-17-19t-22 8q-24 29-120 226-43 90-64 127l-54 106q-9 18-14 27l-8.5 15.5-5 8-2.5-.5q-2-3-1-155t5-231q5-114-9-126-15-13-26 0z"/><glyph glyph-name="nacute" unicode="ń" horiz-adv-x="366" d="M101 452l-5 1q-12 6-7 26 2 10 7 15 1 1 26 21 13 10 57 50 9 9 29 24 9 6 18 8h2q2 0 3-1 2-1 4-6t3-6q2-4 2-13-2-10-6-18t-14-19-15.5-16l-23-20.5L158 477q-14-14-23-19-6-4-20-6h-14zM292 53q-8-4-11-2t-8 13q-5 10-7 108-3 100-7 117-10 35-27 47-17 13-46 2t-54-40q-20-23-25-44.5t-7-91.5q-1-59-4-77T85 57q-6-8-10-7T61 61q-7 13-9 35t-1.5 66.5.5 56.5q-1 138 7 159 8 14 13 18 6 5 15-5 8-12 10-24 2-14 4-14 6 5 13 12 23 22 56 30 22 5 35 5 12 0 34-5 36-8 52-35 27-50 26-180 0-69-5-94.5T292 53z"/><glyph glyph-name="uni0145" unicode="Ņ" horiz-adv-x="514" d="M107 54q-10 11-14 54.5T86 278q-8 346-1 399 7 43 23 49 0 1 4 1 14 0 44-66 32-61 50-102 15-25 75-150 69-144 106-209l12-19v67q0 78-5 190-4 134-4 198t2.5 76.5T409 725q20 0 24-17 3-10 7-116 1-27 2.5-98.5T445 396q10-307 0-328-5-16-17-19t-22 8q-24 29-120 226-43 90-64 127l-54 106q-9 18-14 27l-8.5 15.5-5 8-2.5-.5q-2-3-1-155t5-231q5-114-9-126-15-13-26 0zm116-194q-10-7-10 2 0 5 7 28 17 66 17 110 0 13 13 17t22-3q23-28 7-77.5T223-140z"/><glyph glyph-name="uni0146" unicode="ņ" horiz-adv-x="366" d="M292 53q-8-4-11-2t-8 13q-5 10-7 108-3 100-7 117-10 35-27 47-17 13-46 2t-54-40q-20-23-25-44.5t-7-91.5q-1-59-4-77T85 57q-6-8-10-7T61 61q-7 13-9 35t-1.5 66.5.5 56.5q-1 138 7 159 8 14 13 18 6 5 15-5 8-12 10-24 2-14 4-14 6 5 13 12 23 22 56 30 22 5 35 5 12 0 34-5 36-8 52-35 27-50 26-180 0-69-5-94.5T292 53zM141-140q-10-7-10 2 0 5 7 28 17 66 17 110 0 13 13 17t22-3q23-28 7-77.5T141-140z"/><glyph glyph-name="Ncaron" unicode="Ň" horiz-adv-x="514" d="M379 889q4 2 12-1 7-7 7-11-1-4-9-15-12-16-47-51-44-44-56-55l-9-7-6-5q-9-11-17 1l-4 5q-5 5-10.5 12t-7.5 9q-16 22-42 51-22 25-24 27-6 8-7 10t-3 4v1l-1 2q0 8 10 16 11 7 21 7 6 0 14-5 3-2 8.5-7t8.5-8q17-17 40-47l18-23 23 25q28 31 57 52 15 10 24 13zM107 54q-10 11-14 54.5T86 278q-8 346-1 399 7 43 23 49 0 1 4 1 14 0 44-66 32-61 50-102 15-25 75-150 69-144 106-209l12-19v67q0 78-5 190-4 134-4 198t2.5 76.5T409 725q20 0 24-17 3-10 7-116 1-27 2.5-98.5T445 396q10-307 0-328-5-16-17-19t-22 8q-24 29-120 226-43 90-64 127l-54 106q-9 18-14 27l-8.5 15.5-5 8-2.5-.5q-2-3-1-155t5-231q5-114-9-126-15-13-26 0z"/><glyph glyph-name="ncaron" unicode="ň" horiz-adv-x="366" d="M180 444q-9-11-17 1l-5 5-9.5 12-7.5 9q-16 22-42 51-22 25-24 27-6 8-7 10t-3 4q0 1-1 3 0 8 10 16 10 7 21 7 6 0 14-5 3-2 8.5-7t8.5-8q17-17 40-47l18-23 23 25q28 31 57 52 15 10 24 13 4 2 12-1 7-7 7-11-1-4-9-15-12-16-47-51-44-44-56-55l-9-7-6-5zM292 53q-8-4-11-2t-8 13q-5 10-7 108-3 100-7 117-10 35-27 47-17 13-46 2t-54-40q-20-23-25-44.5t-7-91.5q-1-59-4-77T85 57q-6-8-10-7T61 61q-7 13-9 35t-1.5 66.5.5 56.5q-1 138 7 159 8 14 13 18 6 5 15-5 8-12 10-24 2-14 4-14 6 5 13 12 23 22 56 30 22 5 35 5 12 0 34-5 36-8 52-35 27-50 26-180 0-69-5-94.5T292 53z"/><glyph glyph-name="Eng" unicode="Ŋ" horiz-adv-x="513" d="M380-80q-50-4-87 39-22 26 1 34 22 6 39-9 27-26 54 11 7 13 3.5 49.5T377 105q-9 20-40 78t-51 100q-43 90-64 127l-54 106q-9 18-14 27l-8.5 15.5-5 8-2.5-.5q-2-3-1-155t5-231q5-114-9-126-15-13-26 0-10 11-14 54.5T86 278q-8 346-1 399 7 43 23 49 0 1 4 1 14 0 44-66 32-61 50-102 15-25 75-150 69-144 106-209l12-19v67q0 78-5 190-4 134-4 198t2.5 76.5T409 725q20 0 24-17 3-10 7-116 1-27 2.5-98.5T445 396q5-152 2-314-2-157-67-162z"/><glyph glyph-name="eng" unicode="ŋ" horiz-adv-x="367" d="M51 219q-1 138 7 159 8 14 13 18 6 5 15-5 8-12 10-24 2-14 4-14 6 5 13 12 23 22 56 30 22 5 35 5 12 0 34-5 36-8 52-35 27-50 26-180 0-6 .5-44.5T317 70V26q-2-39-17.5-71.5T257-80q-50-4-87 39-22 26 1 34 22 6 39-9 27-26 54 11 7 13 4 108l-2 69q-3 100-7 117-10 35-27 47-17 13-46 2t-54-40q-20-23-25-44.5t-7-91.5q-1-59-4-77T85 57q-6-8-10-7T61 61q-7 13-9 35t-1.5 66.5.5 56.5z"/><glyph glyph-name="Omacron" unicode="Ō" horiz-adv-x="436" d="M271 764q-35 0-53 1-8 0-24.5.5T170 767q-34 0-38 13-3 32 24 32 7 1 19 1h71q110 0 111-20 0-7-1.5-11.5t-6.5-7-8-3.5-10-2.5-8-1.5q-17-3-52-3zm5-718q-10-3-36-2.5T201 47q-34 8-67 38.5T89 152q-27 78-27 215 0 178 57 286 10 18 35 45.5t36 32.5q13 5 33 5 31 0 51-9 85-32 109-159 11-56 12.5-177T387 224q-14-71-44-119t-67-59zm-12 63q43 17 61 83 16 57 18.5 176.5T332 560q-7 38-26.5 71.5T263 676q-10 5-23 5-46 0-78-72-22-46-31-95t-12-138q-3-137 20-202 4-15 19.5-35.5T185 112q31-19 79-3z"/><glyph glyph-name="omacron" unicode="ō" horiz-adv-x="343" d="M195 471q-35 0-53 1-8 0-24.5.5T94 474q-34 0-38 13-3 32 24 32 7 1 19 1h71q110 0 111-20 0-7-1.5-11.5t-6.5-7-8-3.5-10-2.5-8-1.5q-17-3-52-3zM137 61q-35 10-60.5 36T40 161q-7 21-7 69 0 70 21 105 9 16 29.5 35t40.5 29q45 22 97-3 31-15 53-41t29-54q6-19 7-61.5t-3-61.5q-11-46-38.5-76.5T200 61q-34-9-63 0zm63 46q27 7 45.5 46.5T264 244q0 28-9 47-18 44-44 59-10 6-36 6-24 0-37-6.5T110 323q-40-53-28-117 10-50 29-76 16-21 36.5-26t52.5 3z"/><glyph glyph-name="Ohungarumlaut" unicode="Ő" horiz-adv-x="449" d="M168 759l-5 1q-12 6-7 26 2 10 7 15 1 1 26 21 6 4 20.5 19l18.5 19q9 9 29 24 9 6 18 8h2q2 0 3-1 2-1 4-6t3-6q2-4 2-13-3-16-11.5-29t-16-20.5T225 784q-14-14-23-19-6-4-20-6h-14zm119 0l-5 1q-12 6-7 26 2 10 7 15 1 1 26 21 6 4 20.5 19l18.5 19q9 9 29 24 9 6 18 8h2q2 0 3-1 2-1 4-6t3-6q2-4 2-13-3-16-11.5-29t-16-20.5T344 784q-14-14-23-19-6-4-20-6h-14zM276 46q-10-3-36-2.5T201 47q-34 8-67 38.5T89 152q-27 78-27 215 0 178 57 286 10 18 35 45.5t36 32.5q13 5 33 5 31 0 51-9 85-32 109-159 11-56 12.5-177T387 224q-14-71-44-119t-67-59zm-12 63q43 17 61 83 16 57 18.5 176.5T332 560q-7 38-26.5 71.5T263 676q-10 5-23 5-46 0-78-72-22-46-31-95t-12-138q-3-137 20-202 4-15 19.5-35.5T185 112q31-19 79-3z"/><glyph glyph-name="ohungarumlaut" unicode="ő" horiz-adv-x="343" d="M95 452l-5 1q-12 6-7 26 2 10 7 15 1 1 26 21 6 4 20.5 19l18.5 19q9 9 29 24 9 6 18 8h2q2 0 3-1 2-1 4-6t3-6q2-4 2-13-3-16-11.5-29t-16-20.5T152 477q-14-14-23-19-6-4-20-6H95zm119 0l-5 1q-12 6-7 26 2 10 7 15 1 1 26 21 6 4 20.5 19l18.5 19q9 9 29 24 9 6 18 8h2q2 0 3-1 2-1 4-6t3-6q2-4 2-13-3-16-11.5-29t-16-20.5T271 477q-14-14-23-19-6-4-20-6h-14zM137 61q-35 10-60.5 36T40 161q-7 21-7 69 0 70 21 105 9 16 29.5 35t40.5 29q45 22 97-3 31-15 53-41t29-54q6-19 7-61.5t-3-61.5q-11-46-38.5-76.5T200 61q-34-9-63 0zm63 46q27 7 45.5 46.5T264 244q0 28-9 47-18 44-44 59-10 6-36 6-24 0-37-6.5T110 323q-40-53-28-117 10-50 29-76 16-21 36.5-26t52.5 3z"/><glyph glyph-name="OE" unicode="Œ" horiz-adv-x="564" d="M239 46q-62-14-111 17.5T59 152q-27 78-27 215 0 89 16.5 169T89 647q6 11 14 20t17.5 15.5L138 694l18 9 16 5.5 14.5 4 9.5 2.5q23 7 60.5-9.5T303 663q10 31 27 36 51 11 142 11 70 0 78-12 4-6 2.5-14.5T544 671q-7-1-83-5-78-3-107-13-8-2-7-15l11-219 57-1q84-2 91-6 11-6 6-23-4-12-17.5-14t-79.5-4l-56-1-1-15q0-54-3-93-4-135-1-152l3-9h71q76 0 95.5-2.5T545 86q2-19-14-28-11-5-105-6-74-1-90-3-6-1-18-1-1 0-2 1-3 0-4 1-16 6-12 46-30-43-61-50zm-84 66q35-23 78.5-.5T288 192q11 53 13 190 1 49 0 90t-1 53q-6 55-18 84t-46 46q-10 5-23 5-121 0-124-274-2-151 20-212 4-15 19.5-35.5T155 112z"/><glyph glyph-name="oe" unicode="œ" horiz-adv-x="574" d="M33 230q0 70 21 105 9 16 29.5 35t40.5 29q45 22 97-3 47-23 70-66 24 45 62 67 55 31 101 8 23-12 36-33.5t9-39.5q-6-29-45-64t-93-60q-32-15-41-23t-7-19q4-20 16.5-37.5T355 107q28-10 74.5 2t72.5 35q10 10 22 9 17-3 17-14 0-6-19.5-24.5T484 86q-72-44-129-27-56 17-75 56-31-42-80-54-34-9-63 0-35 10-60.5 36T40 161q-7 21-7 69zm279 7q2-6 6-5 1 0 11 4 20 8 52 30.5t50 42.5q14 15 14 30 0 14-7 19-5 4-15 4-21 0-41-12-27-15-51.5-54.5T312 237zM82 206q10-50 29-76 16-21 36.5-26t52.5 3q27 7 45.5 46.5T264 244q0 28-9 47-18 44-44 59-10 6-36 6-24 0-37-6.5T110 323q-40-53-28-117z"/><glyph glyph-name="Racute" unicode="Ŕ" horiz-adv-x="456" d="M174 742l-5 1q-12 6-7 26 2 10 7 15 1 1 26 21 13 10 57 50 9 9 29 24 9 6 18 8h2q2 0 3-1 2-1 4-6t3-6q2-4 2-13-2-10-6-18t-14-19-15.5-16l-23-20.5L231 767q-14-14-23-19-6-4-20-6h-14zM118 57q-13 0-16 7-9 17-14 233-1 21-3 113-4 185-2 234t16 57q4 4 55.5 15t61.5 11q23 0 63.5-16t62.5-34q47-34 53-90 6-54-68-134-23-26-26.5-32t-3.5-18q0-20 28-86t67-137q28-53 33-68 11-23 11-33.5T425 59q-14-13-32 6-25 28-66.5 110.5T256 337q-14 42-20 49l-5 7-44-10-45-9 1-16q3-17 2-143t-3-137q-4-21-24-21zm24 381q11-6 50 2 66 15 105 52.5t43 89.5q1 24-6 37-13 24-45.5 40T219 676q-3 0-8.5-.5t-7.5-.5q-15-1-42-7.5t-30-8.5v-5q0-5-.5-14t-.5-20.5V563q0-76 2-98t10-27z"/><glyph glyph-name="racute" unicode="ŕ" horiz-adv-x="252" d="M76 452l-5 1q-12 6-7 26 2 10 7 15 1 1 26 21 13 10 57 50 9 9 29 24 9 6 18 8h2q2 0 3-1 2-1 4-6t3-6q2-4 2-13-2-10-6-18t-14-19-15.5-16l-23-20.5L133 477q-14-14-23-19-6-4-20-6H76zM51 61q-1 2-1 166 2 164 7 178 4 8 18 8 16 0 21.5-8t5.5-30 3-22q4 0 12 8 3 2 28 22 25 18 36 22 19 9 34 8 24 0 24-17 0-8-8-16t-19-12q-30-10-72-59-26-30-28-42-10-37-10-110 0-80-19-94-7-6-19-6.5T51 61z"/><glyph glyph-name="uni0156" unicode="Ŗ" horiz-adv-x="456" d="M118 57q-13 0-16 7-9 17-14 233-1 21-3 113-4 185-2 234t16 57q4 4 55.5 15t61.5 11q23 0 63.5-16t62.5-34q47-34 53-90 6-54-68-134-23-26-26.5-32t-3.5-18q0-20 28-86t67-137q28-53 33-68 11-23 11-33.5T425 59q-14-13-32 6-25 28-66.5 110.5T256 337q-14 42-20 49l-5 7-44-10-45-9 1-16q3-17 2-143t-3-137q-4-21-24-21zm24 381q11-6 50 2 66 15 105 52.5t43 89.5q1 24-6 37-13 24-45.5 40T219 676q-3 0-8.5-.5t-7.5-.5q-15-1-42-7.5t-30-8.5v-5q0-5-.5-14t-.5-20.5V563q0-76 2-98t10-27zm77-578q-10-7-10 2 0 5 7 28 17 66 17 110 0 13 13 17t22-3q23-28 7-77.5T219-140z"/><glyph glyph-name="uni0157" unicode="ŗ" horiz-adv-x="247" d="M46 61q-1 2-1 166 2 164 7 178 4 8 18 8 16 0 21.5-8t5.5-30 3-22q4 0 12 8 3 2 28 22 25 18 36 22 19 9 34 8 24 0 24-17 0-8-8-16t-19-12q-30-10-72-59-26-30-28-42-10-37-10-110 0-80-19-94-7-6-19-6.5T46 61zm-9-201q-10-7-10 2 0 5 7 28Q51-44 51 0q0 13 13 17t22-3q23-28 7-77.5T37-140z"/><glyph glyph-name="Rcaron" unicode="Ř" horiz-adv-x="456" d="M340 891q4 2 12-1 7-7 7-11-1-4-9-15-12-16-47-51-44-44-56-55l-9-7-6-5q-9-11-17 1l-5 5-9.5 12-7.5 9q-16 22-42 51-22 25-24 27-6 8-7 10t-3 4q0 1-1 3 0 8 10 16 10 7 21 7 6 0 14-5 3-2 8.5-7t8.5-8q17-17 40-47l18-23 23 25q28 31 57 52 15 10 24 13zM118 57q-13 0-16 7-9 17-14 233-1 21-3 113-4 185-2 234t16 57q4 4 55.5 15t61.5 11q23 0 63.5-16t62.5-34q47-34 53-90 6-54-68-134-23-26-26.5-32t-3.5-18q0-20 28-86t67-137q28-53 33-68 11-23 11-33.5T425 59q-14-13-32 6-25 28-66.5 110.5T256 337q-14 42-20 49l-5 7-44-10-45-9 1-16q3-17 2-143t-3-137q-4-21-24-21zm24 381q11-6 50 2 66 15 105 52.5t43 89.5q1 24-6 37-13 24-45.5 40T219 676q-3 0-8.5-.5t-7.5-.5q-15-1-42-7.5t-30-8.5v-5q0-5-.5-14t-.5-20.5V563q0-76 2-98t10-27z"/><glyph glyph-name="rcaron" unicode="ř" horiz-adv-x="259" d="M139 444q-9-11-17 1l-4 5q-5 5-10.5 12t-7.5 9q-16 22-42 51-23 25-24 27-6 8-7 10t-3 4v1l-1 2q0 8 10 16 11 7 21 7 6 0 14-5 3-2 8.5-7t8.5-8q17-17 40-47l18-23 23 25q28 31 57 52 15 10 24 13 4 2 12-1 7-7 7-11-1-4-9-15-12-16-47-51-44-44-56-55l-9-7-6-5zM51 61q-1 2-1 166 2 164 7 178 4 8 18 8 16 0 21.5-8t5.5-30 3-22q4 0 12 8 3 2 28 22 25 18 36 22 19 9 34 8 24 0 24-17 0-8-8-16t-19-12q-30-10-72-59-26-30-28-42-10-37-10-110 0-80-19-94-7-6-19-6.5T51 61z"/><glyph glyph-name="Sacute" unicode="Ś" horiz-adv-x="462" d="M189 731l-5 1q-12 6-7 26 2 10 7 15 1 1 26 21 13 10 57 50 9 9 29 24 9 6 18 8h2q2 0 3-1 2-1 4-6t3-6q2-4 2-13-2-10-6-18t-14-19-15.5-16l-23-20.5L246 756q-14-14-23-19-6-4-20-6h-14zm9-674q-64 16-100 61T62 228q0 28 5.5 41T83 280q16-5 20-45 10-54 40-86 34-37 81-46t91 15q75 39 42 116-24 57-122 141-73 63-95.5 105T123 588q4 53 38 91 29 32 67 39 7 1 19 1 58 0 101-39 22-22 27-53.5T362 592q-7-1-14.5 6.5T338 617q-2 10-15.5 23.5T293 661q-32 19-63 3-13-5-26.5-21T183 610q-21-51 1.5-97T283 404q40-32 73-68.5t45-59.5q28-58 16-107-21-84-114-110-54-15-105-2z"/><glyph glyph-name="sacute" unicode="ś" horiz-adv-x="322" d="M120 452l-5 1q-12 6-7 26 2 10 7 15 1 1 26 21 13 10 57 50 9 9 29 24 9 6 18 8h2q2 0 3-1 2-1 4-6t3-6q2-4 2-13-2-10-6-18t-14-19-15.5-16l-23-20.5L177 477q-14-14-23-19-6-4-20-6h-14zm29-403q-48 7-85 30-32 19-31 41 1 8 2.5 10t9.5 3q10 1 40-12 46-22 88-21 24 1 30.5 7.5T212 135q2 18-9 35-20 31-67 75-38 36-48 65-23 71 22 99 9 6 24 6 29 0 64.5-18t48.5-41q7-14 2-22-10-19-51 13-6 4-14 8.5t-18.5 8-18.5 0-9-16.5q-1-23 11-41t49-48q43-35 62.5-82.5T266 94q-12-26-44-38t-73-7z"/><glyph glyph-name="Scedilla" unicode="Ş" horiz-adv-x="462" d="M62 228q0 28 5.5 41T83 280q16-5 20-45 10-54 40-86 34-37 81-46t91 15q75 39 42 116-24 57-122 141-73 63-95.5 105T123 588q4 53 38 91 29 32 67 39 7 1 19 1 58 0 101-39 22-22 27-53.5T362 592q-7-1-14.5 6.5T338 617q-2 10-15.5 23.5T293 661q-32 19-63 3-13-5-26.5-21T183 610q-21-51 1.5-97T283 404q40-32 73-68.5t45-59.5q28-58 16-107-21-84-114-110-18-4-43-6-1-11-4-22-3-8 10-11 47-10 59-54 6-29-12.5-58.5T266-127q-50-9-92 23-27 21-7 33 18 12 38 1l4-2q23-15 38.5-13.5T270-71q6 20-3.5 35T238-19q-18 3-26 11t-6 18q0 2 14 43-16 2-22 4-64 16-100 61T62 228z"/><glyph glyph-name="scedilla" unicode="ş" horiz-adv-x="322" d="M33 120q1 8 2.5 10t9.5 3q10 1 40-12 46-22 88-21 24 1 30.5 7.5T212 135q2 18-9 35-20 31-67 75-38 36-48 65-23 71 22 99 9 6 24 6 29 0 64.5-18t48.5-41q7-14 2-22-10-19-51 13-6 4-14 8.5t-18.5 8-18.5 0-9-16.5q-1-23 11-41t49-48q43-35 62.5-82.5T266 94q-22-49-100-46l-2-11q-1-8 10-10 43-9 53-49 5-27-11.5-54T174-107q-47-8-84 21-25 19-6 31 19 10 38-2 21-13 35-12t20 13q5 18-3 32T148-9q-16 3-23.5 10.5T119 18l11 34Q90 62 64 79q-32 19-31 41z"/><glyph glyph-name="Scaron" unicode="Š" horiz-adv-x="462" d="M371 889q4 2 12-1 7-7 7-11-1-4-9-15-12-16-47-51-44-44-56-55l-9-7-6-5q-9-11-17 1l-4 5q-5 5-10.5 12t-7.5 9q-16 22-42 51-22 25-24 27-6 8-7 10t-3 4v1l-1 2q0 8 10 16 11 7 21 7 6 0 14-5 3-2 8.5-7t8.5-8q17-17 40-47l18-23 23 25q28 31 57 52 15 10 24 13zM198 57q-64 16-100 61T62 228q0 28 5.5 41T83 280q16-5 20-45 10-54 40-86 34-37 81-46t91 15q75 39 42 116-24 57-122 141-73 63-95.5 105T123 588q4 53 38 91 29 32 67 39 7 1 19 1 58 0 101-39 22-22 27-53.5T362 592q-7-1-14.5 6.5T338 617q-2 10-15.5 23.5T293 661q-32 19-63 3-13-5-26.5-21T183 610q-21-51 1.5-97T283 404q40-32 73-68.5t45-59.5q28-58 16-107-21-84-114-110-54-15-105-2z"/><glyph glyph-name="scaron" unicode="š" horiz-adv-x="322" d="M180 444q-9-11-17 1l-5 5-9.5 12-7.5 9q-16 22-42 51-22 25-24 27-6 8-7 10t-3 4q0 1-1 3 0 8 10 16 10 7 21 7 6 0 14-5 3-2 8.5-7t8.5-8q17-17 40-47l18-23 23 25q28 31 57 52 15 10 24 13 4 2 12-1 7-7 7-11-1-4-9-15-12-16-47-51-44-44-56-55l-9-7-6-5zM149 49q-48 7-85 30-32 19-31 41 1 8 2.5 10t9.5 3q10 1 40-12 46-22 88-21 24 1 30.5 7.5T212 135q2 18-9 35-20 31-67 75-38 36-48 65-23 71 22 99 9 6 24 6 29 0 64.5-18t48.5-41q7-14 2-22-10-19-51 13-6 4-14 8.5t-18.5 8-18.5 0-9-16.5q-1-23 11-41t49-48q43-35 62.5-82.5T266 94q-12-26-44-38t-73-7z"/><glyph glyph-name="uni0162" unicode="Ţ" horiz-adv-x="445" d="M42 695q1 16 46 20t204 4h62q80 0 87-7 3-3 3-18 0-19-16-23.5t-84-7.5q-81-2-83-4-4 0-1-168 2-92 2-293 0-120-3-133l-9-34q-3-8 10-11 47-10 59-54 6-29-12.5-58.5T260-127q-50-9-92 23-27 21-7 33 19 12 39 1 2-1 3-2 23-15 38.5-13.5T264-71q6 20-3.5 35T232-19q-18 3-26.5 11T200 10q17 56 17 61v124q0 112-2 178-4 73-6 175l-3 115-72 3q-58 2-76 7.5T42 695z"/><glyph glyph-name="uni0163" unicode="ţ" horiz-adv-x="242" d="M4 413q6 10 16 14.5t35 6.5q32 2 35 5 3 1 3 44 0 50 3.5 115t6.5 74q5 11 11 11t13-9q8-9 11.5-37t6.5-109l4-80q2-3 31-5 25-1 34.5-6t13.5-18q3-10-4-16t-38-6q-32-2-34-3-7-5-8.5-107.5T148 139q3-37 5-50V77q1-4 0-9v-7l-5-24q-1-8 10-10 43-9 53-49 5-27-11.5-54T158-107q-47-8-84 21-25 19-6 31 19 10 38-2 21-13 35-12t20 13q5 18-3 32T132-9q-16 3-23.5 10.5T103 18l11 33q-11 9-15 51.5T94 266l-2 125-8-2q-37-9-57-1-30 12-23 25z"/><glyph glyph-name="Tcaron" unicode="Ť" horiz-adv-x="445" d="M347 889q4 2 12-1 7-7 7-11-1-4-9-15-12-16-47-51-44-44-56-55l-9-7-6-5q-9-11-17 1l-4 5q-5 5-10.5 12t-7.5 9q-16 22-42 51-22 25-24 27-6 8-7 10t-3 4v1l-1 2q0 8 10 16 11 7 21 7 6 0 14-5 3-2 8.5-7t8.5-8q17-17 40-47l18-23 23 25q28 31 57 52 15 10 24 13zM224 62q-7 4-7 9v124q0 112-2 178-4 73-6 175l-3 115-72 3q-58 2-76 7.5T42 695q1 16 46 20t204 4h62q80 0 87-7 3-3 3-18 0-19-16-23.5t-84-7.5q-81-2-83-4-4 0-1-168 2-92 2-293 0-126-5-133-11-13-33-3z"/><glyph glyph-name="tcaron" unicode="ť" horiz-adv-x="242" d="M114 51q-11 9-15 51.5T94 266l-2 125-8-2q-37-9-57-1-30 12-23 25 6 10 16 14.5t35 6.5q32 2 35 5 3 1 3 44 0 50 3.5 115t6.5 74q5 11 11 11t13-9q8-9 11.5-37t6.5-109l4-80q2-3 31-5 25-1 34.5-6t13.5-18q3-10-4-16t-38-6q-32-2-34-3-7-5-8.5-107.5T148 139q3-37 5-50 1-29-5-36-5-6-16-6.5T114 51zm100 442l-4-1q-5-2-11.5 2.5T189 506q-5 9-4 15 4 23 6 31 7 22 15 76 1 11 6 35 2 9 8 17l2 1 1 1h2q1 1 3 0l5-2.5 4-1.5q4-2 10-8 4-8 6-17.5t.5-23-3-23.5-5-29l-5.5-30q-2-20-5-28-1-3-10-17z"/><glyph glyph-name="Tbar" unicode="Ŧ" horiz-adv-x="445" d="M42 695q1 16 46 20t204 4h62q80 0 87-7 3-3 3-18 0-19-16-23.5t-84-7.5q-81-2-83-4-4 0-1-159 93-2 94-20 0-7-1.5-11.5t-6.5-7-8-3.5-10-2.5-8-1.5q-17-3-52-3h-7q1-87 1-253 0-126-5-133-11-13-33-3-7 4-7 9v124q0 112-2 178l-3 79q-8 0-23.5.5T167 454q-34 0-38 13-3 32 24 32 7 1 19 1h38l-1 48-3 115-72 3q-58 2-76 7.5T42 695z"/><glyph glyph-name="tbar" unicode="ŧ" horiz-adv-x="242" d="M4 413q6 10 16 14.5t35 6.5q32 2 35 5 3 1 3 44 0 50 3.5 115t6.5 74q5 11 11 11t13-9q8-9 11.5-37t6.5-109l4-80q2-3 31-5 25-1 34.5-6t13.5-18q3-10-4-16t-38-6q-32-2-34-3-6-5-8-86 80-4 81-19 0-6-2-10.5t-6.5-7-7-3.5-9.5-2.5-8-1.5q-16-3-49-3 0-80 5-122 3-37 5-50 1-29-5-36-5-6-16-6.5T114 51q-11 9-15 50.5T94 262h-2q-8 0-23.5.5T46 264q-32 0-36 12-3 31 23 31 7 1 18 1h42l-1 83-8-2q-37-9-57-1-30 12-23 25z"/><glyph glyph-name="Umacron" unicode="Ū" horiz-adv-x="468" d="M273 774q-35 0-53 1-8 0-24.5.5T172 777q-34 0-38 13-3 32 24 32 7 1 19 1h71q110 0 111-20 0-7-1.5-11.5t-6.5-7-8-3.5-10-2.5-8-1.5q-17-3-52-3zM208 62q-62 15-92 56-16 21-22.5 64T83 323q-1 67-1 222t1 172q1 6 1.5 8t1.5 4 3 2.5 6 .5q22 2 26-18 1-8 3-110 7-359 26-426 15-40 45-55 14-5 49-5t49 7q32 19 42 59 8 33 16.5 176t8.5 260q0 97 11 106 5 6 16 6 11 2 13-5t3-115.5-1-200.5q-3-161-11-219t-30-85q-28-29-63-41-41-12-90-4z"/><glyph glyph-name="umacron" unicode="ū" horiz-adv-x="360" d="M206 471q-36 0-53 1-8 0-24.5.5T105 474q-34 0-38 13-3 32 24 32 7 1 19 1h71q110 0 111-20 0-7-1.5-11.5t-6.5-7-8-3.5-10-2.5-8-1.5q-17-3-52-3zM145 59q-63 17-78 68-11 41-16 147-5 108 7 128 6 8 19 7 16-1 20-13.5t7-76.5q4-123 12-158.5t33-49.5q17-9 42-9 44 1 54 23 9 17 11 44.5t3 117.5v29l.5 36 2.5 30 6 23q8 6 18 6t16-7q6-6 8-71 2-100-10-172t-34-87q-20-15-55-19t-66 4z"/><glyph glyph-name="Uring" unicode="Ů" horiz-adv-x="468" d="M181 775q-16 36 6 79 9 13 31 26 13 4 29 4 44 0 60-42 18-49-9-89-27-34-61-29.5T181 775zm30 38q0-20 10-30 8-12 18-14.5t17 1.5 13 10q14 18 9 36t-18 24q-19 6-34-1t-15-26zM83 323q-1 67-1 222t1 172q1 6 1.5 8t1.5 4 3 2.5 6 .5q22 2 26-18 1-8 3-110 7-359 26-426 15-40 45-55 14-5 49-5t49 7q32 19 42 59 8 33 16.5 176t8.5 260q0 97 11 106 5 6 16 6 11 2 13-5t3-115.5-1-200.5q-3-161-11-219t-30-85q-28-29-63-41-41-12-90-4-62 15-92 56-16 21-22.5 64T83 323z"/><glyph glyph-name="uring" unicode="ů" horiz-adv-x="360" d="M116 522q-16 36 6 79 9 13 31 26 13 4 29 4 44 0 60-42 18-49-9-89-27-34-61-29.5T116 522zm30 38q0-20 10-30 8-12 18-14.5t17 1.5 13 10q14 18 9 36t-18 24q-19 6-34-1t-15-26zm-1-501q-63 17-78 68-11 41-16 147-5 108 7 128 6 8 19 7 16-1 20-13.5t7-76.5q4-123 12-158.5t33-49.5q17-9 42-9 44 1 54 23 9 17 11 44.5t3 117.5v29l.5 36 2.5 30 6 23q8 6 18 6t16-7q6-6 8-71 2-100-10-172t-34-87q-20-15-55-19t-66 4z"/><glyph glyph-name="Uhungarumlaut" unicode="Ű" horiz-adv-x="600" d="M168 759l-5 1q-12 6-7 26 2 10 7 15 1 1 26 21 6 4 20.5 19l18.5 19q9 9 29 24 9 6 18 8h2q2 0 3-1 2-1 4-6t3-6q2-4 2-13-3-16-11.5-29t-16-20.5T225 784q-14-14-23-19-6-4-20-6h-14zm119 0l-5 1q-12 6-7 26 2 10 7 15 1 1 26 21 6 4 20.5 19l18.5 19q9 9 29 24 9 6 18 8h2q2 0 3-1 2-1 4-6t3-6q2-4 2-13-3-16-11.5-29t-16-20.5T344 784q-14-14-23-19-6-4-20-6h-14zM210 62q-62 15-92 56-16 21-22.5 64T85 323q-1 67-1 222t1 172q1 6 1.5 8t1.5 4 3 2.5 6 .5q22 2 26-18 1-8 3-110 7-359 26-426 15-40 45-55 14-5 49-5t49 7q32 19 42 59 8 33 16.5 176t8.5 260q0 97 11 106 5 6 16 6 11 2 13-5t3-115.5-1-200.5q-3-161-11-219t-30-85q-28-29-63-41-41-12-90-4z"/><glyph glyph-name="uhungarumlaut" unicode="ű" horiz-adv-x="360" d="M95 452l-5 1q-12 6-7 26 2 10 7 15 1 1 26 21 6 4 20.5 19l18.5 19q9 9 29 24 9 6 18 8h2q2 0 3-1 2-1 4-6t3-6q2-4 2-13-3-16-11.5-29t-16-20.5T152 477q-14-14-23-19-6-4-20-6H95zm119 0l-5 1q-12 6-7 26 2 10 7 15 1 1 26 21 6 4 20.5 19l18.5 19q9 9 29 24 9 6 18 8h2q2 0 3-1 2-1 4-6t3-6q2-4 2-13-3-16-11.5-29t-16-20.5T271 477q-14-14-23-19-6-4-20-6h-14zM145 59q-63 17-78 68-11 41-16 147-5 108 7 128 6 8 19 7 16-1 20-13.5t7-76.5q4-123 12-158.5t33-49.5q17-9 42-9 44 1 54 23 9 17 11 44.5t3 117.5v29l.5 36 2.5 30 6 23q8 6 18 6t16-7q6-6 8-71 2-100-10-172t-34-87q-20-15-55-19t-66 4z"/><glyph glyph-name="Uogonek" unicode="Ų" horiz-adv-x="479" d="M83 323q-1 67-1 222t1 172q1 6 1.5 8t1.5 4 3 2.5 6 .5q22 2 26-18 1-8 3-110 7-359 26-426 15-40 45-55 14-5 49-5t49 7q8 4 17 13 19 21 25 46 8 33 16.5 176t8.5 260q0 97 11 106 5 6 16 6 11 2 13-5t3-115.5-1-200.5q-4-213-21-265-3-13-18.5-41T336 65q-27-32-13-57 22-34 48-6 14 15 34 11 21-4-3-30-11-12-19.5-19t-20-13.5T339-55t-24 10q-48 34-45 80 2 21 4 26-40-4-66 1-62 15-92 56-16 21-22.5 64T83 323z"/><glyph glyph-name="uogonek" unicode="ų" horiz-adv-x="600" d="M51 274q-5 108 7 128 6 8 19 7 16-1 20-13.5t7-76.5q4-123 12-158.5t33-49.5q17-9 42-9 44 1 54 23 9 17 11 44.5t3 117.5v29l.5 36 2.5 30 6 23q8 6 18 6t16-7q6-6 8-71 3-150-23-225-1-9-17-37t-27-41q-27-32-13-57 22-34 48-6 14 15 34 11 21-4-3-30-11-12-19.5-19t-20-13.5T246-90t-24 10q-48 34-45 80 3 31 18 54-24-1-50 5-63 17-78 68-11 41-16 147z"/><glyph glyph-name="Wcircumflex" unicode="Ŵ" horiz-adv-x="536" d="M172 733q-4-2-12 1-7 7-7 11 1 4 9 15 12 16 61 65 44 44 56 55l9 7 6 5q9 11 17-1l5-5 9.5-12 7.5-9q15-22 52-62 22-25 24-27 6-8 7-10t3-4l1-1v-2q0-8-10-16-10-7-21-7-6 0-14 5-3 2-8.5 7t-8.5 8q-23 23-50 58l-18 23-23-25q-42-45-71-66-15-10-24-13zm-9-676q-9 0-13 4-4 5-20 148-9 80-40 288-23 153-26.5 191t3.5 42q4 4 12 4t13-3q7-5 14.5-43.5T134 511q3-16 6-37t5.5-35 3.5-19q0-4 3-21.5t7-44.5 7-51q15-99 16-100 1-2 7 6 2 3 3 6 9 17 29.5 63.5T250 349q16 46 26.5 45.5T305 345q41-101 58-131 8-13 10-13l1 3q6 28 16 111 4 23 8 50.5l6 40.5 2 13q0 1 3 11 41 281 47 290 10 15 21 15 5 0 9-3 9-9 9-24 0-20-31-211-37-260-42-311-10-97-14-113-2-10-5-13t-11-3q-11 0-22 18.5T334 157q-53 127-56 127-6 0-60-136-25-58-34.5-74.5T163 57z"/><glyph glyph-name="wcircumflex" unicode="ŵ" horiz-adv-x="467" d="M109 447q-4-2-12 1-7 7-7 11 1 4 9 15 12 16 61 65 44 44 56 55l9 7 6 5q9 11 17-1l4-5q5-5 10.5-12t7.5-9q15-21 52-62 22-25 24-27 6-8 7-10t3-4v-1q1-1 1-2 0-8-10-16-11-7-21-7-6 0-14 5-3 2-8.5 7t-8.5 8q-23 23-50 58l-18 23-23-25q-42-45-71-66-15-10-24-13zm25-394q-12 0-21 11-7 9-14 43-7 37-28 125T42 341q-18 49-5 65 9 10 24-8 13-15 32.5-67T124 228q9-40 14-40 2 0 18.5 39t24.5 64q21 65 33 65 6 0 16-10 15-14 38-86 26-77 43-102l8-11 3 7q10 25 21.5 78.5T362 312l9 32.5 9.5 30L385 388q6 24 21 24 10 0 20-9 9-7 8-19-2-14-20-68-32-93-55-245-3-18-30-18-17 0-26.5 17T256 177q-18 46-23.5 56T222 243t-8.5-5.5T201 209q-12-29-27-75.5T159 80q0-5-6-17-7-10-19-10z"/><glyph glyph-name="Ycircumflex" unicode="Ŷ" horiz-adv-x="490" d="M141 733q-4-2-12 1-7 7-7 11 1 4 9 15 12 16 61 65 44 44 56 55l9 7 6 5q9 11 17-1l4-5q5-5 10.5-12t7.5-9q15-22 52-62 22-25 24-27 6-8 7-10t3-4v-1q1-1 1-2 0-8-10-16-10-7-21-7-6 0-14 5-3 2-8.5 7t-8.5 8q-23 23-50 58l-18 23-23-25q-42-45-71-66-15-10-24-13zm92-671q-9 10-9 194 0 118-2 142-4 22-16 44-19 40-60 104t-70 99q-27 34-32.5 49.5T50 722q10 7 13 7 7-2 16-7 7-4 26.5-27.5T140 649q89-136 92-142l15-21q7-5 13 1 11 13 87 128 53 78 80 103 21 18 34 4 11-14 5.5-30T433 642q-31-38-73-102t-61-102q-11-21-14-59.5T281 219q-2-121-5-137-5-13-21.5-21T233 62z"/><glyph glyph-name="ycircumflex" unicode="ŷ" horiz-adv-x="325" d="M50 447q-4-2-12 1-7 7-7 11 1 4 9 15 12 16 61 65 44 44 56 55l9 7 6 5q9 11 17-1l5-5 9.5-12 7.5-9q15-21 52-62 23-25 24-27 6-8 7-10t3-4l1-1v-2q0-8-10-16-10-7-21-7-6 0-14 5-3 2-8.5 7t-8.5 8q-23 23-50 58l-18 23-23-25q-42-45-71-66-15-10-24-13zm8-676Q45-210 94-58l42 134q4 13-5 36-6 19-39 93-30 64-39 90-2 8-18 47-12 29-12 50t6 23q5 3 10-4 25-35 55-107 24-52 45-91t26-39q7 0 54 123 26 67 41.5 93.5T289 417q4 0 8-2 8-5 2.5-26T266 292q-21-55-51-148L175 22q-11-28-40-123-37-117-49-127-6-5-15.5-5.5T58-229z"/><glyph glyph-name="Ydieresis" unicode="Ÿ" horiz-adv-x="490" d="M286 807q0 37 20 43 18 4 26-18 7-16 4-57-1-7-8-12-5-4-15-8-24-4-26 25-1 8-1 27zm-92 0q0 25 1 31 2 6 4 7 29 11 41-17 7-15 4-53-1-7-8-12-5-4-15-8-21-4-24 9l-2 16q-1 8-1 27zm39-745q-9 10-9 194 0 118-2 142-4 22-16 44-19 40-60 104t-70 99q-27 34-32.5 49.5T50 722q10 7 13 7 7-2 16-7 7-4 26.5-27.5T140 649q89-136 92-142l15-21q7-5 13 1 11 13 87 128 53 78 80 103 21 18 34 4 11-14 5.5-30T433 642q-31-38-73-102t-61-102q-11-21-14-59.5T281 219q-2-121-5-137-5-13-21.5-21T233 62z"/><glyph glyph-name="Zacute" unicode="Ź" horiz-adv-x="472" d="M219 742l-5 1q-12 6-7 26 2 10 7 15 1 1 26 21 13 10 57 50 9 9 29 24 9 6 18 8h2q2 0 3-1 2-1 4-6t3-6q2-4 2-13-2-10-6-18t-14-19-15.5-16l-23-20.5L276 767q-14-14-23-19-6-4-20-6h-14zM115 61q-39-2-45 1-13 12-4.5 45.5T112 222q71 152 147 280 88 147 86 162-3 15-101 17-72 2-85 5-12 5-8 23 2 12 20 15.5t96 5.5q72 2 78 2 43 0 55-13 5-8 4-23-6-64-131-276-58-104-125-236l-34-70 32-1q52 0 145 3 114 4 125-1 21-12 12-33-6-13-16-15-12-4-134-4-27 0-65.5-.5t-63.5-1-34-.5z"/><glyph glyph-name="zacute" unicode="ź" horiz-adv-x="358" d="M110 452l-5 1q-12 6-7 26 2 10 7 15 1 1 26 21 13 10 57 50 9 9 29 24 9 6 18 8h2q2 0 3-1 2-1 4-6t3-6q2-4 2-13-2-10-6-18t-14-19-15.5-16l-23-20.5L167 477q-14-14-23-19-6-4-20-6h-14zM72 50q-20 9-20 25 0 13 49 77 63 86 102 154l27 45-72 2q-60 2-78 6t-26 15q-11 18 13 34 7 5 38 5 29 0 52-1 67-1 87-4.5t30-17.5q8-12 8-29 0-31-19-67.5T199 199q-39-47-53-70l-13-21 39-1q46 0 76 3 74 6 84-4 8-5 8-14 0-6-5.5-13.5T322 68q-4-1-77-7-84-6-94-8-63-11-79-3z"/><glyph glyph-name="Zdotaccent" unicode="Ż" horiz-adv-x="472" d="M245 807q0 37 20 43 16 4 26-18 7-16 4-57-1-7-8-12-5-4-15-8-24-4-26 25-1 8-1 27zM115 61q-39-2-45 1-13 12-4.5 45.5T112 222q71 152 147 280 88 147 86 162-3 15-101 17-72 2-85 5-12 5-8 23 2 12 20 15.5t96 5.5q72 2 78 2 43 0 55-13 5-8 4-23-6-64-131-276-58-104-125-236l-34-70 32-1q52 0 145 3 114 4 125-1 21-12 12-33-6-13-16-15-12-4-134-4-27 0-65.5-.5t-63.5-1-34-.5z"/><glyph glyph-name="zdotaccent" unicode="ż" horiz-adv-x="358" d="M168 472q-24-4-26 25-1 8-1 27 0 37 20 43 16 4 26-18 7-16 4-57-1-7-8-12-5-4-15-8zM72 50q-20 9-20 25 0 13 49 77 63 86 102 154l27 45-72 2q-60 2-78 6t-26 15q-11 18 13 34 7 5 38 5 29 0 52-1 67-1 87-4.5t30-17.5q8-12 8-29 0-31-19-67.5T199 199q-39-47-53-70l-13-21 39-1q46 0 76 3 74 6 84-4 8-5 8-14 0-6-5.5-13.5T322 68q-4-1-77-7-84-6-94-8-63-11-79-3z"/><glyph glyph-name="Zcaron" unicode="Ž" horiz-adv-x="472" d="M383 889q4 2 12-1 7-7 7-11-1-4-9-15-12-16-47-51-44-44-56-55l-9-7-6-5q-9-11-17 1l-4 5q-5 5-10.5 12t-7.5 9q-16 22-42 51-22 25-24 27-6 8-7 10t-3 4v1l-1 2q0 8 10 16 11 7 21 7 6 0 14-5 3-2 8.5-7t8.5-8q17-17 40-47l18-23 23 25q28 31 57 52 15 10 24 13zM115 61q-39-2-45 1-13 12-4.5 45.5T112 222q71 152 147 280 88 147 86 162-3 15-101 17-72 2-85 5-12 5-8 23 2 12 20 15.5t96 5.5q72 2 78 2 43 0 55-13 5-8 4-23-6-64-131-276-58-104-125-236l-34-70 32-1q52 0 145 3 114 4 125-1 21-12 12-33-6-13-16-15-12-4-134-4-27 0-65.5-.5t-63.5-1-34-.5z"/><glyph glyph-name="zcaron" unicode="ž" horiz-adv-x="358" d="M180 444q-9-11-17 1l-5 5-9.5 12-7.5 9q-16 22-42 51-22 25-24 27-6 8-7 10t-3 4q0 1-1 3 0 8 10 16 10 7 21 7 6 0 14-5 3-2 8.5-7t8.5-8q17-17 40-47l18-23 23 25q28 31 57 52 15 10 24 13 4 2 12-1 7-7 7-11-1-4-9-15-12-16-47-51-44-44-56-55l-9-7-6-5zM72 50q-20 9-20 25 0 13 49 77 63 86 102 154l27 45-72 2q-60 2-78 6t-26 15q-11 18 13 34 7 5 38 5 29 0 52-1 67-1 87-4.5t30-17.5q8-12 8-29 0-31-19-67.5T199 199q-39-47-53-70l-13-21 39-1q46 0 76 3 74 6 84-4 8-5 8-14 0-6-5.5-13.5T322 68q-4-1-77-7-84-6-94-8-63-11-79-3z"/><glyph glyph-name="uni0218" unicode="Ș" horiz-adv-x="462" d="M62 228q0 28 5.5 41T83 280q16-5 20-45 10-54 40-86 34-37 81-46t91 15q75 39 42 116-24 57-122 141-73 63-95.5 105T123 588q4 53 38 91 29 32 67 39 7 1 19 1 58 0 101-39 22-22 27-53.5T362 592q-7-1-14.5 6.5T338 617q-2 10-15.5 23.5T293 661q-32 19-63 3-13-5-26.5-21T183 610q-21-51 1.5-97T283 404q40-32 73-68.5t45-59.5q28-58 16-107-21-84-114-110-54-15-105-2-64 16-100 61T62 228zm138-368q-10-7-10 2 0 5 6 28 18 66 18 110 0 13 13 17t22-3q23-28 7-77.5T200-140z"/><glyph glyph-name="uni0219" unicode="ș" horiz-adv-x="322" d="M149 49q-48 7-85 30-32 19-31 41 1 8 2.5 10t9.5 3q10 1 40-12 46-22 88-21 24 1 30.5 7.5T212 135q2 18-9 35-20 31-67 75-38 36-48 65-23 71 22 99 9 6 24 6 29 0 64.5-18t48.5-41q7-14 2-22-10-19-51 13-6 4-14 8.5t-18.5 8-18.5 0-9-16.5q-1-23 11-41t49-48q43-35 62.5-82.5T266 94q-12-26-44-38t-73-7zm-19-189q-10-7-10 2 0 5 6 28 18 66 18 110 0 13 13 17t22-3q23-28 7-77.5T130-140z"/><glyph glyph-name="uni021A" unicode="Ț" horiz-adv-x="445" d="M42 695q1 16 46 20t204 4h62q80 0 87-7 3-3 3-18 0-19-16-23.5t-84-7.5q-81-2-83-4-4 0-1-168 2-92 2-293 0-126-5-133-11-13-33-3-7 4-7 9v124q0 112-2 178-4 73-6 175l-3 115-72 3q-58 2-76 7.5T42 695zm158-835q-10-7-10 2 0 5 6 28 18 66 18 110 0 13 13 17t22-3q23-28 7-77.5T200-140z"/><glyph glyph-name="uni021B" unicode="ț" horiz-adv-x="242" d="M114 51q-11 9-15 51.5T94 266l-2 125-8-2q-37-9-57-1-30 12-23 25 6 10 16 14.5t35 6.5q32 2 35 5 3 1 3 44 0 50 3.5 115t6.5 74q5 11 11 11t13-9q8-9 11.5-37t6.5-109l4-80q2-3 31-5 25-1 34.5-6t13.5-18q3-10-4-16t-38-6q-32-2-34-3-7-5-8.5-107.5T148 139q3-37 5-50 1-29-5-36-5-6-16-6.5T114 51zM95-140q-10-7-10 2 0 5 7 28 17 66 17 110 0 13 13 17t22-3q23-28 7-77.5T95-140z"/><glyph glyph-name="gravecomb" unicode="̀" d="M-112 731h-14q-14 2-20 6-9 5-23 19l-20 17.5-19 17-15.5 14.5-13.5 15-8.5 14-5.5 16q0 9 2 13 1 1 3 6t4 6q1 1 3 1h2q9-2 18-8 20-15 29-24 44-40 57-50 25-20 26-21 5-5 7-15 5-20-7-26z"/><glyph glyph-name="acutecomb" unicode="́" d="M-238 731l-5 1q-12 6-7 26 2 10 7 15 1 1 26 21 13 10 57 50 9 9 29 24 9 6 18 8h2q2 0 3-1 2-1 4-6t3-6q2-4 2-13-2-10-6-18t-14-19-15.5-16l-23-20.5L-181 756q-14-14-23-19-6-4-20-6h-14z"/><glyph glyph-name="uni0302" unicode="̂" d="M-347 712q-4-2-12 1-7 7-7 11 1 4 9 15 12 16 61 65 44 44 56 55l9 7 6 5q9 11 17-1l4-5q5-5 10.5-12t7.5-9q15-22 52-62 23-25 24-27 6-8 7-10t3-4v-1l1-2q0-8-10-16-11-7-21-7-6 0-14 5-3 2-8.5 7t-8.5 8q-23 23-50 58l-18 23-23-25q-42-45-71-66-15-10-24-13z"/><glyph glyph-name="tildecomb" unicode="̃" d="M-170 741q-24 2-35 7-14 8-38 30-22 21-34 24-5 2-8 0-1-1-6-8-5-12-5-26 0-15-9-21-5-3-10-3-5 2-9 6-12 12-10 37 2 24 15 39 32 35 78 12 18-9 39-28 15-17 40-23 19 0 20 19 1 2 1.5 10t1.5 11q3 9 10 15 22 7 27-5 4-9 2-32-2-32-21-47-19-17-49-17z"/><glyph glyph-name="uni0304" unicode="̄" d="M-185 753q-35 0-53 1-8 0-24.5.5T-286 756q-34 0-38 13-3 32 24 32 7 1 19 1h71q110 0 111-20 0-7-1.5-11.5t-6.5-7-8-3.5-10-2.5-8-1.5q-17-3-52-3z"/><glyph glyph-name="uni0306" unicode="̆" d="M-240 729q-30 7-57 41-15 20-17 34-5 25 7 35 6 4 8 4 4 1 9-2 7-4 18-23 29-47 65-47 39-2 62 55 3 9 12 16 6 5 16 5 1 1 2 1l1-1q8 0 9-1 8-6 6-10 3-45-41-82-45-38-100-25z"/><glyph glyph-name="uni0307" unicode="̇" d="M-150 807q0 37 20 43 16 4 26-18 7-16 4-57-1-7-8-12-5-4-15-8-24-4-26 25-1 8-1 27z"/><glyph glyph-name="uni0308" unicode="̈" d="M-150 807q0 37 20 43 18 4 26-18 7-16 4-57-1-7-8-12-5-4-15-8-24-4-26 25-1 8-1 27zm-92 0q0 25 1 31 2 6 4 7 29 11 41-17 7-15 4-53-1-7-8-12-5-4-15-8-21-4-24 9l-2 16q-1 8-1 27z"/><glyph glyph-name="uni030A" unicode="̊" d="M-232 775q-16 36 6 79 9 13 31 26 13 4 29 4 44 0 60-42 18-49-9-89-27-34-61-29.5t-56 51.5zm30 38q0-20 10-30 8-12 18-14.5t17 1.5 13 10q14 18 9 36t-18 24q-19 6-34-1t-15-26z"/><glyph glyph-name="uni030B" unicode="̋" d="M-339 759l-5 1q-12 6-7 26 2 10 7 15 1 1 26 21 6 4 20.5 19l18.5 19q9 9 29 24 9 6 18 8h2q2 0 3-1 2-1 4-6t3-6q2-4 2-13-3-16-11.5-29t-16-20.5T-282 784q-14-14-23-19-6-4-20-6h-14zm119 0l-5 1q-12 6-7 26 2 10 7 15 1 1 26 21 6 4 20.5 19l18.5 19q9 9 29 24 9 6 18 8h2q2 0 3-1 2-1 4-6t3-6q2-4 2-13-3-16-11.5-29t-16-20.5T-163 784q-14-14-23-19-6-4-20-6h-14z"/><glyph glyph-name="uni030C" unicode="̌" d="M-118 891q4 2 12-1 7-7 7-11-1-4-9-15-12-16-47-51-44-44-56-55l-9-7-6-5q-9-11-17 1l-5 5-9.5 12-7.5 9q-16 22-42 51-23 25-24 27-6 8-7 10t-3 4q0 1-1 3 0 8 10 16 10 7 21 7 6 0 14-5 3-2 8.5-7t8.5-8q17-17 40-47l18-23 23 25q28 31 57 52 15 10 24 13z"/><glyph glyph-name="uni0312" unicode="̒" d="M-161 607q-10-7-10 2 0 5 7 28 17 67 17 110 0 13 13 17t22-3q23-28 7-77.5t-56-76.5z"/><glyph glyph-name="uni0326" unicode="̦" d="M-161-140q-10-7-10 2 0 5 7 28 17 66 17 110 0 13 13 17t22-3q23-28 7-77.5t-56-76.5z"/><glyph glyph-name="uni0327" unicode="̧" d="M-165 54q-1-12-4-23-3-8 10-11 47-10 59-54 6-29-12.5-58.5T-159-127q-50-9-92 23-27 21-7 33 18 12 38 1l4-2q23-15 38.5-13.5T-155-71q6 20-3.5 35T-187-19q-18 3-26 11t-6 18q1 6 15 44h39z"/><glyph glyph-name="uni0328" unicode="̨" d="M-144 90l-14-30q-4-11-19-30-27-32-13-57 22-34 48-6 14 15 34 11 21-4-3-30-11-12-19.5-19t-20-13.5T-174-90t-24 10q-48 34-45 80 3 32 15 51 6 9 15 20 7 10 7 19h62z"/><glyph glyph-name="Wgrave" unicode="Ẁ" horiz-adv-x="536" d="M328 731h-14q-14 2-20 6-9 5-23 19l-20 17.5-19 17-15.5 14.5-13.5 15-8.5 14-5.5 16q0 9 2 13 1 1 3 6t4 6q1 1 3 1h2q9-2 18-8 20-15 29-24 44-40 57-50 25-20 26-21 5-5 7-15 5-20-7-26zM163 57q-9 0-13 4-4 5-20 148-9 80-40 288-23 153-26.5 191t3.5 42q4 4 12 4t13-3q7-5 14.5-43.5T134 511q3-16 6-37t5.5-35 3.5-19q0-4 3-21.5t7-44.5 7-51q15-99 16-100 1-2 7 6 2 3 3 6 9 17 29.5 63.5T250 349q16 46 26.5 45.5T305 345q41-101 58-131 8-13 10-13l1 3q6 28 16 111 4 23 8 50.5l6 40.5 2 13q0 1 3 11 41 281 47 290 10 15 21 15 5 0 9-3 9-9 9-24 0-20-31-211-37-260-42-311-10-97-14-113-2-10-5-13t-11-3q-11 0-22 18.5T334 157q-53 127-56 127-6 0-60-136-25-58-34.5-74.5T163 57z"/><glyph glyph-name="wgrave" unicode="ẁ" horiz-adv-x="467" d="M266 452l-14 1q-4 0-25 14-9 5-23 19l-28 24-25 21.5-14.5 17L127 571q0 9 2 13 1 1 3 6t4 6q1 1 3 1h2q9-2 18-8 20-15 29-24 5-4 43-36.5t40-34.5q5-5 7-15 5-20-7-26zM134 53q-12 0-21 11-7 9-14 43-7 37-28 125T42 341q-18 49-5 65 9 10 24-8 13-15 32.5-67T124 228q9-40 14-40 2 0 18.5 39t24.5 64q21 65 33 65 6 0 16-10 15-14 38-86 26-77 43-102l8-11 3 7q10 25 21.5 78.5T362 312l9 32.5 9.5 30L385 388q6 24 21 24 10 0 20-9 9-7 8-19-2-14-20-68-32-93-55-245-3-18-30-18-17 0-26.5 17T256 177q-18 46-23.5 56T222 243t-8.5-5.5T201 209q-12-29-27-75.5T159 80q0-5-6-17-7-10-19-10z"/><glyph glyph-name="Wacute" unicode="Ẃ" horiz-adv-x="536" d="M225 731l-5 1q-12 6-7 26 2 10 7 15 1 1 26 21 13 10 57 50 9 9 29 24 9 6 18 8h2q2 0 3-1 2-1 4-6t3-6q2-4 2-13-2-10-6-18t-14-19-15.5-16l-23-20.5L282 756q-14-14-23-19-6-4-20-6h-14zM163 57q-9 0-13 4-4 5-20 148-9 80-40 288-23 153-26.5 191t3.5 42q4 4 12 4t13-3q7-5 14.5-43.5T134 511q3-16 6-37t5.5-35 3.5-19q0-4 3-21.5t7-44.5 7-51q15-99 16-100 1-2 7 6 2 3 3 6 9 17 29.5 63.5T250 349q16 46 26.5 45.5T305 345q41-101 58-131 8-13 10-13l1 3q6 28 16 111 4 23 8 50.5l6 40.5 2 13q0 1 3 11 41 281 47 290 10 15 21 15 5 0 9-3 9-9 9-24 0-20-31-211-37-260-42-311-10-97-14-113-2-10-5-13t-11-3q-11 0-22 18.5T334 157q-53 127-56 127-6 0-60-136-25-58-34.5-74.5T163 57z"/><glyph glyph-name="wacute" unicode="ẃ" horiz-adv-x="467" d="M162 452l-5 1q-12 6-7 26 2 10 7 15 1 1 26 21 13 10 57 50 9 9 29 24 9 6 18 8h2q2 0 3-1 2-1 4-6t3-6q2-4 2-13-2-10-6-18t-14-19-15.5-16l-23-20.5L219 477q-14-14-23-19-6-4-20-6h-14zM134 53q-12 0-21 11-7 9-14 43-7 37-28 125T42 341q-18 49-5 65 9 10 24-8 13-15 32.5-67T124 228q9-40 14-40 2 0 18.5 39t24.5 64q21 65 33 65 6 0 16-10 15-14 38-86 26-77 43-102l8-11 3 7q10 25 21.5 78.5T362 312l9 32.5 9.5 30L385 388q6 24 21 24 10 0 20-9 9-7 8-19-2-14-20-68-32-93-55-245-3-18-30-18-17 0-26.5 17T256 177q-18 46-23.5 56T222 243t-8.5-5.5T201 209q-12-29-27-75.5T159 80q0-5-6-17-7-10-19-10z"/><glyph glyph-name="Wdieresis" unicode="Ẅ" horiz-adv-x="536" d="M302 807q0 37 20 43 16 4 26-18 7-16 4-57-1-7-8-12-5-4-15-8-24-4-26 25-1 8-1 27zm-92 0q0 25 1 31 2 6 4 7 29 11 41-17 7-15 4-53-1-7-8-12-5-4-15-8-21-4-24 9l-2 16q-1 8-1 27zM163 57q-9 0-13 4-4 5-20 148-9 80-40 288-23 153-26.5 191t3.5 42q4 4 12 4t13-3q7-5 14.5-43.5T134 511q3-16 6-37t5.5-35 3.5-19q0-4 3-21.5t7-44.5 7-51q15-99 16-100 1-2 7 6 2 3 3 6 9 17 29.5 63.5T250 349q16 46 26.5 45.5T305 345q41-101 58-131 8-13 10-13l1 3q6 28 16 111 4 23 8 50.5l6 40.5 2 13q0 1 3 11 41 281 47 290 10 15 21 15 5 0 9-3 9-9 9-24 0-20-31-211-37-260-42-311-10-97-14-113-2-10-5-13t-11-3q-11 0-22 18.5T334 157q-53 127-56 127-6 0-60-136-25-58-34.5-74.5T163 57z"/><glyph glyph-name="wdieresis" unicode="ẅ" horiz-adv-x="467" d="M266 519q-24-4-26 25-1 8-1 27 0 37 20 43 16 4 26-18 7-16 4-57-1-7-8-12-5-4-15-8zm-92 0q-21-4-24 9l-2 16q-1 8-1 27 0 25 1 31 2 6 4 7 29 11 41-17 7-15 4-53-1-7-8-12-5-4-15-8zM134 53q-12 0-21 11-7 9-14 43-7 37-28 125T42 341q-18 49-5 65 9 10 24-8 13-15 32.5-67T124 228q9-40 14-40 2 0 18.5 39t24.5 64q21 65 33 65 6 0 16-10 15-14 38-86 26-77 43-102l8-11 3 7q10 25 21.5 78.5T362 312l9 32.5 9.5 30L385 388q6 24 21 24 10 0 20-9 9-7 8-19-2-14-20-68-32-93-55-245-3-18-30-18-17 0-26.5 17T256 177q-18 46-23.5 56T222 243t-8.5-5.5T201 209q-12-29-27-75.5T159 80q0-5-6-17-7-10-19-10z"/><glyph glyph-name="Ygrave" unicode="Ỳ" horiz-adv-x="600" d="M314 731h-14q-14 2-20 6-9 5-23 19l-20 17.5-19 17-15.5 14.5-13.5 15-8.5 14-5.5 16q0 9 2 13 1 1 3 6t4 6q1 1 3 1h2q9-2 18-8 20-15 29-24 44-40 57-50 25-20 26-21 5-5 7-15 5-20-7-26zM233 62q-9 10-9 194 0 118-2 142-4 22-16 44-19 40-60 104t-70 99q-27 34-32.5 49.5T50 722q10 7 13 7 7-2 16-7 7-4 26.5-27.5T140 649q89-136 92-142l15-21q7-5 13 1 11 13 87 128 53 78 80 103 21 18 34 4 11-14 5.5-30T433 642q-31-38-73-102t-61-102q-11-21-14-59.5T281 219q-2-121-5-137-5-13-21.5-21T233 62z"/><glyph glyph-name="ygrave" unicode="ỳ" horiz-adv-x="325" d="M208 452l-14 1q-4 0-25 14-9 5-23 19l-28 24-25 21.5-14.5 17L69 571q0 9 2 13 1 1 3 6t4 6q1 1 3 1h2q9-2 18-8 20-15 29-24 5-4 43-36.5t40-34.5q5-5 7-15 5-20-7-26zM58-229Q45-210 94-58l42 134q4 13-5 36-6 19-39 93-30 64-39 90-2 8-18 47-12 29-12 50t6 23q5 3 10-4 25-35 55-107 24-52 45-91t26-39q7 0 54 123 26 67 41.5 93.5T289 417q4 0 8-2 8-5 2.5-26T266 292q-21-55-51-148L175 22q-11-28-40-123-37-117-49-127-6-5-15.5-5.5T58-229z"/><glyph glyph-name="endash" unicode="–" horiz-adv-x="434" d="M58 316q-23 3-25 19 0 7 6.5 16.5T57 364q5 1 41.5 2.5T202 370t120 4q79 4 79-9-1-17-9-26.5T375 326t-25-5q-24-3-149-5.5T58 316z"/><glyph glyph-name="emdash" unicode="—" horiz-adv-x="639" d="M58 316q-23 3-25 19 0 7 6.5 16.5T57 364q5 1 93.5 2.5t205 3T527 374q79 4 79-9-1-17-9-26.5T580 326t-25-5q-24-3-251.5-5.5T58 316z"/><glyph glyph-name="quoteleft" unicode="‘" horiz-adv-x="149" d="M94 791q9 0 14-4 4-2 6-5.5t2-8-.5-7.5-2-8-1.5-7q-8-20-17.5-59L83 645q-1-10-11-16t-20-2q-9 1-14.5 8T33 651q6 48 33 117 9 24 26 23h2z"/><glyph glyph-name="quoteright" unicode="’" horiz-adv-x="128" d="M64 785q21-4 29-27 4-31 1-65-8-45-24-63-11-10-25.5-5T34 645q14 105 14 114 0 25 16 26z"/><glyph glyph-name="quotesinglbase" unicode="‚" horiz-adv-x="157" d="M94 104q9 0 14-4 4-2 6-5.5t2-8-.5-7.5-2-8-1.5-7q-8-20-17.5-59L83-42q-1-10-11-16t-20-2q-9 1-14.5 8T33-36q6 48 33 117 9 24 26 23h2z"/><glyph glyph-name="quotedblleft" unicode="“" horiz-adv-x="235" d="M94 791q9 0 14-4 4-2 6-5.5t2-8-.5-7.5-2-8-1.5-7q-8-20-17.5-59L83 645q-1-10-11-16t-20-2q-9 1-14.5 8T33 651q6 48 33 117 9 24 26 23h2zm90-31q6 0 12-5t6-11q-1-16-12.5-42.5T176 666q-2-4-5.5-22.5T159 618q-13-9-28 1.5T117 645q0 9 2.5 20t6 18l9.5 19 9 18q1 2 5 9.5t6.5 11 7 8.5 9 7.5T182 759q1 0 2 1z"/><glyph glyph-name="quotedblright" unicode="”" horiz-adv-x="208" d="M64 785q21-4 29-27 4-31 1-65-8-45-24-63-11-10-25.5-5T34 645q14 105 14 114 0 25 16 26zm94-9q12-2 15-13 4-22-7-84-1-3-3-12.5t-3-13.5-3.5-12-5-13-6.5-10.5-9-9.5q-22-17-34-8-2 10-2 13.5t2.5 13.5l3.5 14q1 6 10.5 42t13.5 55q4 34 27 38h1z"/><glyph glyph-name="quotedblbase" unicode="„" horiz-adv-x="224" d="M47-31l-2 1Q30-22 34 3q11 71 30 117 9 21 29 12 11-2 16.5-12t1.5-19L97.5 54.5 83-6q-1-1-3-8t-3.5-10-5.5-7-10-4q-9 0-14 4zm94-18q-1 1-2 1-4 3-6.5 7t-4 7.5-2 10-.5 9.5V5q0 5 1 19.5l1.5 22L132 65l8 19q7 13 24.5 14.5T190 86q3-10-3-27.5T181 36q-3-10-6.5-38T164-45q-3-5-10.5-6T141-49z"/><glyph glyph-name="bullet" unicode="•" horiz-adv-x="309" d="M90 313q-19 41 7 92 11 16 36 30 15 4 33 4 52 0 70-48 21-56-11-103-12-13-29-21t-36-8.5-38 13.5-32 41z"/><glyph glyph-name="ellipsis" unicode="…" horiz-adv-x="372" d="M50 114q7 9 18.5 10.5T88 117q20-26 6-50-9-11-40-9-17 2-21 20 0 15 17 36zm120 0q7 9 18.5 10.5T208 117q20-26 6-50-9-11-40-9-17 2-21 20 0 15 17 36zm158 3q20-26 6-50-9-11-40-9-17 2-21 20 0 15 17 36 7 9 18.5 10.5T328 117z"/><glyph glyph-name="guilsinglleft" unicode="‹" horiz-adv-x="333" d="M272 143q-16 3-46 30-61 53-125 125-30 36-38 62-5 12 7 26 61 73 105 112l50 43q7 8 23 10 17-5 21-11 5-5 5-13.5t-5-13.5q-8-10-26-24t-25-22q-62-62-91-103-5-11-2-14 4-9 9.5-16t16.5-18.5 13-14.5q24-25 110-109 19-19 18-31-5-21-20-18z"/><glyph glyph-name="guilsinglright" unicode="›" horiz-adv-x="285" d="M52 167q-15-3-19 17-1 11 17 29l47 46 58 58q32 37 37 47 3 3-2 13-33 46-87 98-7 7-23.5 21T55 519q-11 13 0 26 4 5 20 10 15-2 22-9l14.5-13 17-15 15.5-13q43-37 100-107 12-14 7-25-8-26-36-59-60-69-119-119-30-26-44-28z"/><glyph glyph-name="fraction" unicode="⁄" horiz-adv-x="412" d="M-1-106q-5 5-3.5 20T3-64q9 9 22 37l131.5 295.5L326 636q38 71 56 109 15 31 22.5 40.5T423 795q13 0 18-6 11-16-62-160Q254 384 102 11 97 0 84-23T66-58L55.5-81 48-97q-5-8-24.5-11.5T-1-106z"/><glyph glyph-name="Euro" unicode="€" horiz-adv-x="467" d="M32 314q-3 32 24 32 7 1 19 1h8v41l-13 1q-34 0-38 13-3 32 24 32 7 1 19 1h13q4 30 12 63 15 65 38.5 106t64.5 75q42 34 75 41 13 3 25 3 66 0 95-65 24-57-8-57-9 0-36 31-29 33-45 38.5t-44-9.5q-77-43-104-142-10-39-16-84l90 1q110 0 111-20 0-7-1.5-11.5t-6.5-7-8-3.5-10-2.5-8-1.5q-17-3-52-3-5 0-19 .5t-34 .5h-66q-2-28-2-41l96 1q110 0 111-20 0-7-1.5-11.5t-6.5-7-8-3.5-10-2.5-8-1.5q-17-3-52-3-36 0-53 1h-67q7-69 26-113 13-29 40-51.5t53-26.5q23-6 66 14 9 3 51 29 36 22 43 20 8-4 7.5-13.5t-11-24.5-27.5-30q-39-34-74-44-16-4-52-6t-49 1q-28 7-63 49-56 68-65 197H70q-34 0-38 13z"/><glyph glyph-name="trademark" unicode="™" horiz-adv-x="500" d="M283 498q-7-2-13 3t-7 12q-1 25 0 72t1 62q2 109 5 131 2 18 14.5 23t27.5-10q8-12 25.5-43t28.5-46q11 16 29.5 48.5T416 787q4 9 14.5 12t18.5-3q11-6 13-35 2-37 5-223v-15.5l-2-15.5q-7-16-22-8-18 6-18 37-2 143-4 173-4-5-9.5-15t-8.5-14q-2-3-10-16t-14-19q-7-6-16-5t-15 8q-11 14-35 56-5 3-4 3-2-32-2.5-92t-1.5-84q0-30-22-33zm-140 0q-15 2-20 9-1 23-1 68t-1 68q-1 18-1 53.5t-2 53.5q-7 0-20.5.5t-24.5 1-21 1.5q-16 2-19 17-1 7 5 12.5t14 6.5l107 3h59q6-1 11-.5t11 0 10-2.5q11-6 9-19.5T245 753q-21-3-85-3 0-45 2-131V514q-4-16-19-16z"/><glyph glyph-name="minus" unicode="−" horiz-adv-x="434" d="M58 316q-23 3-25 19 0 7 6.5 16.5T57 364q5 1 41.5 2.5T202 370t120 4q79 4 79-9-1-17-9-26.5T375 326t-25-5q-24-3-149-5.5T58 316z"/><glyph glyph-name="notequal" unicode="≠" horiz-adv-x="434" d="M322 313q79 4 79-9-1-17-9-26.5T375 265t-25-5q-15-2-158-6-60-90-69-99-16-18-30-9-6 5-10 15t0 21q4 8 44 72-52-1-69 1-23 3-25 19 0 7 6.5 16.5T57 303q8 2 105 4l46 72q-128-4-150 0-23 3-25 19 0 7 6.5 16.5T57 427q4 1 28 2t71.5 2 86.5 3l23 35 12 18 13.5 19.5L308 525l11 3q13-11 16-23t.5-20.5T325 461q-2-3-15-25 4 1 12 1 79 4 79-9-1-17-9-26.5T375 389t-25-5q-27-3-76-4l-46-71q14 0 45.5 1.5T322 313z"/><glyph glyph-name="lessequal" unicode="≤" horiz-adv-x="339" d="M296 259q-18-6-54 4-106 35-195 72-5 2-7.5 9t1 18.5T54 386l121 101 50 43q7 8 23 10 17-5 21-11 5-5 5-13.5t-5-13.5q-8-10-26-24t-25-22q-17-17-53-46.5T111 364q-1-2 29-14.5t70-26.5 64-20q25-6 31-18 7-20-9-26zm-15-90q-18-3-95.5-1.5T84 172q-16 2-25 5t-17 12.5-9 26.5q0 13 79 9l170-8q11-3 17.5-12.5T306 188q-2-16-25-19z"/><glyph glyph-name="greaterequal" unicode="≥" horiz-adv-x="339" d="M43 259q-16 6-9 26 6 12 31 18 24 6 64 20t70 26.5 29 14.5q-18 16-54 45.5T121 456q-7 8-25 22t-26 24q-4 5-4 13.5t4 13.5q4 6 21 11 16-2 23-10l50-43 121-101q10-12 13.5-23.5t1-18.5-7.5-9q-89-37-195-72-36-10-54-4zm15-90q-23 3-25 19 0 7 6.5 16.5T57 217l170 8q79 4 79-9-1-17-9-26.5T280 177t-25-5q-24-3-101.5-4.5T58 169z"/><glyph glyph-name="i.loclTRK" horiz-adv-x="165" d="M77 472q-24-4-26 25-1 8-1 27 0 37 20 43 16 4 26-18 7-16 4-57-1-7-8-12-5-4-15-8zM95 59q-13 1-20.5 9.5t-9.5 17-5 24.5q-3 25-5.5 140.5T55 385q3 23 19 25 14 0 20-24 5-19 10-248 4-79-9-79z"/></font>
</defs>
</svg>
